<svg id="donate" xmlns="http://www.w3.org/2000/svg" xmlns:xlink="http://www.w3.org/1999/xlink" viewBox="0 0 1725.2 1310.4"><defs><style>.cls-1{opacity:0.35;}.cls-2{fill:#abe9ff;}.cls-3{fill:#231f20;}.cls-3,.cls-57{opacity:0.15;}.cls-4{fill:#66e8c4;}.cls-5{fill:#3fd2c5;}.cls-6{fill:#35bfe6;}.cls-7{fill:#0a88d2;}.cls-8{fill:#49d3d5;}.cls-9{fill:#0fa1b8;}.cls-10{fill:#66e8c7;}.cls-11{fill:#cadbf9;}.cls-12{fill:#a1b7eb;}.cls-13{fill:#e8b795;}.cls-14{fill:#2d313d;}.cls-15{fill:#1c1715;}.cls-16{fill:#eba97a;}.cls-17{fill:#fdc596;}.cls-18{fill:#ed65b2;}.cls-19{fill:#476291;}.cls-20{fill:#3e5c87;}.cls-21{fill:#f6f6f6;}.cls-22{fill:#dce2ea;}.cls-23{fill:#e55daa;}.cls-24{fill:#ff77c4;}.cls-25{fill:#ffaf5d;}.cls-26{fill:#eb8511;}.cls-27{fill:#ffb017;}.cls-28{fill:#fdce14;}.cls-29{fill:#fe920c;}.cls-30{fill:#feb05b;}.cls-31{fill:#f4be84;}.cls-32{fill:#9cd6e2;}.cls-33{fill:#442b19;}.cls-34{fill:#513826;}.cls-35{fill:#48c1f0;}.cls-36{fill:#11499e;}.cls-37{fill:url(#linear-gradient);}.cls-38{fill:#073270;}.cls-39,.cls-47{fill:#fff;}.cls-39{opacity:0.34;}.cls-40{fill:#c0dced;}.cls-41{fill:#00a2e6;}.cls-42{fill:#06b9f7;}.cls-43{fill:#003cac;}.cls-44{fill:#048dbc;}.cls-45{fill:#eff8fc;}.cls-46{fill:#3c9ef1;}.cls-48{fill:#fbc0a4;}.cls-49{fill:#4484e0;}.cls-50{fill:#312b6d;}.cls-51{fill:#3f4752;}.cls-52{fill:#2f3740;}.cls-53{fill:#efab8f;}.cls-54{fill:#346ed8;}.cls-55{fill:#221e52;}.cls-56{fill:#6cc0ef;}.cls-57{fill:#126cd4;}.cls-58{fill:#ebf2f7;}.cls-59{fill:#8e89c4;}.cls-60{fill:#56569b;}.cls-61{fill:#fba700;}.cls-62{fill:#ffd415;}.cls-63{fill:#fbfeff;}.cls-64{fill:#3d9d0f;}.cls-65{fill:#89c80a;}.cls-66{fill:#ffeb67;}.cls-67{fill:orange;}.cls-68{fill:#eb860d;}.cls-69{fill:#ffef04;}</style><linearGradient id="linear-gradient" x1="-3657.04" y1="640.27" x2="-3657.04" y2="1681.56" gradientTransform="matrix(-1, 0, 0, 1, -2675.85, -3.84)" gradientUnits="userSpaceOnUse"><stop offset="0" stop-color="#fff"/><stop offset="0.1" stop-color="#f0f9fd"/><stop offset="0.3" stop-color="#d7f0fb"/><stop offset="0.51" stop-color="#c6e9f9"/><stop offset="0.73" stop-color="#bbe5f7"/><stop offset="1" stop-color="#b8e4f7"/></linearGradient></defs><title>donate</title><g class="cls-1"><path class="cls-2" d="M137.7,932.7h0c0-101.8,88.5-184.3,197.7-184.3h41.2c-19.3-15.6-31.5-38.6-31.5-64.2h0c0-46.9,40.8-85,91.1-85H573.4c-13.8-11.1-22.7-27.6-22.7-46,0-33.5,29.2-60.7,65.2-60.7H960.6c35.9,0,65.1,27.2,65.1,60.7S996.5,614,960.6,614H831.5c-24,15.3-39.8,41-39.8,70.2h0c0,25.6,12.2,48.6,31.5,64.2h212.3c109.1,0,197.7,82.5,197.7,184.3h0c0,101.8-88.6,184.3-197.7,184.3h281.1c50.3,0,91.1,38,91.1,84.9s-40.8,85-91.1,85h114.6c125.2,0,229.1,84.6,249.7,195.8H1721c78.1,0,141.3,59,141.3,131.7v13.4c0,72.7-63.2,131.7-141.3,131.7H391.2c-140,0-253.5-105.8-253.5-236.3h0c0-130.5,113.5-236.3,253.5-236.3H834.9c-50.3,0-91-38.1-91-85s40.7-84.9,91-84.9H335.4C226.2,1117,137.7,1034.5,137.7,932.7Z" transform="translate(-137.2 -492.5)"/><path class="cls-2" d="M1145.2,614c-32.7,0-59.2-27.2-59.2-60.8s26.5-60.7,59.2-60.7,59.2,27.2,59.2,60.7S1177.9,614,1145.2,614Z" transform="translate(-137.2 -492.5)"/></g><ellipse class="cls-3" cx="862.8" cy="1269.8" rx="857.8" ry="40.6"/><path class="cls-4" d="M218.4,1708.2c2.3-1.7,7,.3,22.1-6,22-9.1,30.6-56.5,30.6-56.5-33.5-4.2-31.4,44.1-44.4,52.3-5.8,3.8-8.6,7.4-9.8,10.2Z" transform="translate(-137.2 -492.5)"/><path class="cls-5" d="M260.7,1659.8c-6.9,14.1-15,34.8-28.8,41.4a32.8,32.8,0,0,0-8.7,5.9c3.3-.4,8.5-1.2,17.3-4.9,22-9.1,30.6-56.5,30.6-56.5S267.6,1645.8,260.7,1659.8Z" transform="translate(-137.2 -492.5)"/><path class="cls-6" d="M204.3,1708.2h3.6c2.4-5,3.1-14.4-4.7-31.8-14.6-32-22-73.5-11.8-85.8,0,0-34.9,24.9-27,50.7C171.9,1665.5,209.3,1681.7,204.3,1708.2Z" transform="translate(-137.2 -492.5)"/><path class="cls-7" d="M205.8,1708.2h2.1c2.4-5,3.1-14.4-4.7-31.8-14.6-32-22-73.5-11.8-85.8,0,0-23,25.6-14.3,50.1S212.2,1677.5,205.8,1708.2Z" transform="translate(-137.2 -492.5)"/><path class="cls-8" d="M169.9,1694.7c13.3,5.4,18.9,9,22.6,13.5h4.7c-3.5-10.5-5.6-21.8-13.7-30.3s-45-25.5-46.3-27.4S152,1687.4,169.9,1694.7Z" transform="translate(-137.2 -492.5)"/><path class="cls-9" d="M193.1,1705.2a31.1,31.1,0,0,0,1.2,3h2.9c-3.5-10.5-5.6-21.8-13.7-30.3s-45-25.5-46.3-27.4c0,0,17.4,21.8,36.7,31.7C187.7,1689.3,191.3,1699.9,193.1,1705.2Z" transform="translate(-137.2 -492.5)"/><path class="cls-10" d="M214.4,1693a52,52,0,0,1-3.4,15.2h2.5c8.7-11.2,22.1-33,19.6-58.5-3.7-37.2-7.7-83.9-7.7-83.9s-49,37.2-24.9,78.4C212.6,1664.7,215.2,1681.1,214.4,1693Z" transform="translate(-137.2 -492.5)"/><path class="cls-5" d="M216.8,1624.4c5,30.8,5.1,65.3-2.8,79.9,1.4-1,2.9-2.1,4.5-3.1,8-12.2,16.6-30.6,14.6-51.5-3.7-37.2-7.7-83.9-7.7-83.9S210.4,1584.2,216.8,1624.4Z" transform="translate(-137.2 -492.5)"/><path class="cls-11" d="M243.2,1705.9H187.4a8,8,0,0,0-7.8,9.4l7.1,41a12.3,12.3,0,0,0,12.1,10h32.9a12.3,12.3,0,0,0,12.2-10l7.1-41A8,8,0,0,0,243.2,1705.9Z" transform="translate(-137.2 -492.5)"/><path class="cls-12" d="M251.1,1714.2a8,8,0,0,0-7.9-8.3H187.4a7.9,7.9,0,0,0-7.9,8.3Z" transform="translate(-137.2 -492.5)"/><path class="cls-12" d="M243.2,1705.9H227.7a8,8,0,0,1,7.8,9.4l-7.1,41a12.3,12.3,0,0,1-12.2,10h15.5a12.3,12.3,0,0,0,12.2-10l7.1-41A8,8,0,0,0,243.2,1705.9Z" transform="translate(-137.2 -492.5)"/><path class="cls-4" d="M1778,1708.2c2.3-1.7,6.9.3,22-6,22-9.1,30.6-56.5,30.6-56.5-33.5-4.2-31.4,44.1-44.3,52.3-5.9,3.8-8.6,7.4-9.9,10.2Z" transform="translate(-137.2 -492.5)"/><path class="cls-5" d="M1820.2,1659.8c-6.9,14.1-15,34.8-28.7,41.4a32.8,32.8,0,0,0-8.7,5.9c3.3-.4,8.5-1.2,17.2-4.9,22-9.1,30.6-56.5,30.6-56.5S1827.1,1645.8,1820.2,1659.8Z" transform="translate(-137.2 -492.5)"/><path class="cls-6" d="M1763.9,1708.2h3.6c2.3-5,3.1-14.4-4.8-31.8-14.6-32-21.9-73.5-11.8-85.8,0,0-34.8,24.9-26.9,50.7C1731.4,1665.5,1768.9,1681.7,1763.9,1708.2Z" transform="translate(-137.2 -492.5)"/><path class="cls-7" d="M1765.3,1708.2h2.2c2.4-5,3.1-14.4-4.8-31.8-14.6-32-21.9-73.5-11.8-85.8,0,0-23,25.6-14.2,50.1S1771.8,1677.5,1765.3,1708.2Z" transform="translate(-137.2 -492.5)"/><path class="cls-8" d="M1729.5,1694.7c13.2,5.4,18.9,9,22.6,13.5h4.6c-3.4-10.5-5.5-21.8-13.7-30.3s-45-25.5-46.2-27.4S1711.6,1687.4,1729.5,1694.7Z" transform="translate(-137.2 -492.5)"/><path class="cls-9" d="M1752.7,1705.2a16,16,0,0,0,1.1,3h2.9c-3.4-10.5-5.5-21.8-13.7-30.3s-45-25.5-46.2-27.4c0,0,17.3,21.8,36.6,31.7C1747.2,1689.3,1750.9,1699.9,1752.7,1705.2Z" transform="translate(-137.2 -492.5)"/><path class="cls-10" d="M1773.9,1693a49,49,0,0,1-3.4,15.2h2.6c8.7-11.2,22-33,19.5-58.5-3.6-37.2-7.6-83.9-7.6-83.9s-49,37.2-24.9,78.4C1772.1,1664.7,1774.8,1681.1,1773.9,1693Z" transform="translate(-137.2 -492.5)"/><path class="cls-5" d="M1776.4,1624.4c5,30.8,5,65.3-2.9,79.9l4.6-3.1c8-12.2,16.6-30.6,14.5-51.5-3.6-37.2-7.6-83.9-7.6-83.9S1769.9,1584.2,1776.4,1624.4Z" transform="translate(-137.2 -492.5)"/><path class="cls-11" d="M1802.7,1705.9H1747a8,8,0,0,0-7.9,9.4l7.1,41a12.4,12.4,0,0,0,12.2,10h32.9a12.3,12.3,0,0,0,12.1-10l7.2-41A8,8,0,0,0,1802.7,1705.9Z" transform="translate(-137.2 -492.5)"/><path class="cls-12" d="M1810.7,1714.2a8.1,8.1,0,0,0-8-8.3H1747a8.1,8.1,0,0,0-8,8.3Z" transform="translate(-137.2 -492.5)"/><path class="cls-12" d="M1802.7,1705.9h-15.5a8,8,0,0,1,7.9,9.4l-7.2,41a12.3,12.3,0,0,1-12.1,10h15.5a12.3,12.3,0,0,0,12.1-10l7.2-41A8,8,0,0,0,1802.7,1705.9Z" transform="translate(-137.2 -492.5)"/><path class="cls-13" d="M541.1,1580.5s-6.6,125.5-11,152.4c0,0,2.7,7.1,18.2,11.7s24.7,9.1,18.5,16.5c0,0-58.7,1.4-63.4-2s-3-8.8,3.8-21.6c0,0-9.7-144.3-4.1-157Z" transform="translate(-137.2 -492.5)"/><path class="cls-13" d="M492.8,1580.5s-.9,36.9-12.4,62.2-33.2,76.3-33.2,84.5v20.5s-12.9,8.6-19.6-6c0,0,2.9-21.9,5.5-38.9s13-69.5,16.8-85.7,4.7-36.6,4.7-36.6Z" transform="translate(-137.2 -492.5)"/><path class="cls-14" d="M549.6,1745c14.8,4.4,23.2,8.9,17.2,16.1,0,0-58.7,1.4-63.4-2s-3.2-8.1,2.4-19C505.8,1740.1,535.4,1753.3,549.6,1745Z" transform="translate(-137.2 -492.5)"/><path class="cls-14" d="M447.2,1747.7s8.9,7.6,4.2,15.7-26,2.3-28.6-2,4.8-19.7,4.8-19.7Z" transform="translate(-137.2 -492.5)"/><path class="cls-15" d="M485.8,1197.9s-10.9-5.6-19.3,16.4-8.7,56.4-5.7,68.1c0,0-24.2,26.1-4.4,43.1,0,0,27.2,28.6,29,35.9.7-1.7,12.3-22.7,31.3-23.9s65.5-50.1,40.6-57.7c0,0,1.9,7.9-6.6,6s-3.1-31.1-3.2-41.5-6.3-35.8-24.4-46.6S484.2,1187.7,485.8,1197.9Z" transform="translate(-137.2 -492.5)"/><path class="cls-16" d="M516.7,1265.9s3.9,14.6,6.4,16.5c0,0,2.6,6.7-5,25.7s-26.8,8.4-29.8,3.2-9.9-15.1-3.7-24.9c0,0,8.5-6.2,4-19.6C488.6,1266.8,515.3,1261.5,516.7,1265.9Z" transform="translate(-137.2 -492.5)"/><path class="cls-17" d="M485.3,1267.2s12.9,9.9,23.4,6.1,19.8-14,22.7-24.2-1.8-30.6-8.9-37.9-33.3-12-40.7-2.5S471.6,1256.3,485.3,1267.2Z" transform="translate(-137.2 -492.5)"/><path class="cls-18" d="M461.6,1447.3s-28,15-29.5,22.6l30.8-9.8Z" transform="translate(-137.2 -492.5)"/><path class="cls-19" d="M543.9,1455.5s11.2,82,.3,134.2c0,0-79,6.2-93.9-2.1,0,0-4.9-89.9,1.2-131.6Z" transform="translate(-137.2 -492.5)"/><path class="cls-20" d="M450.3,1587.6a125.8,125.8,0,0,0-.7-15.5c6.7,3.4,21.4,12.5,44,8.9,30.6-4.9,37.6-68.5,34-98.4a90.5,90.5,0,0,0-9.3-29.5l25.6,2.4s11.2,82,.3,134.2C544.2,1589.7,465.2,1595.9,450.3,1587.6Z" transform="translate(-137.2 -492.5)"/><path class="cls-21" d="M488.9,1281.5s23,10.1,34.1-1.4c0,0,48.2,48.3,20.9,174.9,0,0-92,4.8-93.8,5.1s6.6-27.5,17.4-35.2,72.4-43.2,21.2-141.4C488.3,1282.9,488.4,1282.5,488.9,1281.5Z" transform="translate(-137.2 -492.5)"/><path class="cls-22" d="M480.3,1458.3c72.7-16.5,50.2-90.9,52.7-105.8,2.1-12.4-18.4-53.5-25.4-66.9,5.6,0,11.3-1.3,15.4-5.5,0,0,48.2,48.3,20.9,174.9l-64,3.4Z" transform="translate(-137.2 -492.5)"/><path class="cls-23" d="M587,1377.9c6.7,15,23.4,13.2,23.4,13.2h0l-8.2,22.3c-23.7,9.7-38.7-14.3-38.7-14.3-15.5-17.8-21.1-113.6-21.1-113.6C567.1,1293.4,580.2,1362.8,587,1377.9Z" transform="translate(-137.2 -492.5)"/><path class="cls-24" d="M560.1,1318.7s-1.5-9.2-4.6-21.3c-.9-3.5-3.2-7.6-6.4-9.6-7-4.3-18.2-6.5-26.9-7.7,0,0,24,91.3,22.4,160.9-1.2,6.1-1.7,11.4-.7,14,0,0,5.7,2.3,15.5,8.9s-3.5-45.6-5.6-54.1C559.6,1376.6,563.5,1353.2,560.1,1318.7Z" transform="translate(-137.2 -492.5)"/><path class="cls-24" d="M488.2,1281.2a84,84,0,0,0-14.3,3.1c-3.3,1.1-25.8,9.3-24.3,45,1.7,38.7,5.2,71.2-.4,84.5s-18.2,35.3-18.9,59.1c28.7-23.1,63.3-47.9,82.3-87.8C539,1329.6,488.2,1281.2,488.2,1281.2Z" transform="translate(-137.2 -492.5)"/><path class="cls-23" d="M467.6,1287.3c-7.7,4.8-19.1,16.3-18,42,1.7,38.7,5.2,71.2-.4,84.5s-18.2,35.3-18.9,59.1c0,0,12.4-39.7,32.6-60.5C462.9,1412.4,446.7,1328.9,467.6,1287.3Z" transform="translate(-137.2 -492.5)"/><path class="cls-25" d="M492.3,1414.4v-14.7a372.5,372.5,0,0,0,56,4.1,377.4,377.4,0,0,0,55.4-4.1v14.7a.6.6,0,0,1,.1.4c0,3.9-24.9,7-55.7,7s-55.8-3-55.8-7Z" transform="translate(-137.2 -492.5)"/><path class="cls-26" d="M492.3,1413v-14.7a371.3,371.3,0,0,0,56,4.2,376.1,376.1,0,0,0,55.4-4.2v14.8a.4.4,0,0,1,.1.3c0,4-24.9,7-55.7,7s-55.8-3-55.8-7Z" transform="translate(-137.2 -492.5)"/><path class="cls-27" d="M590.3,1418v-17.8l4.2-.6v17.7Z" transform="translate(-137.2 -492.5)"/><path class="cls-27" d="M578.6,1419.3v-17.8l2.9-.3v17.9Z" transform="translate(-137.2 -492.5)"/><path class="cls-27" d="M505.7,1418l-2.9-.4v-17.5h2.9Z" transform="translate(-137.2 -492.5)"/><path class="cls-27" d="M586.4,1418.5v-17.8l1.4-.2v17.9Z" transform="translate(-137.2 -492.5)"/><path class="cls-28" d="M492.2,1398.3c0-4,25.1-7,55.9-7s55.7,3.2,55.7,7.2-24.9,7.1-55.7,7.1S492.2,1402.3,492.2,1398.3Z" transform="translate(-137.2 -492.5)"/><path class="cls-29" d="M499.1,1397.8c0-2.8,22-5.1,49.1-5.1s49,2.3,49,5.1-21.9,5-49,5S499.1,1400.6,499.1,1397.8Z" transform="translate(-137.2 -492.5)"/><path class="cls-30" d="M532.7,1397.9c.2-.8,3.5-1.1,6.6-1.2a2.7,2.7,0,0,1,.6-1.6c-5.9.1-11.8,1-14.1,2.1h-4.7l-1,1.1h4.8c.7,1.1,5.8,1.6,13.3,1.6s11.8-.4,15.4-2.2,4.2-1.4,8.1-1.5,5.7.2,5.5,1-2.6,1.3-7.6,1.5a4,4,0,0,1-.9,1.5c6.8-.1,12.4-.7,15-1.8h4.8l1-1.2h-4.4c.5-1.9-5-2.3-13.9-2.2-6.9,0-12.7.5-16.6,2.3-2.1,1-3.6,1.3-6.9,1.3S532.5,1398.4,532.7,1397.9Z" transform="translate(-137.2 -492.5)"/><path class="cls-25" d="M502.6,1398v-14.8a371.3,371.3,0,0,0,56,4.2,365,365,0,0,0,55.4-4.2V1398a.4.4,0,0,1,.1.3c0,4-24.9,7.1-55.7,7.1s-55.8-3.1-55.8-7Z" transform="translate(-137.2 -492.5)"/><path class="cls-26" d="M502.6,1396.6v-14.8a358.7,358.7,0,0,0,56,4.2,365,365,0,0,0,55.4-4.2v14.8a.6.6,0,0,1,.1.4c0,3.9-24.9,7-55.7,7s-55.8-3-55.8-7Z" transform="translate(-137.2 -492.5)"/><path class="cls-27" d="M600.6,1401.6v-17.9l4.1-.6v17.8Z" transform="translate(-137.2 -492.5)"/><path class="cls-27" d="M588.9,1402.9v-17.8l2.9-.3v17.8Z" transform="translate(-137.2 -492.5)"/><path class="cls-27" d="M516,1401.6l-3-.5v-17.4h3Z" transform="translate(-137.2 -492.5)"/><path class="cls-27" d="M596.7,1402.1v-17.9h1.4v17.8Z" transform="translate(-137.2 -492.5)"/><path class="cls-25" d="M502.5,1381.9c0-4,25.1-7,55.9-7s55.7,3.2,55.7,7.1-24.9,7.2-55.7,7.2S502.5,1385.8,502.5,1381.9Z" transform="translate(-137.2 -492.5)"/><path class="cls-29" d="M509.4,1381.3c0-2.8,22-5,49.1-5s49,2.2,49,5-21.9,5.1-49,5.1S509.4,1384.1,509.4,1381.3Z" transform="translate(-137.2 -492.5)"/><path class="cls-30" d="M543,1381.4c.2-.7,3.5-1,6.6-1.1a3.3,3.3,0,0,1,.5-1.6c-5.8.1-11.7.9-14,2h-4.7l-1.1,1.2h4.9c.7,1,5.7,1.6,13.3,1.6s11.8-.4,15.4-2.2,4.1-1.5,8.1-1.5,5.7.2,5.4,1-2.6,1.3-7.5,1.5a4.2,4.2,0,0,1-.9,1.4c6.8-.1,12.4-.7,14.9-1.8h4.8l1.1-1.1h-4.5c.6-1.9-4.9-2.3-13.8-2.3-6.9.1-12.7.5-16.6,2.4-2.1,1-3.6,1.3-7,1.3S542.8,1381.9,543,1381.4Z" transform="translate(-137.2 -492.5)"/><path class="cls-25" d="M489.5,1381.5v-14.7a373.8,373.8,0,0,0,56.1,4.2,392.8,392.8,0,0,0,55.4-4.2v14.8c0,.1.1.2.1.3,0,4-25,7-55.8,7s-55.8-3-55.8-7Z" transform="translate(-137.2 -492.5)"/><path class="cls-26" d="M489.5,1380.2v-14.8a373.8,373.8,0,0,0,56.1,4.2,365,365,0,0,0,55.4-4.2v15.1c0,4-25,7.1-55.8,7.1s-55.8-3.1-55.8-7Z" transform="translate(-137.2 -492.5)"/><path class="cls-27" d="M587.6,1385.2v-17.9l4.1-.6v17.8Z" transform="translate(-137.2 -492.5)"/><path class="cls-27" d="M575.9,1386.4v-17.7l2.9-.3v17.8Z" transform="translate(-137.2 -492.5)"/><path class="cls-27" d="M502.9,1385.2l-2.9-.5v-17.5h2.9Z" transform="translate(-137.2 -492.5)"/><path class="cls-27" d="M583.6,1385.7v-17.9l1.4-.2v17.9Z" transform="translate(-137.2 -492.5)"/><path class="cls-25" d="M489.4,1365.4c0-3.9,25.1-7,55.9-7s55.8,3.2,55.8,7.2-25,7.2-55.8,7.2S489.4,1369.4,489.4,1365.4Z" transform="translate(-137.2 -492.5)"/><path class="cls-29" d="M496.4,1364.9c0-2.8,22-5.1,49-5.1s49.1,2.3,49.1,5.1-22,5.1-49.1,5.1S496.4,1367.7,496.4,1364.9Z" transform="translate(-137.2 -492.5)"/><path class="cls-30" d="M529.9,1365c.3-.7,3.6-1,6.6-1.2a3.9,3.9,0,0,1,.6-1.5c-5.8.1-11.8.9-14,2h-4.7l-1.1,1.2h4.9c.7,1,5.7,1.5,13.3,1.5s11.7-.3,15.4-2.1,4.1-1.5,8.1-1.6,5.7.2,5.4,1-2.6,1.4-7.5,1.5a6,6,0,0,1-.9,1.5c6.8-.1,12.4-.7,14.9-1.8h4.8l1.1-1.2h-4.5c.6-1.9-5-2.3-13.9-2.2-6.9,0-12.6.5-16.5,2.3-2.2,1.1-3.6,1.3-7,1.4S529.8,1365.5,529.9,1365Z" transform="translate(-137.2 -492.5)"/><path class="cls-25" d="M474.1,1365.1v-14.8a371.7,371.7,0,0,0,56.1,4.2,365,365,0,0,0,55.4-4.2v15.2c0,3.9-24.9,7-55.7,7s-55.8-3-55.8-7Z" transform="translate(-137.2 -492.5)"/><path class="cls-26" d="M474.1,1363.7V1349a371.7,371.7,0,0,0,56.1,4.2,392.8,392.8,0,0,0,55.4-4.2v15.1c0,4-24.9,7-55.7,7s-55.8-3-55.8-7Z" transform="translate(-137.2 -492.5)"/><path class="cls-27" d="M572.1,1368.7v-17.9l4.2-.5V1368Z" transform="translate(-137.2 -492.5)"/><path class="cls-27" d="M560.4,1370v-17.8l3-.3v17.8Z" transform="translate(-137.2 -492.5)"/><path class="cls-27" d="M487.5,1368.7l-2.9-.4v-17.5h2.9Z" transform="translate(-137.2 -492.5)"/><path class="cls-27" d="M568.2,1369.2v-17.8l1.4-.2v17.9Z" transform="translate(-137.2 -492.5)"/><path class="cls-28" d="M474,1349c0-4,25.1-7,55.9-7s55.8,3.2,55.8,7.2-25,7.1-55.8,7.1S474,1353,474,1349Z" transform="translate(-137.2 -492.5)"/><ellipse class="cls-29" cx="392.9" cy="856" rx="49" ry="5.1"/><path class="cls-30" d="M514.5,1348.6c.2-.8,3.6-1.1,6.6-1.2a5.2,5.2,0,0,1,.6-1.6c-5.8.1-11.8,1-14.1,2H503l-1.1,1.2h4.9c.7,1.1,5.7,1.6,13.2,1.6s11.8-.4,15.5-2.2,4.1-1.4,8.1-1.5,5.7.2,5.4,1-2.6,1.3-7.5,1.5a4.4,4.4,0,0,1-1,1.5c6.9-.1,12.5-.7,15-1.8h4.8l1.1-1.2h-4.5c.6-1.9-5-2.3-13.9-2.3-6.9.1-12.6.6-16.5,2.4-2.2,1-3.6,1.3-7,1.3S514.4,1349.1,514.5,1348.6Z" transform="translate(-137.2 -492.5)"/><path class="cls-25" d="M489.5,1348.7v-14.8a373.8,373.8,0,0,0,56.1,4.2,365,365,0,0,0,55.4-4.2V1349c0,4-25,7.1-55.8,7.1s-55.8-3.1-55.8-7Z" transform="translate(-137.2 -492.5)"/><path class="cls-26" d="M489.5,1347.3v-14.8a373.8,373.8,0,0,0,56.1,4.2,365,365,0,0,0,55.4-4.2v14.8c0,.1.1.2.1.4,0,3.9-25,7-55.8,7s-55.8-3-55.8-7Z" transform="translate(-137.2 -492.5)"/><path class="cls-27" d="M587.6,1352.3v-17.9l4.1-.6v17.8Z" transform="translate(-137.2 -492.5)"/><path class="cls-27" d="M575.9,1353.6v-17.8l2.9-.3v17.8Z" transform="translate(-137.2 -492.5)"/><path class="cls-27" d="M502.9,1352.3l-2.9-.5v-17.4h2.9Z" transform="translate(-137.2 -492.5)"/><path class="cls-27" d="M583.6,1352.8v-17.9l1.4-.2v17.9Z" transform="translate(-137.2 -492.5)"/><path class="cls-28" d="M489.4,1332.6c0-4,25.1-7.1,55.9-7.1s55.8,3.3,55.8,7.2-25,7.2-55.8,7.2S489.4,1336.5,489.4,1332.6Z" transform="translate(-137.2 -492.5)"/><path class="cls-29" d="M496.4,1332c0-2.8,22-5,49-5s49.1,2.2,49.1,5-22,5.1-49.1,5.1S496.4,1334.8,496.4,1332Z" transform="translate(-137.2 -492.5)"/><path class="cls-30" d="M529.9,1332.1c.3-.7,3.6-1,6.6-1.1a5.2,5.2,0,0,1,.6-1.6c-5.8.1-11.8.9-14,2h-4.7l-1.1,1.2h4.9c.7,1,5.7,1.6,13.3,1.6s11.7-.4,15.4-2.2,4.1-1.5,8.1-1.6,5.7.2,5.4,1.1-2.6,1.3-7.5,1.5a5.5,5.5,0,0,1-.9,1.4c6.8-.1,12.4-.7,14.9-1.8h4.8l1.1-1.1h-4.5c.6-1.9-5-2.2-13.9-2.2-6.9,0-12.6.5-16.5,2.4-2.2,1-3.6,1.3-7,1.3S529.8,1332.6,529.9,1332.1Z" transform="translate(-137.2 -492.5)"/><path class="cls-25" d="M495,1332.2v-14.7a385.3,385.3,0,0,0,56.1,4.2,392.8,392.8,0,0,0,55.4-4.2v15.1c0,4-24.9,7-55.7,7s-55.8-3-55.8-7Z" transform="translate(-137.2 -492.5)"/><path class="cls-26" d="M495,1330.8v-14.7a371.7,371.7,0,0,0,56.1,4.2,365,365,0,0,0,55.4-4.2v15.1c0,4-24.9,7.1-55.7,7.1s-55.8-3.1-55.8-7Z" transform="translate(-137.2 -492.5)"/><path class="cls-27" d="M593,1335.8V1318l4.2-.6v17.8Z" transform="translate(-137.2 -492.5)"/><path class="cls-27" d="M581.3,1337.1v-17.8l2.9-.3v17.9Z" transform="translate(-137.2 -492.5)"/><path class="cls-27" d="M508.4,1335.8l-2.9-.4v-17.5h2.9Z" transform="translate(-137.2 -492.5)"/><path class="cls-27" d="M589.1,1336.4v-17.9l1.4-.2v17.9Z" transform="translate(-137.2 -492.5)"/><path class="cls-28" d="M494.9,1316.1c0-3.9,25.1-7,55.9-7s55.8,3.2,55.8,7.2-25,7.2-55.8,7.2S494.9,1320.1,494.9,1316.1Z" transform="translate(-137.2 -492.5)"/><path class="cls-29" d="M501.9,1315.6c0-2.8,21.9-5.1,49-5.1s49.1,2.3,49.1,5.1-22,5-49.1,5S501.9,1318.4,501.9,1315.6Z" transform="translate(-137.2 -492.5)"/><path class="cls-30" d="M535.4,1315.7c.2-.7,3.6-1,6.6-1.2a3.9,3.9,0,0,1,.6-1.5c-5.8.1-11.8.9-14.1,2h-4.7l-1,1.1h4.9c.7,1,5.7,1.5,13.2,1.5s11.8-.3,15.5-2.1,4.1-1.5,8.1-1.6,5.7.2,5.4,1-2.6,1.3-7.5,1.5a6.5,6.5,0,0,1-1,1.5c6.9-.1,12.5-.7,15-1.8h4.8l1.1-1.2h-4.5c.6-1.9-5-2.3-13.9-2.2-6.9,0-12.7.5-16.5,2.3-2.2,1.1-3.6,1.3-7,1.3S535.3,1316.2,535.4,1315.7Z" transform="translate(-137.2 -492.5)"/><path class="cls-31" d="M550.3,1394.1c6,3.2,13.8,5.9,13.7,8.7-.2,5.9-10.1,7.3-14.3,4.9s-6.4-9.6-6.4-9.6S544.5,1391,550.3,1394.1Z" transform="translate(-137.2 -492.5)"/><path class="cls-31" d="M574.1,1413.5c.9-.3-1.7-6.7-2.7-7.8s-1.7-2.1-10.9-6.5l2.2,5.8s6,1.9,6.7,2.5S570.9,1412.8,574.1,1413.5Z" transform="translate(-137.2 -492.5)"/><path class="cls-31" d="M564.4,1422.3c1.4.2,1.2-6.2.8-7.7s0-2.6-3.9-12.1l-2.4,5.7s3.3,6.3,3.5,7.2S562.5,1420.9,564.4,1422.3Z" transform="translate(-137.2 -492.5)"/><path class="cls-31" d="M559.5,1422.2c1.4.1,1.2-6,.8-7.4s-.1-2.5-3.7-11.6l-2.3,5.4s3.1,6.1,3.3,6.9S557.7,1420.8,559.5,1422.2Z" transform="translate(-137.2 -492.5)"/><path class="cls-31" d="M554,1418.4c1.2.2,1-5,.7-6.2s0-2.2-3.2-9.8l-1.9,4.5s2.7,5.2,2.8,5.9S552.5,1417.3,554,1418.4Z" transform="translate(-137.2 -492.5)"/><path class="cls-31" d="M544.1,1398.7l-10-1.4,2.1-9.2a119.2,119.2,0,0,1,14.1,6Z" transform="translate(-137.2 -492.5)"/><path class="cls-18" d="M459.2,1291.6c-19.5,1.3-36.4,92.9-23.2,105,17.2,17.7,71,4.2,101,3.5,0,0,5.1-5.1,5.8-10.3-21.9-10.2-77.6-9-82.6-10.9S478.7,1290.2,459.2,1291.6Z" transform="translate(-137.2 -492.5)"/><path class="cls-23" d="M438.4,1392.2c-10.3-9.5-1.7-67.1,12.1-94.2-15.1,24-25.5,88.5-14.5,98.6,17.2,17.7,71,4.2,101,3.5a38.4,38.4,0,0,0,3.3-4.4C510.1,1396.8,455.5,1409.7,438.4,1392.2Z" transform="translate(-137.2 -492.5)"/><polygon class="cls-32" points="348.7 788.7 369.1 805.6 372.3 793.6 356 789 348.7 788.7"/><path class="cls-32" d="M522.2,1280.1l-11.9,5.5,11.3,13S527.1,1285.3,522.2,1280.1Z" transform="translate(-137.2 -492.5)"/><path class="cls-33" d="M470.7,1299.8s-10.5,4.1-16.5-4,4-13.1,4-13.1-6.5,8.3,3,9.3,9.6-15,6.3-23.8c-9.7-25.5-4.1-42.3.4-51.4a56.3,56.3,0,0,1,12.4-15.8l5.5-3.1,3.8,9.3s-6.9,10.5-10.4,20.2-4.9,22.1,3.2,38.1S492.6,1297.2,470.7,1299.8Z" transform="translate(-137.2 -492.5)"/><path class="cls-34" d="M489.6,1207.2l-3.8-9.3h0s-10.9-5.6-19.3,16.4c-2.8,7.6-4.3,16.7-4.9,25.8,3.7,13.7,14.3,29.5,20.1,43,7.2,16.9-15,12.4-15,12.4s7.4,12.5,18.5,2.9,1.6-28.2-3.1-37.4-3.9-26.6.6-36.5A182.7,182.7,0,0,0,489.6,1207.2Z" transform="translate(-137.2 -492.5)"/><path class="cls-33" d="M489.6,1207.2s24.9-6.6,37.4,23.6-5.5,44-2.3,53.3,11.6,10.7,18.9,1.1c0,0-8.9,5.8-10.3-.7s13.6-16.1,12.2-41a105.5,105.5,0,0,0-3.5-22.3c-3.8-9-9.9-18.1-18.9-23.5-18.1-10.8-38.9-10-37.3.2Z" transform="translate(-137.2 -492.5)"/><path class="cls-17" d="M606.4,1380.4a1.8,1.8,0,0,0-3,1.1,8.1,8.1,0,0,0,.9,4.3c2.1,4,2.3,8.5,1.3,8.5s-3.6-8.5-6.8-7.8,3.4,10.6,2.5,11.9-4.5-6.9-6.2-5.4,3.9,10.1,3.4,11.3-4.4-3.6-4.8-1.9.6,5.1,6.3,8.6c0,0,8.4,6.1,12.6,1.6S618.2,1391.3,606.4,1380.4Z" transform="translate(-137.2 -492.5)"/><path class="cls-35" d="M692.3,1765.3l576.5-.6c30,0,54.2-23.8,54.2-53.2l-1.1-1101.3c0-30.2-25-54.6-55.7-54.6l-573.6.6c-30.8,0-55.7,24.5-55.7,54.6L638,1712.1C638.1,1741.5,662.4,1765.3,692.3,1765.3Z" transform="translate(-137.2 -492.5)"/><path class="cls-36" d="M699.9,1754.5l561.3-.6c29.2,0,52.9-23.2,52.8-51.7l-1-1073.4c0-29.3-24.4-53-54.4-53l-558.4.5c-30,0-54.3,23.8-54.3,53.1L647,1702.8C647,1731.4,670.7,1754.5,699.9,1754.5Z" transform="translate(-137.2 -492.5)"/><rect class="cls-37" x="698" y="640.6" width="564" height="1040.69" transform="translate(-138.4 -491.4) rotate(-0.1)"/><path class="cls-38" d="M876.1,617.5l208.9-.2a8,8,0,0,0,8.1-8h0a8.1,8.1,0,0,0-8.1-8.1l-208.9.2a8.1,8.1,0,0,0-8.1,8.1h0A8,8,0,0,0,876.1,617.5Z" transform="translate(-137.2 -492.5)"/><path class="cls-38" d="M914.1,1735.7h133c5.5,0,10-3.7,10-8.3v-13.9c0-4.6-4.5-8.3-10.1-8.3H914c-5.5.1-10,3.8-10,8.3v14C904,1732,908.5,1735.7,914.1,1735.7Z" transform="translate(-137.2 -492.5)"/><polygon class="cls-39" points="560.4 217.4 1125.1 1055.5 1125.2 1188.5 561.2 1189.1 560.4 217.4"/><rect class="cls-40" x="561.4" y="148.1" width="564" height="48.45"/><path class="cls-41" d="M655.6,583.7h370.7a0,0,0,0,1,0,0v235a25.8,25.8,0,0,1-25.8,25.8H681.4a25.8,25.8,0,0,1-25.8-25.8v-235A0,0,0,0,1,655.6,583.7Z"/><polygon class="cls-42" points="1046.8 545.3 635.2 545.3 658.7 512.6 1025.8 512.6 1046.8 545.3"/><path class="cls-43" d="M737.9,526.3H943.7a3.1,3.1,0,0,1,3.1,3.1v3.8a0,0,0,0,1,0,0H734.9a0,0,0,0,1,0,0v-3.8a3.1,3.1,0,0,1,3.1-3.1Z"/><polygon class="cls-43" points="655.6 609.7 1026.4 589.9 1026.4 583.7 655.6 583.7 655.6 609.7"/><rect class="cls-44" x="635.2" y="545.3" width="411.6" height="38.35"/><circle class="cls-45" cx="841" cy="702.4" r="49.3"/><path class="cls-44" d="M1005.1,1183.4c-12.4-19.5-27-1.2-27-1.2s-14.5-18.3-26.9,1.2,26.9,43.7,26.9,43.7S1017.6,1202.9,1005.1,1183.4Z" transform="translate(-137.2 -492.5)"/><rect class="cls-46" x="673.6" y="949.4" width="338.4" height="71.5" rx="16.1"/><path class="cls-47" d="M857.4,1459.6a75,75,0,0,1,10.1-.7c6.9,0,11.7,1.6,15,4.6s5.2,7.3,5.2,13.2-1.9,11-5.3,14.3-9.2,5.4-16.3,5.4a70.5,70.5,0,0,1-8.7-.5Zm4.8,32.6a22.3,22.3,0,0,0,4.8.3c10.2,0,15.7-5.7,15.7-15.6s-4.9-14.2-14.9-14.2a24.8,24.8,0,0,0-5.6.5Z" transform="translate(-137.2 -492.5)"/><path class="cls-47" d="M925.4,1477.2c0,12.7-7.7,19.4-17.2,19.4s-16.5-7.5-16.5-18.7,7.3-19.3,17.1-19.3S925.4,1466.3,925.4,1477.2Zm-28.6.6c0,7.9,4.2,14.9,11.7,14.9s11.8-6.9,11.8-15.3-3.8-15-11.7-15S896.8,1469.7,896.8,1477.8Z" transform="translate(-137.2 -492.5)"/><path class="cls-47" d="M931.6,1496v-36.8h5.2l11.8,18.6a98.3,98.3,0,0,1,6.6,12h.1c-.4-4.9-.5-9.4-.5-15.1v-15.4h4.4V1496h-4.8l-11.7-18.7a139.8,139.8,0,0,1-6.9-12.3h-.1c.2,4.6.4,9,.4,15.2V1496Z" transform="translate(-137.2 -492.5)"/><path class="cls-47" d="M973.5,1484.4l-3.8,11.6h-4.9l12.5-36.8h5.8l12.5,36.8h-5l-4-11.6Zm12.1-3.7-3.6-10.6c-.8-2.4-1.3-4.6-1.9-6.7H980c-.6,2.2-1.2,4.4-1.9,6.6l-3.6,10.7Z" transform="translate(-137.2 -492.5)"/><path class="cls-47" d="M1003.9,1463.2H992.7v-4h27.2v4h-11.2V1496h-4.8Z" transform="translate(-137.2 -492.5)"/><path class="cls-47" d="M1028.8,1459.2V1496h-4.7v-36.8Z" transform="translate(-137.2 -492.5)"/><path class="cls-47" d="M1068.6,1477.2c0,12.7-7.7,19.4-17.1,19.4s-16.5-7.5-16.5-18.7,7.2-19.3,17.1-19.3S1068.6,1466.3,1068.6,1477.2Zm-28.6.6c0,7.9,4.3,14.9,11.8,14.9s11.8-6.9,11.8-15.3-3.8-15-11.7-15S1040,1469.7,1040,1477.8Z" transform="translate(-137.2 -492.5)"/><path class="cls-47" d="M1074.8,1496v-36.8h5.2l11.9,18.6a114,114,0,0,1,6.6,12h.1c-.4-4.9-.6-9.4-.6-15.1v-15.4h4.5V1496h-4.8l-11.7-18.7a118.1,118.1,0,0,1-6.9-12.3h-.1c.2,4.6.3,9,.3,15.2V1496Z" transform="translate(-137.2 -492.5)"/><path class="cls-48" d="M1349.9,1177.5c1.1-7.7,2-11.9,7.5-9.6s6.2-6.6,10.4-3.8,6.5-7.2,9.6-2.4-2.6,15.1-2.6,15.1,7.1,8.2-5.5,15.8c-3,1.8-2.8,5.5-.8,10.6l-14,4.7C1351.4,1192.3,1349.5,1180.3,1349.9,1177.5Z" transform="translate(-137.2 -492.5)"/><path class="cls-49" d="M1451.1,1346.6s-84.4-48.2-93-64.2-7.3-86.5-7.3-86.5l21.8-3.2,14.6,75.2S1482.6,1295.9,1451.1,1346.6Z" transform="translate(-137.2 -492.5)"/><path class="cls-50" d="M1443,1720.6l1.1,13.7s-16.4,5.3-19.1,2.6-5.6-9.7-5.6-9.7v-9.8Z" transform="translate(-137.2 -492.5)"/><polygon class="cls-50" points="1369.4 1225.7 1368.1 1240.5 1346.1 1235.5 1346.2 1222.2 1369.4 1225.7"/><path class="cls-51" d="M1508.3,1467.2s0,39-2.7,61.2-8.4,77.8-5.6,94.5,9.8,82.3,11,101.7a3.8,3.8,0,0,1-3.8,3.9c-8.4-.3-27.3-1.2-29.4-5.5s-16.7-89-19.5-105.7a169.7,169.7,0,0,0-8.3-30.5s-2.8,22.2-2.8,38.9V1724a4,4,0,0,1-4.5,4c-7.6-1-22.7-3-28.9-5,0,0-5.5-64-8.3-94.5s-2.1-141.7,5.9-154.3S1508.3,1467.2,1508.3,1467.2Z" transform="translate(-137.2 -492.5)"/><path class="cls-52" d="M1511,1724.6a3.8,3.8,0,0,1-3.8,3.9l-6.7-.3c-3.4-31.4-16.2-120.9-18.6-140-2-16.7,7.5-87.1,12.5-121.6l13.9.6s0,39-2.7,61.2-8.4,77.8-5.6,94.5S1509.8,1705.2,1511,1724.6Z" transform="translate(-137.2 -492.5)"/><path class="cls-52" d="M1443,1524.2c2.8,11.1,8.2,65.8,8.2,65.8h0c-.8-2-1.2-3.2-1.2-3.2s-2.8,22.2-2.8,38.9V1724a4,4,0,0,1-4.5,4c-6.3-.8-17.9-2.4-25.1-4,5.2-1,17.7-3.6,19.9-8s-2.8-108.4-2.8-108.4C1440.2,1588.2,1443,1524.2,1443,1524.2Z" transform="translate(-137.2 -492.5)"/><path class="cls-49" d="M1477.8,1292.1c2.7,0,27.8-2.7,36.1,19.5s2.8,36.1-2.8,58.4-4.1,59.7-1.4,79.2,2.8,36.1-19.4,33.3-66.7,0-75.1-5.5-11.1-8.4-5.5-25,11.1-47.3,8.3-69.5,2.8-61.2,13.9-75.1S1477.8,1292.1,1477.8,1292.1Z" transform="translate(-137.2 -492.5)"/><path class="cls-53" d="M1482.1,1285.7s-.5,7.4,7.3,6.9c-.5-.5,5,10.7-14.4,19s-29.7-1.9-24.6-14.8C1450.4,1296.8,1475.3,1284.8,1482.1,1285.7Z" transform="translate(-137.2 -492.5)"/><path class="cls-54" d="M1406.8,1465.5c17.9,5.2,63.1,2.5,77.9-2.4,16.7-5.6,16.7-36.2,11.1-61.2s6-53.7,6-53.7c3.4-1.9,9.4-8,16.3-16,.3,12.2-3.3,23.2-7,37.8-5.5,22.2-4.1,59.7-1.4,79.2s2.8,36.1-19.4,33.3-66.7,0-75.1-5.5C1409.9,1473.5,1406.9,1471,1406.8,1465.5Z" transform="translate(-137.2 -492.5)"/><path class="cls-14" d="M1508.3,1734.1s-22.2-8.4-27.8-5.6c0,0,0,5.6-2.7,8.4s-19.5,19.4-16.7,22.2,30.6,5.5,47.2,0Z" transform="translate(-137.2 -492.5)"/><path class="cls-14" d="M1445.2,1734.2a1.8,1.8,0,0,1,2,1.8v23.1s2.8,2.8-13.9,2.8-61.2,0-63.9-2.8,0-5.6,13.9-11.1,29.2-15.3,34.7-20.9c0,0,11.1,0,8.3,8.4C1426.3,1735.5,1428.9,1735.5,1445.2,1734.2Z" transform="translate(-137.2 -492.5)"/><path class="cls-48" d="M1599.1,1181.2c-1.1-7.8-2-12-7.6-9.6s-6.2-6.6-10.4-3.8-6.4-7.2-9.6-2.4,2.7,15.1,2.7,15.1-7.1,8.1,5.5,15.8c2.9,1.7,2.7,5.5.8,10.5l13.9,4.7C1597.6,1195.9,1599.5,1184,1599.1,1181.2Z" transform="translate(-137.2 -492.5)"/><path class="cls-49" d="M1497.8,1350.2s84.5-48.1,93.1-64.1,7.2-86.5,7.2-86.5l-21.8-3.2-14.5,75.2S1466.3,1299.5,1497.8,1350.2Z" transform="translate(-137.2 -492.5)"/><path class="cls-54" d="M1589.6,1253.9c-5.3,25-8,28.4-8,28.4-5.7,11-72.6,61.4-72.7,61.5,23.2-13.7,75.3-45.3,82-57.7s7.3-59.8,7.3-78.6C1596.2,1219.3,1592.9,1238.2,1589.6,1253.9Z" transform="translate(-137.2 -492.5)"/><path class="cls-48" d="M1434.9,1239.7s-2.1,16.7-2.1,25.4-.4,28.5,17,31.4,27.3-5.6,33.7-9.3c0,0,20.9-18.2,18-24s-5.8-23.2-23.2-23.2S1434.9,1239.7,1434.9,1239.7Z" transform="translate(-137.2 -492.5)"/><path class="cls-55" d="M1482.6,1287.8s23.2-17.4,29-29,5.8-20.2,0-26c0,0,5.8-5.8,8.7-5.8,0,0-8.7,0-11.6,2.9,0,0,2.9-8.7,0-11.6,0,0,0,5.8-2.9,8.7,0,0-8.7-26.1-26.1-23.2s-46.3,17.4-52.1,14.5c0,0,2.9,2.9,8.7,2.9a63.2,63.2,0,0,1-17.4,2.9s2.9,14.5,26.1,20.3,40.5,2.9,40.5,2.9-5.8,20.2-2.9,28.9c0,0,5.8-11.6,11.6-11.6s0,8.7-2.9,11.6S1479.7,1287.8,1482.6,1287.8Z" transform="translate(-137.2 -492.5)"/><path class="cls-56" d="M1263.1,1172.3l447.5,23.9a30,30,0,0,0,31.5-28.3l13.7-255.8a30,30,0,0,0-28.3-31.5L1280,856.7a29.9,29.9,0,0,0-31.5,28.3l-13.7,255.8A30,30,0,0,0,1263.1,1172.3Z" transform="translate(-137.2 -492.5)"/><path class="cls-57" d="M1250.7,875.1c4.7-11.3,16.6-19.1,30.4-18.4l445.3,23.9c17.1.9,30.3,14.5,29.4,30.5l-11.3,212.8C1686.4,1115.2,1386.6,1087.7,1250.7,875.1Z" transform="translate(-137.2 -492.5)"/><rect class="cls-58" x="1305.4" y="1061.2" width="15.7" height="85.54" transform="translate(3.6 1863.9) rotate(-86.9)"/><rect class="cls-58" x="1423.7" y="1067.5" width="15.7" height="85.54" transform="translate(109.2 1987.9) rotate(-86.9)"/><rect class="cls-58" x="1541.9" y="1073.8" width="15.7" height="85.54" transform="translate(214.8 2112) rotate(-86.9)"/><rect class="cls-58" x="1660.1" y="1080.1" width="15.7" height="85.54" transform="translate(320.4 2236) rotate(-86.9)"/><path class="cls-58" d="M1692.1,1007.2l-72.1-3.9c-13.7-.7-25.4,9.4-26.1,22.7l-1.5,27.3c-.7,13.3,9.8,24.6,23.5,25.3l72.2,3.9c13.7.7,25.4-9.4,26.1-22.6l1.4-27.4C1716.3,1019.3,1705.8,1007.9,1692.1,1007.2Z" transform="translate(-137.2 -492.5)"/><path class="cls-59" d="M769.3,1679.1c0,52.9-11.6,88.4-94.1,88.4-75.2,0-97-35.5-97-88.4a95.7,95.7,0,0,1,95.6-95.8C726.5,1583.3,769.3,1626.2,769.3,1679.1Z" transform="translate(-137.2 -492.5)"/><path class="cls-60" d="M725.9,1598.8a95.8,95.8,0,0,1,21.5,60.5c0,52.9-11.6,88.4-94.1,88.4-26.7,0-46.6-4.4-61.2-12.6,13.8,20.4,39.4,32.4,83.1,32.4,82.5,0,94.1-35.5,94.1-88.4A95.7,95.7,0,0,0,725.9,1598.8Z" transform="translate(-137.2 -492.5)"/><path class="cls-59" d="M640,1577.7s-6-12.9-9.9-23.9-2-23.6,11.7-23.4,20.5-8.2,24.9-12.4,13.5-3.3,18.7,3.5,14,8.5,24.2,8.9,12.4,21.1,6.4,28.1-10.1,19.2-10.1,19.2Z" transform="translate(-137.2 -492.5)"/><path class="cls-60" d="M634.9,1566.1c2.8,6.5,5.1,11.6,5.1,11.6h65.9s4.1-12.2,10.1-19.2,4-25.9-5.2-27.9C703.2,1563.8,650.4,1566.1,634.9,1566.1Z" transform="translate(-137.2 -492.5)"/><rect class="cls-61" x="496.2" y="1083.3" width="78.1" height="14.83" rx="3.3"/><rect class="cls-62" x="553.6" y="1083.3" width="6.9" height="14.83"/><path class="cls-60" d="M653,1691.1a41.4,41.4,0,0,0,19.1,4.5c7.8-.2,11.9-3.8,11.7-9s-3.8-7.8-12.9-11c-12.7-4.3-21.1-11.4-21.4-23.1-.4-13.7,10.1-24.5,27.9-25a44.3,44.3,0,0,1,19.3,3.5l-3.4,14.8a33.5,33.5,0,0,0-15.9-3.4c-7.4.2-10.8,3.9-10.7,8.1s4.4,7.2,14.3,10.9c13.5,4.9,19.9,12.1,20.3,23.4.3,13.5-9.1,25.2-29.8,25.7-8.6.3-17.2-1.9-21.5-4.3Z" transform="translate(-137.2 -492.5)"/><rect class="cls-60" x="532.4" y="1208.5" width="12.9" height="18.7"/><rect class="cls-60" x="532.4" y="1126.4" width="12.9" height="17.39"/><path class="cls-63" d="M650.5,1693.5a41,41,0,0,0,19,4.5c7.9-.2,11.9-3.8,11.8-9s-3.8-7.8-13-11c-12.7-4.3-21-11.5-21.4-23.1-.4-13.7,10.1-24.5,27.9-25a45.1,45.1,0,0,1,19.4,3.5l-3.4,14.8a33.8,33.8,0,0,0-15.9-3.4c-7.4.2-10.9,3.9-10.8,8.1s4.5,7.2,14.3,10.9c13.5,4.9,20,12.1,20.3,23.4.4,13.5-9,25.2-29.7,25.7-8.7.3-17.2-1.9-21.6-4.3Z" transform="translate(-137.2 -492.5)"/><rect class="cls-63" x="529.8" y="1210.9" width="12.9" height="18.7"/><rect class="cls-63" x="529.8" y="1128.8" width="12.9" height="17.39"/><path class="cls-64" d="M803.3,1726.8a86.7,86.7,0,0,1,6.2-19.3c7.1-15.5,10.6-32.7,14-49.3,2.2-11,4.3-21.4,7.3-30.2l2.1-5.9L758,1607.5l-1.6,4.3c-4.3,11.2-7.4,24.2-10.8,38.1s-7,29.1-12.2,44.2a138.6,138.6,0,0,0-6.9,32.7Z" transform="translate(-137.2 -492.5)"/><path class="cls-65" d="M797.8,1726.8a92.8,92.8,0,0,1,6.7-21.6c11.7-25.3,13.5-56.8,21.2-79l-64.2-12.5c-8.4,22.1-12.5,51.9-23,82.2a136.5,136.5,0,0,0-6.5,30.9Z" transform="translate(-137.2 -492.5)"/><path class="cls-64" d="M753.5,1635.6c13.6,3.7,27.6-4.7,31.3-18.8v-.4l-24.8-6.8-6.7,25.9Z" transform="translate(-137.2 -492.5)"/><path class="cls-64" d="M802.4,1619.7a.4.4,0,0,1-.1.3c-2.8,14.4,6.1,28.1,20,30.8h.2l5.1-26.3Z" transform="translate(-137.2 -492.5)"/><path class="cls-64" d="M782.6,1675.8c11.6,2.3,19.1,14.1,16.6,26.4s-13.8,20.4-25.4,18.2-19.1-14.1-16.7-26.4S770.9,1673.5,782.6,1675.8Z" transform="translate(-137.2 -492.5)"/><path class="cls-64" d="M787.4,1646.1a7.9,7.9,0,0,1,6,9.5,7.8,7.8,0,1,1-15.2-3A7.9,7.9,0,0,1,787.4,1646.1Z" transform="translate(-137.2 -492.5)"/><path class="cls-65" d="M775.4,1695.3c-1.5,2.3-2.2,3-3.3,2.7s-1.8-1.2-1.5-2.7a8.4,8.4,0,0,1,2.2-4.1l-4.8-2.1a3.6,3.6,0,0,0-.7,1l-1.6-.9-1.8,3.6,1.8.9c-.1.3-.1.5-.2.8-1,5,1.7,8.8,6.1,9.7,2.8.5,5.7-.5,8.2-4.4,1.4-2.1,2.1-2.6,3.3-2.4s1.8,1.2,1.4,3.1a12.1,12.1,0,0,1-2.8,5l5,2.1a8.3,8.3,0,0,0,1.3-1.8l1.6.9,1.8-3.6-1.9-1c0-.2.1-.4.1-.6,1.1-5.8-1.5-9.4-5.9-10.2S777.7,1691.8,775.4,1695.3Z" transform="translate(-137.2 -492.5)"/><path class="cls-64" d="M834.9,1726.8a90.6,90.6,0,0,1,4.9-7.7c10.1-13.8,17-29.9,23.6-45.5,4.4-10.3,8.5-20.1,13.2-28.1l3.2-5.4-70.4-29.3-2.5,3.9c-6.4,10.2-12.1,22.3-18.1,35.2s-12.7,27.2-20.9,40.9c-7.1,12-11.5,24.2-14.8,36Z" transform="translate(-137.2 -492.5)"/><path class="cls-65" d="M828.6,1726.8a90.5,90.5,0,0,1,6.9-10.9c16.4-22.5,24.5-52.9,36.4-73.2l-60.4-25.1c-12.6,20-22.5,48.4-38.9,76a136.1,136.1,0,0,0-13.8,33.2Z" transform="translate(-137.2 -492.5)"/><path class="cls-64" d="M799.3,1637.4c12.6,6.4,28,1,34.4-12.1l.2-.3-23-11.6-11.8,23.9Z" transform="translate(-137.2 -492.5)"/><path class="cls-64" d="M850.4,1631.7v.3c-5.6,13.5.3,28.7,13.4,34.1,0,.1.1.1.2.1l10.3-24.7Z" transform="translate(-137.2 -492.5)"/><path class="cls-64" d="M819.8,1682.7c10.9,4.5,15.9,17.6,11.1,29.2s-17.7,17.2-28.6,12.7-15.9-17.6-11.1-29.2S808.8,1678.1,819.8,1682.7Z" transform="translate(-137.2 -492.5)"/><path class="cls-64" d="M830.4,1654.5a8.2,8.2,0,1,1-10.3,4.6A7.9,7.9,0,0,1,830.4,1654.5Z" transform="translate(-137.2 -492.5)"/><path class="cls-65" d="M808.8,1700.4c-1.9,1.9-2.7,2.4-3.8,2s-1.4-1.6-.8-3a9,9,0,0,1,2.9-3.6l-4.3-3-.9.8-1.3-1.1-2.5,3.1,1.6,1.3a2.5,2.5,0,0,0-.4.7c-1.9,4.7,0,9,4.1,10.7s5.7.6,8.9-2.6,2.5-2.2,3.7-1.7,1.5,1.5.8,3.2a11.9,11.9,0,0,1-3.8,4.4l4.5,3.1a11,11,0,0,0,1.6-1.5l1.5,1.2,2.4-3.2-1.7-1.4.3-.6c2.2-5.4.3-9.4-3.8-11.1S811.8,1697.4,808.8,1700.4Z" transform="translate(-137.2 -492.5)"/><path class="cls-64" d="M866.9,1726.8c9.1-8.1,17.3-17.4,25.4-26.5s14.5-16.4,21.5-22.5l4.7-4.1L861,1623.6l-3.6,2.9c-9.3,7.6-18.5,17.3-28.3,27.6s-20.7,21.7-32.8,32.2c-14.4,12.4-24.2,26.8-32.5,40.5Z" transform="translate(-137.2 -492.5)"/><path class="cls-65" d="M858.5,1726.8c19.8-16.1,35.6-39.1,51.7-53.1l-49.3-43c-18.3,15-36.8,38.7-61.1,59.7-12.7,11.1-21.9,24-29.6,36.4Z" transform="translate(-137.2 -492.5)"/><path class="cls-64" d="M843,1645.6c9.9,10.1,26.2,9.8,36.5-.6l.2-.2-18.1-18.3-18.8,19Z" transform="translate(-137.2 -492.5)"/><path class="cls-64" d="M893.3,1656.4l-.2.2c-9.6,11-8.8,27.4,1.8,36.7h.2l17.6-20.1Z" transform="translate(-137.2 -492.5)"/><path class="cls-64" d="M848.7,1726.8l.6-.6c8.2-9.4,7.7-23.4-1.2-31.2s-22.9-6.4-31.2,3.1-7.7,20.7-1.1,28.7Z" transform="translate(-137.2 -492.5)"/><path class="cls-64" d="M867.1,1671.7a8.2,8.2,0,0,1-10.8,12.4,7.9,7.9,0,0,1-.5-11.3A8.1,8.1,0,0,1,867.1,1671.7Z" transform="translate(-137.2 -492.5)"/><path class="cls-65" d="M832.1,1708.4c-2.5,1.2-3.4,1.4-4.3.6s-.9-1.9.1-3.1a9.1,9.1,0,0,1,4-2.4l-3.2-4.2-1,.4-1-1.5-3.3,2.2,1.1,1.7-.6.6c-3.3,3.8-2.9,8.5.5,11.4s5.2,2.4,9.2.4c2.3-1.2,3.1-1.3,4.1-.5s1,1.9-.3,3.4a10.8,10.8,0,0,1-5,2.9l3.3,4.3a7.4,7.4,0,0,0,2.1-.9l.9,1.6,3.4-2.2-1.2-1.9.4-.4c3.9-4.4,3.4-8.8,0-11.8S835.8,1706.5,832.1,1708.4Z" transform="translate(-137.2 -492.5)"/><path class="cls-25" d="M806.5,1761.7v-11.4a299.7,299.7,0,0,0,43.6,3.2,293.8,293.8,0,0,0,43.2-3.2v11.5c0,.1.1.1.1.2,0,3.1-19.5,5.5-43.5,5.5s-43.4-2.4-43.4-5.4Z" transform="translate(-137.2 -492.5)"/><path class="cls-26" d="M806.5,1760.7v-11.5a286.3,286.3,0,0,0,43.6,3.2,293.8,293.8,0,0,0,43.2-3.2V1761c0,3.1-19.5,5.4-43.5,5.4s-43.4-2.3-43.4-5.4Z" transform="translate(-137.2 -492.5)"/><path class="cls-27" d="M882.8,1764.6v-14l3.3-.4V1764Z" transform="translate(-137.2 -492.5)"/><path class="cls-27" d="M873.7,1765.6v-13.9l2.3-.2v13.9Z" transform="translate(-137.2 -492.5)"/><path class="cls-27" d="M816.9,1764.6l-2.2-.4v-13.6h2.2Z" transform="translate(-137.2 -492.5)"/><path class="cls-27" d="M879.8,1765v-14h1.1v13.9Z" transform="translate(-137.2 -492.5)"/><path class="cls-28" d="M806.4,1749.2c0-3.1,19.6-5.5,43.5-5.5s43.5,2.5,43.5,5.6-19.5,5.6-43.5,5.6S806.4,1752.3,806.4,1749.2Z" transform="translate(-137.2 -492.5)"/><path class="cls-29" d="M811.8,1748.8c0-2.2,17.1-3.9,38.2-3.9s38.2,1.7,38.2,3.9-17.1,3.9-38.2,3.9S811.8,1751,811.8,1748.8Z" transform="translate(-137.2 -492.5)"/><path class="cls-30" d="M838,1748.9c.1-.6,2.7-.8,5.1-.9a2.4,2.4,0,0,1,.5-1.3c-4.6.1-9.2.8-11,1.6H829l-.9.9h3.8c.6.8,4.5,1.3,10.4,1.3s9.1-.3,12-1.7,3.2-1.2,6.3-1.2,4.4.1,4.2.7-2,1.1-5.9,1.2a3.7,3.7,0,0,1-.7,1.2c5.3-.1,9.7-.6,11.7-1.4h3.7l.8-1H871c.4-1.4-3.9-1.7-10.8-1.7s-9.9.4-12.9,1.8a11.9,11.9,0,0,1-5.5,1.1C839.1,1749.5,837.8,1749.3,838,1748.9Z" transform="translate(-137.2 -492.5)"/><path class="cls-25" d="M814.5,1748.9v-11.5a285.1,285.1,0,0,0,43.6,3.3,279.5,279.5,0,0,0,43.2-3.3V1749a.3.3,0,0,1,.1.2c0,3.1-19.5,5.5-43.4,5.5s-43.5-2.4-43.5-5.4Z" transform="translate(-137.2 -492.5)"/><path class="cls-26" d="M814.5,1747.9v-11.5a286.3,286.3,0,0,0,43.6,3.2,293.8,293.8,0,0,0,43.2-3.2v11.5c0,.1.1.2.1.3,0,3.1-19.5,5.4-43.4,5.4s-43.5-2.3-43.5-5.4Z" transform="translate(-137.2 -492.5)"/><path class="cls-27" d="M890.8,1751.8v-14l3.3-.4v13.8Z" transform="translate(-137.2 -492.5)"/><path class="cls-27" d="M881.7,1752.8v-13.9l2.3-.2v13.9Z" transform="translate(-137.2 -492.5)"/><path class="cls-27" d="M824.9,1751.8l-2.2-.4v-13.6h2.2Z" transform="translate(-137.2 -492.5)"/><path class="cls-27" d="M887.8,1752.2v-14h1.1V1752Z" transform="translate(-137.2 -492.5)"/><path class="cls-25" d="M814.4,1736.4c0-3.1,19.6-5.5,43.6-5.5s43.4,2.5,43.4,5.6-19.5,5.6-43.4,5.6S814.4,1739.5,814.4,1736.4Z" transform="translate(-137.2 -492.5)"/><path class="cls-29" d="M819.8,1736c0-2.2,17.1-3.9,38.2-3.9s38.2,1.7,38.2,3.9-17.1,3.9-38.2,3.9S819.8,1738.2,819.8,1736Z" transform="translate(-137.2 -492.5)"/><path class="cls-30" d="M846,1736.1c.1-.6,2.7-.8,5.1-.9a2.4,2.4,0,0,1,.5-1.3c-4.6.1-9.2.8-11,1.6H837l-.9.9h3.8c.6.8,4.5,1.3,10.4,1.3s9.1-.3,12-1.7,3.2-1.2,6.3-1.2,4.4.1,4.2.7-2,1.1-5.9,1.2a3.7,3.7,0,0,1-.7,1.2c5.4-.1,9.7-.6,11.7-1.4h3.7l.8-1H879c.4-1.4-3.9-1.7-10.8-1.7s-9.9.4-12.9,1.8a11.9,11.9,0,0,1-5.5,1.1C847.2,1736.7,845.9,1736.5,846,1736.1Z" transform="translate(-137.2 -492.5)"/><path class="cls-25" d="M804.4,1736.1v-11.5a284.1,284.1,0,0,0,43.6,3.3,280.6,280.6,0,0,0,43.2-3.3v11.8c0,3.1-19.4,5.5-43.4,5.5s-43.4-2.4-43.4-5.4Z" transform="translate(-137.2 -492.5)"/><path class="cls-26" d="M804.4,1735.1v-11.5a285.2,285.2,0,0,0,43.6,3.2,294.9,294.9,0,0,0,43.2-3.2v11.8c0,3.1-19.4,5.4-43.4,5.4s-43.4-2.3-43.4-5.4Z" transform="translate(-137.2 -492.5)"/><path class="cls-27" d="M880.7,1739v-14l3.2-.4v13.8Z" transform="translate(-137.2 -492.5)"/><path class="cls-27" d="M871.6,1740v-13.9l2.3-.2v13.9Z" transform="translate(-137.2 -492.5)"/><path class="cls-27" d="M814.8,1739l-2.3-.4V1725h2.3Z" transform="translate(-137.2 -492.5)"/><path class="cls-27" d="M877.7,1739.4v-14h1v13.9Z" transform="translate(-137.2 -492.5)"/><path class="cls-25" d="M804.3,1723.6c0-3.1,19.5-5.5,43.5-5.5s43.5,2.5,43.5,5.6-19.5,5.6-43.5,5.6S804.3,1726.7,804.3,1723.6Z" transform="translate(-137.2 -492.5)"/><ellipse class="cls-29" cx="710.7" cy="1230.7" rx="38.2" ry="3.9"/><path class="cls-30" d="M835.8,1723.3c.2-.6,2.8-.8,5.2-.9a3.3,3.3,0,0,1,.4-1.3c-4.5.1-9.2.8-10.9,1.6h-3.7l-.8.9h3.8c.5.8,4.4,1.3,10.3,1.3s9.2-.3,12-1.7,3.3-1.2,6.4-1.2,4.4.1,4.2.7-2,1.1-5.9,1.2a3.7,3.7,0,0,1-.7,1.2c5.3-.1,9.7-.6,11.7-1.4h3.7l.8-1h-3.5c.5-1.4-3.8-1.7-10.8-1.7-5.4,0-9.8.4-12.9,1.8a11.5,11.5,0,0,1-5.4,1.1Q835.7,1723.9,835.8,1723.3Z" transform="translate(-137.2 -492.5)"/><path class="cls-25" d="M725.9,1761.7v-11.4a301.2,301.2,0,0,0,43.7,3.2,293.5,293.5,0,0,0,43.1-3.2V1762c0,3.1-19.4,5.5-43.4,5.5s-43.5-2.4-43.5-5.4Z" transform="translate(-137.2 -492.5)"/><path class="cls-26" d="M725.9,1760.7v-11.5a287.7,287.7,0,0,0,43.7,3.2,293.5,293.5,0,0,0,43.1-3.2v11.5a.4.4,0,0,1,.1.3c0,3.1-19.4,5.4-43.4,5.4s-43.5-2.3-43.5-5.4Z" transform="translate(-137.2 -492.5)"/><path class="cls-27" d="M802.3,1764.6v-14l3.2-.4V1764Z" transform="translate(-137.2 -492.5)"/><path class="cls-27" d="M793.1,1765.6v-13.9l2.3-.2v13.9Z" transform="translate(-137.2 -492.5)"/><path class="cls-27" d="M736.3,1764.6l-2.2-.4v-13.6h2.2Z" transform="translate(-137.2 -492.5)"/><path class="cls-27" d="M799.2,1765v-14h1.1v13.9Z" transform="translate(-137.2 -492.5)"/><path class="cls-28" d="M725.8,1749.2c0-3.1,19.6-5.5,43.6-5.5s43.4,2.5,43.4,5.6-19.4,5.6-43.4,5.6S725.8,1752.3,725.8,1749.2Z" transform="translate(-137.2 -492.5)"/><path class="cls-29" d="M731.3,1748.8c0-2.2,17.1-3.9,38.2-3.9s38.2,1.7,38.2,3.9-17.1,3.9-38.2,3.9S731.3,1751,731.3,1748.8Z" transform="translate(-137.2 -492.5)"/><path class="cls-30" d="M757.4,1748.9c.1-.6,2.8-.8,5.1-.9a2.4,2.4,0,0,1,.5-1.3c-4.6.1-9.2.8-11,1.6h-3.6l-.8.9h3.7c.6.8,4.5,1.3,10.4,1.3s9.1-.3,12-1.7,3.2-1.2,6.3-1.2,4.4.1,4.2.7-2,1.1-5.8,1.2a4.2,4.2,0,0,1-.8,1.2c5.4-.1,9.7-.6,11.7-1.4H793l.9-1h-3.5c.4-1.4-3.9-1.7-10.8-1.7-5.4,0-9.9.4-12.9,1.8a11.7,11.7,0,0,1-5.4,1.1Q757.3,1749.5,757.4,1748.9Z" transform="translate(-137.2 -492.5)"/><path class="cls-25" d="M733.9,1748.9v-11.5a286.5,286.5,0,0,0,43.7,3.3,279.2,279.2,0,0,0,43.1-3.3V1749c.1,0,.1.1.1.2,0,3.1-19.4,5.5-43.4,5.5s-43.5-2.4-43.5-5.4Z" transform="translate(-137.2 -492.5)"/><path class="cls-26" d="M733.9,1747.9v-11.5a287.7,287.7,0,0,0,43.7,3.2,293.5,293.5,0,0,0,43.1-3.2v11.5a.4.4,0,0,1,.1.3c0,3.1-19.4,5.4-43.4,5.4s-43.5-2.3-43.5-5.4Z" transform="translate(-137.2 -492.5)"/><path class="cls-27" d="M810.3,1751.8v-14l3.2-.4v13.8Z" transform="translate(-137.2 -492.5)"/><path class="cls-27" d="M801.1,1752.8v-13.9l2.3-.2v13.9Z" transform="translate(-137.2 -492.5)"/><path class="cls-27" d="M744.4,1751.8l-2.3-.4v-13.6h2.3Z" transform="translate(-137.2 -492.5)"/><path class="cls-27" d="M807.2,1752.2v-14h1.1V1752Z" transform="translate(-137.2 -492.5)"/><path class="cls-25" d="M733.8,1736.4c0-3.1,19.6-5.5,43.6-5.5s43.4,2.5,43.4,5.6-19.4,5.6-43.4,5.6S733.8,1739.5,733.8,1736.4Z" transform="translate(-137.2 -492.5)"/><path class="cls-29" d="M739.3,1736c0-2.2,17.1-3.9,38.2-3.9s38.2,1.7,38.2,3.9-17.1,3.9-38.2,3.9S739.3,1738.2,739.3,1736Z" transform="translate(-137.2 -492.5)"/><path class="cls-30" d="M765.4,1736.1c.1-.6,2.8-.8,5.1-.9a2.4,2.4,0,0,1,.5-1.3c-4.6.1-9.2.8-11,1.6h-3.6l-.8.9h3.7c.6.8,4.5,1.3,10.4,1.3s9.2-.3,12-1.7,3.2-1.2,6.3-1.2,4.4.1,4.2.7-2,1.1-5.8,1.2a4.2,4.2,0,0,1-.8,1.2c5.4-.1,9.7-.6,11.7-1.4H801l.9-1h-3.5c.4-1.4-3.9-1.7-10.8-1.7-5.4,0-9.9.4-12.9,1.8a11.7,11.7,0,0,1-5.4,1.1Q765.3,1736.7,765.4,1736.1Z" transform="translate(-137.2 -492.5)"/><path class="cls-25" d="M723.8,1736.1v-11.5a284.1,284.1,0,0,0,43.6,3.3,279.5,279.5,0,0,0,43.2-3.3v11.8c0,3.1-19.4,5.5-43.4,5.5s-43.4-2.4-43.4-5.4Z" transform="translate(-137.2 -492.5)"/><path class="cls-26" d="M723.8,1735.1v-11.5a285.2,285.2,0,0,0,43.6,3.2,293.8,293.8,0,0,0,43.2-3.2v11.8c0,3.1-19.4,5.4-43.4,5.4s-43.4-2.3-43.4-5.4Z" transform="translate(-137.2 -492.5)"/><path class="cls-27" d="M800.1,1739v-14l3.3-.4v13.8Z" transform="translate(-137.2 -492.5)"/><path class="cls-27" d="M791,1740v-13.9l2.3-.2v13.9Z" transform="translate(-137.2 -492.5)"/><path class="cls-27" d="M734.2,1739l-2.3-.4V1725h2.3Z" transform="translate(-137.2 -492.5)"/><path class="cls-27" d="M797.1,1739.4v-14h1.1v13.9Z" transform="translate(-137.2 -492.5)"/><path class="cls-25" d="M723.7,1723.6c0-3.1,19.5-5.5,43.5-5.5s43.5,2.5,43.5,5.6-19.5,5.6-43.5,5.6S723.7,1726.7,723.7,1723.6Z" transform="translate(-137.2 -492.5)"/><ellipse class="cls-29" cx="630.2" cy="1230.7" rx="38.2" ry="3.9"/><path class="cls-30" d="M755.2,1723.3c.2-.6,2.8-.8,5.2-.9a3.3,3.3,0,0,1,.4-1.3c-4.5.1-9.1.8-10.9,1.6h-3.7l-.8.9h3.8c.6.8,4.5,1.3,10.3,1.3s9.2-.3,12.1-1.7,3.2-1.2,6.3-1.2,4.4.1,4.2.7-2,1.1-5.9,1.2a3.7,3.7,0,0,1-.7,1.2c5.3-.1,9.7-.6,11.7-1.4h3.7l.8-1h-3.4c.4-1.4-3.9-1.7-10.9-1.7-5.3,0-9.8.4-12.8,1.8a11.9,11.9,0,0,1-5.5,1.1Q755.1,1723.9,755.2,1723.3Z" transform="translate(-137.2 -492.5)"/><path class="cls-25" d="M711.8,1723.3v-11.5a284.1,284.1,0,0,0,43.6,3.3,280.6,280.6,0,0,0,43.2-3.3v11.8c0,3.1-19.4,5.5-43.4,5.5s-43.4-2.4-43.4-5.5Z" transform="translate(-137.2 -492.5)"/><path class="cls-26" d="M711.8,1722.3v-11.5a285.2,285.2,0,0,0,43.6,3.2,294.9,294.9,0,0,0,43.2-3.2v11.8c0,3.1-19.4,5.4-43.4,5.4s-43.4-2.3-43.4-5.4Z" transform="translate(-137.2 -492.5)"/><path class="cls-27" d="M788.1,1726.2v-14l3.3-.4v13.8Z" transform="translate(-137.2 -492.5)"/><path class="cls-27" d="M779,1727.2v-13.9l2.3-.2V1727Z" transform="translate(-137.2 -492.5)"/><path class="cls-27" d="M722.2,1726.2l-2.3-.4v-13.6h2.3Z" transform="translate(-137.2 -492.5)"/><path class="cls-27" d="M785.1,1726.6v-14h1.1v13.9Z" transform="translate(-137.2 -492.5)"/><path class="cls-28" d="M711.7,1710.8c0-3.1,19.5-5.5,43.5-5.5s43.5,2.5,43.5,5.6-19.5,5.6-43.5,5.6S711.7,1713.9,711.7,1710.8Z" transform="translate(-137.2 -492.5)"/><path class="cls-29" d="M717.1,1710.4c0-2.2,17.1-4,38.2-4s38.2,1.8,38.2,4-17.1,3.9-38.2,3.9S717.1,1712.6,717.1,1710.4Z" transform="translate(-137.2 -492.5)"/><path class="cls-30" d="M743.2,1710.5c.2-.6,2.8-.8,5.2-.9a3.3,3.3,0,0,1,.4-1.3c-4.5.1-9.1.8-10.9,1.6h-3.7l-.8.9h3.8c.6.8,4.5,1.3,10.3,1.3s9.2-.3,12-1.7,3.3-1.2,6.4-1.2,4.4.1,4.2.7-2,1.1-5.9,1.2a3.7,3.7,0,0,1-.7,1.2c5.3-.1,9.7-.6,11.7-1.4h3.7l.8-1h-3.4c.4-1.4-3.9-1.7-10.9-1.7-5.3,0-9.8.4-12.9,1.8a11.5,11.5,0,0,1-5.4,1.1Q743.1,1711.1,743.2,1710.5Z" transform="translate(-137.2 -492.5)"/><path class="cls-25" d="M723.8,1710.5V1699a284.1,284.1,0,0,0,43.6,3.3,279.5,279.5,0,0,0,43.2-3.3v11.8c0,3.1-19.4,5.5-43.4,5.5s-43.4-2.4-43.4-5.5Z" transform="translate(-137.2 -492.5)"/><path class="cls-26" d="M723.8,1709.5V1698a285.2,285.2,0,0,0,43.6,3.2,293.8,293.8,0,0,0,43.2-3.2v11.8c0,3-19.4,5.4-43.4,5.4s-43.4-2.3-43.4-5.4Z" transform="translate(-137.2 -492.5)"/><path class="cls-27" d="M800.1,1713.4v-14l3.3-.4v13.8Z" transform="translate(-137.2 -492.5)"/><path class="cls-27" d="M791,1714.4v-13.9l2.3-.2v13.9Z" transform="translate(-137.2 -492.5)"/><path class="cls-27" d="M734.2,1713.4l-2.3-.4v-13.6h2.3Z" transform="translate(-137.2 -492.5)"/><path class="cls-27" d="M797.1,1713.8v-14h1.1v13.9Z" transform="translate(-137.2 -492.5)"/><path class="cls-28" d="M723.7,1698c0-3.1,19.5-5.5,43.5-5.5s43.5,2.5,43.5,5.6-19.5,5.6-43.5,5.6S723.7,1701.1,723.7,1698Z" transform="translate(-137.2 -492.5)"/><path class="cls-29" d="M729.1,1697.6c0-2.2,17.1-4,38.2-4s38.2,1.8,38.2,4-17.1,3.9-38.2,3.9S729.1,1699.8,729.1,1697.6Z" transform="translate(-137.2 -492.5)"/><path class="cls-30" d="M755.2,1697.7c.2-.6,2.8-.8,5.2-.9a3.3,3.3,0,0,1,.4-1.3c-4.5.1-9.1.8-10.9,1.6h-3.7l-.8.9h3.8c.6.8,4.5,1.3,10.3,1.3s9.2-.3,12.1-1.7,3.2-1.2,6.3-1.3,4.4.2,4.2.8-2,1.1-5.9,1.2a2.6,2.6,0,0,1-.7,1.1c5.3,0,9.7-.5,11.7-1.3h3.7l.8-1h-3.4c.4-1.5-3.9-1.7-10.9-1.7-5.3,0-9.8.4-12.8,1.8a10.8,10.8,0,0,1-5.5,1C756.4,1698.3,755.1,1698,755.2,1697.7Z" transform="translate(-137.2 -492.5)"/><path class="cls-25" d="M728.1,1697.7v-11.5a284.1,284.1,0,0,0,43.6,3.3,280.6,280.6,0,0,0,43.2-3.3V1698c0,3.1-19.4,5.5-43.4,5.5s-43.5-2.4-43.5-5.5A.4.4,0,0,1,728.1,1697.7Z" transform="translate(-137.2 -492.5)"/><path class="cls-26" d="M728.1,1696.7v-11.5a285.2,285.2,0,0,0,43.6,3.2,294.9,294.9,0,0,0,43.2-3.2V1697c0,3-19.4,5.4-43.4,5.4s-43.5-2.3-43.5-5.4A.4.4,0,0,1,728.1,1696.7Z" transform="translate(-137.2 -492.5)"/><path class="cls-27" d="M804.4,1700.6v-14l3.2-.4V1700Z" transform="translate(-137.2 -492.5)"/><path class="cls-27" d="M795.3,1701.6v-13.9l2.2-.2v13.9Z" transform="translate(-137.2 -492.5)"/><path class="cls-27" d="M738.5,1700.6l-2.3-.4v-13.6h2.3Z" transform="translate(-137.2 -492.5)"/><path class="cls-27" d="M801.3,1701v-14h1.1v13.9Z" transform="translate(-137.2 -492.5)"/><path class="cls-28" d="M728,1685.2c0-3.1,19.5-5.5,43.5-5.5s43.4,2.5,43.4,5.6-19.4,5.6-43.4,5.6S728,1688.3,728,1685.2Z" transform="translate(-137.2 -492.5)"/><path class="cls-29" d="M733.4,1684.8c0-2.2,17.1-4,38.2-4s38.2,1.8,38.2,4-17.1,3.9-38.2,3.9S733.4,1687,733.4,1684.8Z" transform="translate(-137.2 -492.5)"/><path class="cls-30" d="M759.5,1684.9c.2-.6,2.8-.8,5.1-.9a6.9,6.9,0,0,1,.5-1.3c-4.5.1-9.2.8-10.9,1.6h-3.7l-.8.9h3.8c.5.8,4.4,1.3,10.3,1.3s9.2-.3,12-1.7,3.2-1.2,6.3-1.3,4.5.2,4.3.8-2.1,1.1-5.9,1.2a2.6,2.6,0,0,1-.7,1.1c5.3,0,9.7-.5,11.6-1.4h3.8l.8-1h-3.5c.5-1.5-3.9-1.7-10.8-1.7s-9.9.4-12.9,1.8a10.7,10.7,0,0,1-5.4,1C760.7,1685.5,759.4,1685.2,759.5,1684.9Z" transform="translate(-137.2 -492.5)"/><circle class="cls-28" cx="683.6" cy="1234.7" r="38.3"/><circle class="cls-66" cx="820.3" cy="1729.3" r="29.5" transform="translate(-1119.7 594.1) rotate(-45)"/><circle class="cls-67" cx="683.6" cy="1234.7" r="29.5"/><path class="cls-68" d="M820.8,1701.5a29.5,29.5,0,0,1,29.4,27.6,12.1,12.1,0,0,0,.1-1.9,29.5,29.5,0,1,0-59,0v1.9A29.5,29.5,0,0,1,820.8,1701.5Z" transform="translate(-137.2 -492.5)"/><path class="cls-68" d="M824.1,1724.7c-3.6-1.5-4.7-2.3-4.7-3.9s1.3-2.8,3.5-2.8a13,13,0,0,1,6.3,2.1l1.7-7.3-1.5-.8.7-2.4-5.4-1.6-.9,2.8h-1.1c-7.2-.1-11.9,4.6-11.9,11-.1,4,2.1,7.9,8.1,10.3,3.4,1.4,4.2,2.3,4.2,4s-1.1,2.8-3.9,2.8a15.4,15.4,0,0,1-7.7-2.7l-1.7,7.6a15.7,15.7,0,0,0,2.9,1.4l-.9,2.5,5.5,1.6,1-3h.8c8.4.1,12.7-4.5,12.8-10.8S829.6,1727,824.1,1724.7Z" transform="translate(-137.2 -492.5)"/><path class="cls-69" d="M823.4,1725.4c-3.5-1.5-4.6-2.4-4.6-4s1.3-2.8,3.5-2.7a12.6,12.6,0,0,1,6.2,2l1.7-7.3-1.5-.7.8-2.4-5.5-1.6-.8,2.7H822c-7.1-.1-11.8,4.6-11.9,10.9-.1,4.1,2.2,7.9,8.1,10.4,3.4,1.4,4.3,2.2,4.3,4s-1.2,2.8-3.9,2.8a16.8,16.8,0,0,1-7.8-2.7l-1.7,7.5a11.2,11.2,0,0,0,2.9,1.4l-.8,2.5,5.4,1.6,1-3h.9c8.3.2,12.6-4.5,12.7-10.8S828.9,1727.7,823.4,1725.4Z" transform="translate(-137.2 -492.5)"/></svg>