<svg xmlns="http://www.w3.org/2000/svg" viewBox="0 0 2000 2000"><defs><style>.cls-1{isolation:isolate;}.cls-2{fill:#e4e2e3;}.cls-3{fill:#edc06d;}.cls-4{fill:#78b14f;}.cls-5{fill:#fb8f70;}.cls-6{fill:#ee5d26;}.cls-7{fill:#fffaf5;}.cls-8{fill:#5f1210;}.cls-9{fill:#ffba56;}.cls-10{fill:#649141;}.cls-11{fill:#eb952d;}.cls-12{opacity:0.25;mix-blend-mode:multiply;}.cls-13{fill:#898989;}.cls-14{fill:#11748e;}.cls-15{fill:#1484ac;}</style></defs><title>explain</title><g class="cls-1"><g id="explain"><path class="cls-2" d="M1189,1189.5h0a31.4,31.4,0,0,0-31.4,31.3h0a31.4,31.4,0,0,0,31.4,31.3h0a31.3,31.3,0,0,0,31.3-31.3h0A31.3,31.3,0,0,0,1189,1189.5Zm16.7,48a23.7,23.7,0,0,1-40.4-16.7,23.6,23.6,0,0,1,40.4-16.7,23.7,23.7,0,0,1,0,33.4Z"/><path class="cls-2" d="M1232.2,884.4h0a54.3,54.3,0,0,0-54.3,54.3h0a54.3,54.3,0,0,0,54.3,54.4h0a54.3,54.3,0,0,0,54.4-54.4h0A54.3,54.3,0,0,0,1232.2,884.4Zm29.1,83.4a41.2,41.2,0,1,1,12-29.1A41.2,41.2,0,0,1,1261.3,967.8Z"/><path class="cls-2" d="M1314.4,1080.5a26.7,26.7,0,0,1,37.7,0l17.2,17.2,17.3-17.2a26.6,26.6,0,1,1,37.6,37.7l-17.2,17.2,17.2,17.2a26.6,26.6,0,0,1-37.6,37.7l-17.2-17.2-17.3,17.2a26.6,26.6,0,0,1-37.6,0,26.2,26.2,0,0,1-7.9-18.8,27.2,27.2,0,0,1,7.8-18.9l17.3-17.2-17.2-17.2A26.6,26.6,0,0,1,1314.4,1080.5Z"/><path class="cls-2" d="M1270.9,752.1a7.7,7.7,0,0,1,10.8,0l4.9,5,4.9-5a7.6,7.6,0,1,1,10.8,10.8l-4.9,4.9,4.9,4.9a7.6,7.6,0,1,1-10.8,10.8l-4.9-4.9-4.9,4.9a7.6,7.6,0,0,1-10.8-10.8l4.9-4.9-4.9-4.9A7.8,7.8,0,0,1,1270.9,752.1Z"/><path class="cls-2" d="M1453.8,1380.6l-29.5,19c-2.3-2.8-4.7-5.5-7.2-8A107.8,107.8,0,0,0,1244,1515.3l-29.5,18.9a141.2,141.2,0,0,1-16.4-66.3,142.6,142.6,0,0,1,255.7-87.3Z"/><path class="cls-2" d="M1473.5,901.2a54,54,0,0,1-6.2,7.4,55.5,55.5,0,1,1-49.3-93.9l8.2,12.7a42.4,42.4,0,0,0-27.8,12.2,42,42,0,1,0,67,48.9Z"/><path class="cls-2" d="M1548.4,1177.9h0a20.2,20.2,0,0,0-20.2,20.2h0a20.2,20.2,0,0,0,20.2,20.2h0a20.2,20.2,0,0,0,20.3-20.2h0A20.2,20.2,0,0,0,1548.4,1177.9Zm10.9,31a15.3,15.3,0,0,1-26.1-10.8,15.5,15.5,0,0,1,4.4-10.8,15.3,15.3,0,0,1,21.7,0,15.5,15.5,0,0,1,4.4,10.8A15.4,15.4,0,0,1,1559.3,1208.9Z"/><path class="cls-3" d="M1141.9,450l-.9-.8-1-.8-1.4-1a57.5,57.5,0,0,0-7.5-4.3,48.3,48.3,0,0,0-8.4-3.1l-2.5-.7,3,3.8.7,1.1q1.2,1.7,2.4,3.6a116.2,116.2,0,0,1,11.8,2l5,1.2Zm-12.6-10.5h-.1a138.3,138.3,0,0,0-34.6-.5h0c-3.6.4-7.2.9-10.8,1.6a136.3,136.3,0,0,0-27.3,8.2l-4.1,1.8h0l-4.3,2a132.3,132.3,0,0,0-13.6,7.8L892.6,551.5,737,651.3,561.6,763.9a56.9,56.9,0,0,0,.4,9.9l165.1-106h0L897.3,558.6l141.8-91a123.3,123.3,0,0,1,16.3-8.9,125.7,125.7,0,0,1,31-9.8c3.3-.7,6.7-1.1,10.1-1.5h0c4.4-.4,8.9-.7,13.3-.7a130.6,130.6,0,0,1,16.5,1.1,116.2,116.2,0,0,1,11.8,2l5,1.2h0q5.1,1.3,9.9,3C1146.7,447.1,1138.3,442.6,1129.3,439.5Zm12.6,10.5-.9-.8-1-.8-1.4-1a57.5,57.5,0,0,0-7.5-4.3,48.3,48.3,0,0,0-8.4-3.1l-2.5-.7,3,3.8.7,1.1q1.2,1.7,2.4,3.6a116.2,116.2,0,0,1,11.8,2l5,1.2Z"/><path class="cls-3" d="M1579.8,1309.9l-121,77.7-29.3,18.8-181.4,116.5-29.4,18.8-88.6,56.8-46.5,29.9L965.8,1704a139.9,139.9,0,0,1-193.4-42.2L736,1605.1,378.3,1047.8c-41.7-64.9-22.8-151.7,42.2-193.4l141.1-90.5a56.9,56.9,0,0,0,.4,9.9L425.1,861.7c-60.9,39.1-78.7,120.5-39.6,181.5l350.9,546.7,43.2,67.3c39.1,61,120.6,78.7,181.6,39.6l123.9-79.5,46.5-29.9,82.9-53.2,29.5-18.9,180.3-115.7,29.5-19,121.3-77.9a131.4,131.4,0,0,0,39.6-181.5l-141.2-220-8.1-12.7-39.2-61.1-8.2-12.7L1220.7,507.2A130.4,130.4,0,0,0,1153,454h0c-6.3-6.9-14.7-11.4-23.7-14.5,3.5.5,7.1,1.1,10.6,1.9a139,139,0,0,1,88,61.2l199.8,311.2,9.3,14.5,32,50,9.4,14.5L1622,1116.5C1663.7,1181.5,1644.7,1268.3,1579.8,1309.9Z"/><path class="cls-4" d="M1149.2,1488.7a40.5,40.5,0,0,0-1.1,4.1l-.9,3.3c-.2.9-.3,1.7-.5,2.5s-.9,3.5-1.3,5.4c-1,4.7-2,9.8-3.1,15.2l-.6,3.4c-1.6,8.6-3.2,17.9-4.7,27.8-.3,1.7-.6,3.5-.8,5.2l-1.5,9.5c-.3,2.5-.7,5.1-1.1,7.6s-.4,3.4-.7,5.2-.3,2.5-.5,3.7-.5,3.9-.8,5.8l-46.5,29.9-123.9,79.5c-61,39.1-142.5,21.4-181.6-39.6l-43.2-67.3c.4-11.5.8-23.4,1.3-35.6h0c.9-22.2,1.9-45.3,3-68.5,4.2-81.1,10.6-163.3,20.3-213.3,15.6-79.9,32.4-134.7,42.7-164.4h.1c2.4-6.9,4.4-12.5,6-16.7s2.9-7.2,3.4-8.5l.2-.4H973.9l6.8.2,4.9.2,9.6.4,4.6.2h5.3l5.1.2,2.5.2h2.5l4.8.2h.2l4.7.3h2.3l4.8.3h4.5l4.3.3h.9l3.5.2h2.1l2.1.2h2.1l12.9.9h2.8l2.8.2h2.7l1.7.2h1.8l1.7.2,3.4.2h3.3l1.6.2,2.3.2,2,.2h3.4l2.2.2,6.3.6h3.9l1.2.2h1.3l-.6,2.1-.3,1h0c-.1.3-.1.6-.2.9l-.3,1c0,.2-.1.4-.1.6s-.3.8-.4,1.2-.3,1.2-.4,1.8l-1.2,4.2c-.3,1.2-.6,2.5-1,3.8s-.7,2.6-1,3.9l-1.5,5.5a28.1,28.1,0,0,0-.8,3.1c-.7,2.3-1.3,4.7-2,7.1a3,3,0,0,0-.2,1c-.6,1.9-1.1,3.9-1.6,5.9l-1.2,4.2-1.2,4.3c-.7,2.9-1.5,5.8-2.3,8.7-1.4,5-2.7,10-4.1,15l-.3,1c-1.3,5-2.7,10-4.1,15-4.6,16.8-9.1,33.5-13.3,48.8l-.3,1.1c-.5,1.6-.9,3.3-1.4,4.9l-.3,1c-.2,1-.5,1.9-.7,2.9l-.3,1c-.3,1-.5,1.9-.8,2.8l-.3,1.1a23.3,23.3,0,0,1-.7,2.5c-.4,1.7-.9,3.4-1.3,5a18.2,18.2,0,0,0-.7,2.5c-.3.9-.5,1.8-.8,2.7s-1.1,3.9-1.6,5.8a25,25,0,0,1-.7,2.6l-.6,2.3-.3.8-.6,2.3a3.1,3.1,0,0,1-.2.8l-.6,2.1c-.1.3-.1.6-.2.8l-.6,2.1-.6,2.1-.6,2.2a11.7,11.7,0,0,1-.5,2l-.3,1c-.3,1-.5,2-.8,2.9s-.1.4-.1.6-.7,2.5-1,3.6-.1.4-.2.6l-.3,1c-.2.7-.3,1.3-.5,2l-.3.9c0,.1-.1.2-.1.4s-.1.4-.1.6a.1.1,0,0,0-.1.1,2.9,2.9,0,0,0-.2.9c0,.1-.1.1-.1.2h0v.2h-.1a.8.8,0,0,1-.1.4v.3c-.1.1-.1.3-.2.5h0c0,.1-.1.1-.1.2v.2h-.1a.1.1,0,0,1-.1.1h0c-.1.2-.1.5-.2.7h0a.4.4,0,0,0-.1.3h0v.3a4.3,4.3,0,0,1-.1.5h-.1v.2h0a.4.4,0,0,1,.1.3.4.4,0,0,1,.1.3h0l.3.5.3.7h0c.1,0,.1.1.1.2v.2a3.6,3.6,0,0,1,.5.9c.1.1.1.3.2.5h0l.9,1.4a38.5,38.5,0,0,0,2.2,3.5l.5.7a2.1,2.1,0,0,0,.4.6l.5.8.3.4.3.3h0l.4.4a43.7,43.7,0,0,0,3.6,4.4h.1l.2.3h.2l.5.6h.1a.1.1,0,0,0,.1.1,2.3,2.3,0,0,0,.7.7l.2.3.2.2h0l1,1h0l1,1,.2.2.7.6.6.6.6.6,1.2,1,.7.6.6.5h.2l.9.8,1.7,1.4,1.3,1h.2l1.3.9h0l.3.2h0l1.7,1.2,1.8,1.2h.2l.4.2a5.7,5.7,0,0,0,1.3.8l1.9,1.2,1,.6h.7l1.2.6h.2l.9.3.4.2h.1l.5.2,1,.4h.1l.5.2h.5l.6.2h1l1,.3a43.7,43.7,0,0,0,11.4,1.1h7.3l1.3-.2h.1l2.7-.6h.6l1.4-.3,1-.3,1-.2,1.6-.5h0c.1,0,.2,0,.2-.1h.7l6.7-2.4c2.9-1.1,5.5-2.3,7.6-3.3l1.3-.6,1.7-.9,2.7-1.5h0l.7-.4,1.4-.8h0c0-.1.1-.2.1-.3v-.2h.1a.4.4,0,0,1,.1-.3v-.2h0a.3.3,0,0,0,.1-.2.6.6,0,0,1,.1-.4,3.1,3.1,0,0,1,.2-.8c0-.2.1-.3.1-.5v-.2a.8.8,0,0,1,.1-.4,3,3,0,0,0,.2-1,1.4,1.4,0,0,0,.2-.7.3.3,0,0,0,.1-.2h0v-.3c0-.2.1-.4.1-.6v-.4c.1-.1.1-.2.1-.4s.1-.1.1-.2a10.3,10.3,0,0,1,.4-1.4,19.4,19.4,0,0,1,.5-2v-.2h.1v-.2c.2-.5.3-1.1.5-1.7a963348047880.3,963348047880.3,0,0,0,.2-.8c0-.2.1-.3.1-.5s.1-.2.1-.4a6.5,6.5,0,0,1,.4-1.3c.2-1,.4-1.9.7-2.9a7.4,7.4,0,0,1,.4-1.4,18.9,18.9,0,0,1,.5-2.3,19.7,19.7,0,0,0,.7-2.6.8.8,0,0,0,.1-.4,2.4,2.4,0,0,0,.2-.8l.3-1.1a.6.6,0,0,0,.1-.4c.1-.3.1-.5.2-.8v-.3l.9-3.3v-.3l.3-1v-.3l.2-.5c0-.2.1-.4.1-.6h.1c0-.2,0-.3.1-.4a2.9,2.9,0,0,1,.2-.9h0c.2-.7.3-1.3.5-2a1.4,1.4,0,0,1,.2-.6l.3-1.4.3-1.2.2-.8.3-.9a3,3,0,0,1,.2-1h0a8.3,8.3,0,0,0,.4-1.5c.2-.9.5-1.8.7-2.8h0c.1-.2.1-.4.2-.5l.6-2.3h0l.3-1.5h0C1160.6,1353.3,1160.6,1446.9,1149.2,1488.7Z"/><path class="cls-5" d="M859.1,419.3v1.4l-2.9,36.8-1.8,22.2a20.8,20.8,0,0,1-6.8,14L792,544.3c-8.5-17.4-45.7-36.1-63.4-39l1.8-5.6,13.5-42.8,1.8-5.7.6-1.9,10.1,14.9,2.3,14.5a8.8,8.8,0,0,0,13.2,6.3l62.5-35.9,4.5-2.6V422.2l2.5-13.7a5.9,5.9,0,0,1,8.2-4.3h0a16.8,16.8,0,0,1,9.6,13.9Z"/><path class="cls-5" d="M838.9,446.5l-4.5,2.6L771.9,485a8.8,8.8,0,0,1-13.2-6.3l-2.3-14.5-10.1-14.9a44.9,44.9,0,0,1,8.3-14.6c4.3-5.2,9.7-9.4,15.4-11.1l51.2-15.4a12.2,12.2,0,0,1,15,7.3l2.6,6.7Z"/><path class="cls-6" d="M834.5,451.1l-67,38.5a8.9,8.9,0,0,1-13.2-6.3L752,468.7l-8.1-11.8,1.8-5.7.6-1.9,10.1,14.9,2.3,14.5a8.8,8.8,0,0,0,13.2,6.3l62.5-35.9Z"/><path class="cls-6" d="M859.1,419.3v1.4l-2.9,36.8-1.8,22.2a20.8,20.8,0,0,1-6.8,14L792,544.3c-8.5-17.4-45.7-36.1-63.4-39l1.8-5.6,63.5,20.4,54.4-44.6V458.8l1.2-54.6a16.8,16.8,0,0,1,9.6,13.9Z"/><path class="cls-5" d="M1077.1,499.2a19.7,19.7,0,0,1-23.8,1.7,86.8,86.8,0,0,1-17.2,35.1C1010,568.2,965,581,942,585.6h-.3a31.8,31.8,0,0,1-27.2-7.5c-35.6-32.1-51.2-93.4-50.1-115.9a171.8,171.8,0,0,0-.5-20.9c6.1-6.1,11.6-14.4,15.8-25.3,7.1-18.2.9-33.3-9.8-49,15.1-11.1,36.4-25.9,51.3-32.6,25.4-11.6,61,1.4,61,1.4l51,11.4,17.4,49.8s1.9,41.9-4.6,65.4c.3-.3,6.1-8.4,12.7-28.7,7.1-9.8,25.2-20.2,34.1.1a58.4,58.4,0,0,1,3.5,12.4C1100.8,472.2,1087.8,489.6,1077.1,499.2Z"/><path class="cls-5" d="M940.7,642.3c56.1,23.5,115.7-31.9,115.7-31.9-5.6-4.5-9.9-16.7-13.3-31.3-1.9-8.1-3.4-17-4.7-25.6-.9-6.1-1.7-12-2.3-17.5C1010,568.2,965,581,942,585.6c.1,9.9-.1,21.1-.3,30.8C941.3,630.9,940.7,642.3,940.7,642.3Z"/><path class="cls-6" d="M863.9,441.4c34.1-20.4,22.2-72,22.2-72s27.6-28.5,48.1-32.6,97,14.3,97,14.3l19.4,46-17.4-49.8-51-11.4s-35.6-13-61-1.4c-14.9,6.7-36.2,21.5-51.3,32.6,10.7,15.7,16.9,30.8,9.8,49C875.5,427,870,435.3,863.9,441.4Z"/><path class="cls-6" d="M1065.9,424.6a2.6,2.6,0,0,0-2.9-2.2l-50.3,6.6c-3.1-20.7-17.7-36.4-35.2-36.4s-32.8,16.3-35.5,37.6a15.7,15.7,0,0,0-10.5-.1c-3.8-19.6-18-34.2-34.9-34.2-19.8,0-35.9,20-35.9,44.6S876.8,485,896.6,485s35.9-20,35.9-44.5a44.1,44.1,0,0,0-.3-5.2,10.1,10.1,0,0,1,9.4.4v1.4c0,24.6,16.1,44.6,35.9,44.6s35.8-20,35.8-44.6c0-1,0-2-.1-3.1l50.5-6.5A2.6,2.6,0,0,0,1065.9,424.6ZM896.6,479.9c-17,0-30.8-17.7-30.8-39.4S879.6,401,896.6,401s30.7,17.7,30.7,39.5S913.5,479.9,896.6,479.9Zm80.9-3.4c-17,0-30.8-17.6-30.8-39.4s13.8-39.4,30.8-39.4,30.7,17.7,30.7,39.4S994.4,476.5,977.5,476.5Z"/><path class="cls-6" d="M1056.8,491.5c41.7.6,33.4-56.6,18.5-59.7-7.1-1.5-12.9,5.4-17.1,12.9a25.3,25.3,0,0,0,.3,24.2l.6,1.3C1061.8,476.2,1056.8,491.5,1056.8,491.5Z"/><path class="cls-6" d="M941.7,616.4c60-17.7,87.2-49.1,96.7-62.9-.9-6.1-1.7-12-2.3-17.5C1010,568.2,965,581,942,585.6,942.1,595.5,941.9,606.7,941.7,616.4Z"/><path class="cls-7" d="M1064.3,422a2.6,2.6,0,0,0-2.9-2.2l-50.3,6.5c-3.1-20.7-17.7-36.4-35.2-36.4s-32.8,16.4-35.5,37.7a15.1,15.1,0,0,0-10.5-.1c-3.8-19.6-18-34.2-34.9-34.2-19.8,0-35.9,20-35.9,44.5s16.1,44.6,35.9,44.6,35.9-20,35.9-44.6a43.6,43.6,0,0,0-.3-5.1,10.1,10.1,0,0,1,9.4.4v1.4c0,24.6,16.1,44.5,35.9,44.5s35.9-19.9,35.9-44.5c0-1-.1-2.1-.1-3.1l50.4-6.5A2.6,2.6,0,0,0,1064.3,422ZM895,477.3c-16.9,0-30.7-17.7-30.7-39.5s13.8-39.4,30.7-39.4,30.8,17.7,30.8,39.4S912,477.3,895,477.3Zm80.9-3.4c-17,0-30.8-17.7-30.8-39.4s13.8-39.4,30.8-39.4,30.7,17.6,30.7,39.4S992.8,473.9,975.9,473.9Z"/><path class="cls-8" d="M1163.2,472.9A41.7,41.7,0,0,0,1153,454h0c-6.3-6.9-14.7-11.4-23.7-14.5h-.1a91.5,91.5,0,0,0-11.4-3.1c-1.7-1.9-2.8-2.9-2.8-2.9s38.7-40.2,25.3-78.5c-5.9-16.7-17.8-23.2-29.4-25.2-.7-12.6-1.9-26-3.8-35.4-2.2-11-8.6-19.7-18.8-25.7l-1.9-1.1c-13.3-13.4-35.1-17.3-55.1-15.6a122.5,122.5,0,0,1-13.5-8.7c-4.7-3.3-10.1-7-16.8-10.9-18.8-11-42.8-5.1-50.6-2.7-28.1,0-44.7,12.6-58,24.2a71.8,71.8,0,0,1-16-2.3,81,81,0,0,1-7.9-2.6l-1.9-.9-.9-.4-.9-.4-3.8-2-1-.5-1-.4-2-.8-2.1-.8-2.1-.5a20.6,20.6,0,0,0-8.9-.6h-.6l-.6.2-1.1.3-1.1.4-1,.4a13.2,13.2,0,0,0-2,1.2l-.9.7-.9.8a19.2,19.2,0,0,0-4.6,7.6,41.9,41.9,0,0,0-1.6,17.2,58.6,58.6,0,0,0,1.2,8.4,10.5,10.5,0,0,1,.4,1.7c-16.3,5.5-33.3,13.9-37.7,25.7-2.8,7.5,3,19.3,12.1,33-8.7,4.3-18.7,12.6-8.3,25.3s25.3,31.5,26.5,43.1c.6,6.1-2.6,10.3-12,10.7,0,0,15.8,1.6,19.6-8.8,1.4-3.9,1.2-9.3-2-17.1-8.8-21.2-9.4-23.5-7.7-30.5,10.4,14.2,21.1,28.9,27.5,42h0a10.4,10.4,0,0,0,.4,1h0c4.7,9.9,6.8,18.8,4.3,25.9a32.7,32.7,0,0,1-5.1,9.4,18.1,18.1,0,0,1-9.9,6.3c-11.8,2.8-24.4-5.2-22.6,9.8a25,25,0,0,0,.5,2.9l.6,1.7c3.2,8.3,11.9,13.2,20.6,23a75.5,75.5,0,0,1,8.1,11.2c6.5,11.2,11.9,27.5,13.1,53.5.6,13.6-11.3,16.3-11.3,16.3s21.7,2.8,21.4-40.2c-.1-18.7-7-34.2-14.7-45.8-1.8-2.6-3.6-5.1-5.5-7.4l-.7-.9a14.8,14.8,0,0,1,.1-16.6h0a14.8,14.8,0,0,1,4.9-4.4c1.2-.8,2.5-1.5,3.7-2.4l2.6-2,1.2-1c1.1-.9,2.1-1.9,3.1-2.9h.1c0-.1.1-.1.1-.2l.2-.2h.2l.6-.7.7-.8h.1l.3-.4.9-1a.1.1,0,0,1,.1-.1h.1l.2-.2h0c.1-.1.2-.2.2-.3l.2-.2.5-.6,2.1-2.8,2-3a3.6,3.6,0,0,1,.7-1h0l.3-.5h0l1-1.7.9-1.7h0l.3-.5a5.9,5.9,0,0,1,.4-.8c0-.1,0-.1.1-.1l.3-.7a4.7,4.7,0,0,1,.5-1,11.7,11.7,0,0,1,.5-1.1l.6-1.4a10.8,10.8,0,0,0,.8-1.9,11.9,11.9,0,0,0,.8-2l.8-2,.3-1c.2-.8.5-1.6.7-2.5l.3-1.2c0-.2.1-.5.1-.7v-.6l.3-1.3c0-.5.1-.9.1-1.3h0c.1-.1.1-.1.1-.2s.1-1,.1-1.4a4.1,4.1,0,0,1,.1-1.1h0V400h0v-.5h0a3.4,3.4,0,0,0-.1-1v-.9h0a3.8,3.8,0,0,1-.1-1v-.3c0-.4-.1-.8-.1-1.1s-.1-.5-.1-.8V394a1.7,1.7,0,0,0-.1-.7V393c-.1-.3-.1-.6-.2-.9a.3.3,0,0,0-.1-.2c0-.2-.1-.5-.1-.7s-.1-.1-.1-.2h0a3.6,3.6,0,0,0-.2-1h0l-.3-.9h0c-.1-.2-.1-.4-.2-.6s-.3-1-.5-1.5h0c-.1-.2-.1-.4-.2-.5a1.4,1.4,0,0,0-.2-.6h0a18,18,0,0,0-.8-2.1,10.4,10.4,0,0,1-.4-1h0l-.9-2.1h0l-1.1-2-1-2.1a7.5,7.5,0,0,1-.7-1.2l-.5-.8-.2-.3c-.1-.3-.3-.5-.4-.8a.1.1,0,0,1-.1-.1l-.6-.9h0l-.3-.5-.7-1.2-.3-.4h0l-.2-.4-1.8-2.7,1.4-1,1.5-1.1h0l1.1-.8.4-.3h0l1.5-1.1,3.2-2.2h0l1-.8.6-.4h0l1.6-1.1h0l1-.7a18.8,18.8,0,0,1,2.3-1.6h0l1.7-1.2h0l1.2-.8.4-.3h0l1.7-1.2h0l.9-.5.8-.6h0l1.7-1.1h0l.4-.3,3-1.9L899,347l.4-.3,3.2-2,1.5-.9,1.6-1h0l3.3-1.9,3.4-2,.5-.2.5-.3.4-.2h0l1.5-.8.5-.3,2.5-1.3h0l.7-.3,1-.5,1.2-.5h0l3-1.3,1-.3,1-.4,1-.3h.1l1-.3h.8l.7-.2.9-.2.9-.2h.5l1-.2h2.1l1.4-.2h0c.1,0,.2,0,.2-.1h1.6l1.5-.2h11c3,.2,6,.5,8.8.9h2.4l1.6.3h.3l.8.2h.3l1.1.2,1.1.2.7.2h.7l.6.2h.7l.6.2h.7l.6.2h.6l.6.2h.5l.7.2h.4l1.6.4h.3l.6.2h.3l.6.2h.9l.6.2.6.2h.6l1.2.4h.2l51,11.4h0l17.4,49.7h0s.3,6.7.3,16.3a20.9,20.9,0,0,1-.1,2.5v3.9a6.6,6.6,0,0,1-.1,1.4V424a19.3,19.3,0,0,0-.1,2.4h0a24.4,24.4,0,0,0-.1,2.7h0c-.1,1-.1,2-.2,2.9s-.1,1.9-.2,2.9-.1,2.1-.2,3.1-.1,1.4-.2,2-.1.6-.1.9h0a21.1,21.1,0,0,0-.2,2.5c-.2,1.2-.3,2.4-.5,3.6h0l-.3,2.1a1.9,1.9,0,0,1-.1.8,17.2,17.2,0,0,1-.4,2.4,5.1,5.1,0,0,1-.2,1.3c-.3,1.9-.7,3.7-1.1,5.4s-.3,1.2-.4,1.8a10.3,10.3,0,0,1-.4,1.4c0-.1.1-.1.1-.2l.3-.4.3-.4c0-.1.1-.1.1-.2l.4-.6.2-.4a7.5,7.5,0,0,0,.7-1.2l.3-.5.8-1.3.8-1.6.4-.9a.4.4,0,0,0,.1-.3,1.6,1.6,0,0,0,.4-.7l.3-.7.8-1.6a3.6,3.6,0,0,1,.4-.9h0c.7-1.7,1.5-3.5,2.3-5.6a10.4,10.4,0,0,0,.4-1l.6-1.5.6-1.6c.8-2.2,1.6-4.5,2.4-7l.6-.9.6-.8,2-2.1.7-.6.7-.6.7-.6.7-.6a4.7,4.7,0,0,1,1.2-.9l1.3-.9,1.3-.8.9-.5,1.1-.5h0l1.3-.6.7-.3,2.1-.6h2.3a8.1,8.1,0,0,1,2.2,0h.2l1.5.2h.5l1,.3h.3l1.1.4.5.3,1,.5.9.7.5.3.5.4.4.4.5.4.4.5.4.5.9,1.1.4.5.8,1.3.3.5.2.3.3.5a2.5,2.5,0,0,0,.4.7l.7,1.6h0c.3.8.7,1.7,1,2.6l.5,1.4.3,1.1a.7.7,0,0,1,.1.5,29.9,29.9,0,0,1,.9,3.2c.1.6.3,1.2.4,1.8l.3,1.9c.1.3.1.7.2,1a5,5,0,0,0,.2,1.2v.7c.1.3.1.7.2,1s.1,1.1.1,1.6a4.9,4.9,0,0,1,.1,1.2,4.5,4.5,0,0,0,.1,1.1v1.2a46.8,46.8,0,0,1-.5,8.5,68.3,68.3,0,0,1-1.3,6.8c-.2.5-.3,1-.5,1.5s-.3,1-.4,1.4-.2.3-.2.5a6.1,6.1,0,0,1-.5,1.2,8.8,8.8,0,0,1-.5,1.5l-.8,1.8a5.9,5.9,0,0,1-.4.8l-.8,1.7-.7,1.3c0,.1-.1.1-.1.2a4.1,4.1,0,0,0-.5.9l-.3.4-.6,1.1-.8,1.2-.5.7-.7,1.1-.8,1.1-1.3,1.7c-1.5,1.8-2.9,3.5-4.4,5l-1.8,1.8-1.7,1.6-1.4,1.1a26.1,26.1,0,0,1-2.8,1.7l-.6.3-.5.3-1.2.4-.6.2-.6.2h-.6l-.6.2-1.6.3H1065a15.3,15.3,0,0,1-3.7-.2l-1.4-.2-1.3-.4h-.1l-1.3-.4-1.3-.6-1-.5-.5-.2-.4-.3-.6-.4h0c-.5,1.7-.9,3.4-1.4,5.1a22.5,22.5,0,0,1-.8,2.4c-.5,1.6-1.1,3.2-1.7,4.7a24.4,24.4,0,0,1-1,2.4l-1,2.2h-.1a20,20,0,0,1-1,2.1,22.6,22.6,0,0,1-1.1,2.2l-1.2,2.1a11.8,11.8,0,0,1-1.1,1.9l-1.2,1.9-.8,1.2a3.6,3.6,0,0,1-.7,1,26.2,26.2,0,0,1-2.4,3.4l-.8,1.1a11.3,11.3,0,0,0-1,1.3h0a14.9,14.9,0,0,0,.2,2.1l.3,2.1a16.4,16.4,0,0,0,.2,2.2l.6,4c.2,1.8.5,3.7.8,5.7v.2h0l.6,3.6.6,4c.2,1,.3,1.9.5,2.8l.3,2.2c.3,1.1.5,2.3.7,3.4s.3,1.6.4,2.4.3,1.4.5,2.1a15.5,15.5,0,0,0,.4,2.1h0l.3,1.3.6,2.6c25.4-16.1,25.7-43.4,24.7-54.7,2,8.3,4.4,26-7.3,40.9-6.3,8-8.1,14.7-8.1,19.7a17.3,17.3,0,0,0,.6,4.7,16.2,16.2,0,0,0,1.7,4.4,16.8,16.8,0,0,0,3.2,4.2l.6.2a.5.5,0,0,0,.5-.3.7.7,0,0,0-.1-1.1,12.3,12.3,0,0,1-2.5-3.2h-.1a17.2,17.2,0,0,1-2.4-9.5c.2-4.8,2.1-10.9,7.9-18.2,14.6-18.7,7.8-41.7,6.3-46.3,6.1,3,38.7,16.8,60.9-14.5,15.1-21.4,6.3-43.6-2.7-57.6q-1.2-1.9-2.4-3.6l-.7-1.1-3-3.8,2.5.7a48.3,48.3,0,0,1,8.4,3.1,57.5,57.5,0,0,1,7.5,4.3l1.4,1,1,.8.9.8,1.2,1h0c7.3,6.7,13.3,16.9,14.2,32.3,1.7,30.1-18.6,42.4-31.5,47.1C1142.3,524.9,1172.3,509.4,1163.2,472.9ZM864.6,272.2a241,241,0,0,0-32.9,8.2l-.3-1.6a79.3,79.3,0,0,1-.7-8.4,47.3,47.3,0,0,1,.4-8.4,35.9,35.9,0,0,1,1.9-8,3.6,3.6,0,0,1,.4-.9l.4-1,1-1.7.6-.8.6-.8.6-.8.3-.3.4-.4.7-.6.8-.6a9.1,9.1,0,0,1,1.7-.9l.9-.4.9-.3,1-.2.4-.2h.5a19.9,19.9,0,0,1,8,.6,13.9,13.9,0,0,1,1.9.6l2,.7,1.8.8,1,.4.9.5,3.8,1.9,1,.4,1,.5,2,.8,2,.8,1,.4,1.1.3,2,.6,2.1.6a69.2,69.2,0,0,0,14.2,1.9C881.2,263.5,873.6,270.4,864.6,272.2Zm152.8-18.1c-10.5-9.6-30.2-22.6-61.7-24.2,10.3-2.5,29.2-5.2,44.5,3.8,6.7,3.9,12,7.6,16.7,10.9s7.8,5.4,11.6,7.7A98.8,98.8,0,0,0,1017.4,254.1Zm75.1,21.3c-.9-1.4-1.8-2.8-2.8-4.1a35.6,35.6,0,0,1,15.9,23.4c1.9,9.3,3,22.5,3.7,34.8a48.7,48.7,0,0,0-6.6-.4C1103.6,317.7,1103.7,294.1,1092.5,275.4Z"/><path class="cls-6" d="M921.3,488.5s16.7-6.7,21.4,0S922.9,516.6,921.3,488.5Z"/><path class="cls-9" d="M1226.2,940.1c-.4,63.4-44.7,246.6-67.8,338.2h-.1l-.3,1.5h0l-.6,2.3c-.1.1-.1.3-.2.5h0c-.4,1.5-.7,2.9-1.1,4.3h0c-.2.9-.5,1.8-.7,2.7l-.3,1.2-.3,1.4a19.7,19.7,0,0,0-.7,2.6h0a2.9,2.9,0,0,0-.2.9c-.1.1-.1.3-.2.5s-.1.4-.1.6a3.1,3.1,0,0,0-.2.8l-.3,1v.3l-.9,3.3v.3l-.3,1.2-.3,1.1a2.4,2.4,0,0,1-.2.8.8.8,0,0,1-.1.4,19.7,19.7,0,0,1-.7,2.6,18.9,18.9,0,0,0-.5,2.3,7.4,7.4,0,0,0-.4,1.4c-.3,1-.5,1.9-.7,2.9a6.5,6.5,0,0,0-.4,1.3c0,.2-.1.3-.1.4a2.9,2.9,0,0,0-.2.9.6.6,0,0,0-.1.4l-.6,2c-.2.8-.4,1.6-.5,2.2a10.3,10.3,0,0,0-.4,1.4,1.4,1.4,0,0,1-.2.6c0,.2,0,.3-.1.4s-.1.4-.1.6v.3h0a.3.3,0,0,1-.1.2,1.4,1.4,0,0,1-.2.7,3,3,0,0,1-.2,1,.8.8,0,0,0-.1.4v.2c0,.2-.1.3-.1.5a3.1,3.1,0,0,0-.2.8.6.6,0,0,0-.1.4.3.3,0,0,1-.1.2h0v.2a.4.4,0,0,0-.1.3h0a.4.4,0,0,0-.1.3c0,.1-.1.2-.1.3h0l-1.4.8-.7.4h0l-2.7,1.5-1.7.9-1.3.6c-2.1,1-4.7,2.2-7.6,3.3l-6.7,2.4-.9.2h0l-1.6.5-1,.2-1,.3-1.4.3h-.6l-2.7.6h-.1l-1.3.2h-7.3a43.7,43.7,0,0,1-11.4-1.1l-1-.3h-1l-.6-.2h-.5l-.5-.2h-.1l-1.5-.6h-.1l-2.8-1.3h-.1l-1.5-.8-3.8-2.3-1.8-1.2-1.7-1.2-.3-.2-1.3-.9h-.2l-3-2.4-.9-.8h-.2l-.6-.5-.7-.6-1.2-1-.6-.6-.6-.6-.7-.6-.2-.2-1-1-1-1h0l-.2-.2-.2-.3a2.3,2.3,0,0,1-.7-.7l-.2-.2-.5-.6h-.2l-.2-.3h-.1a43.7,43.7,0,0,1-3.6-4.4l-.4-.4h0l-.6-.7-.5-.8-.4-.6-.5-.7a38.5,38.5,0,0,1-2.2-3.5l-.9-1.4h0c-.1-.2-.1-.4-.2-.5a3.6,3.6,0,0,0-.5-.9v-.2c0-.1,0-.2-.1-.2l-.3-.7-.3-.5h0a.4.4,0,0,0-.1-.3,1,1,0,0,0-.1-.3h0v-.2h.1a4.3,4.3,0,0,0,.1-.5v-.2h0a.4.4,0,0,1,.1-.3h0c.1-.2.1-.5.2-.7h0a.1.1,0,0,0,.1-.1h.1v-.5h0c.1-.2.1-.4.2-.5v-.3h0a.4.4,0,0,0,.1-.3h.1v-.2h0c0-.1.1-.1.1-.2a2.9,2.9,0,0,1,.2-.9.1.1,0,0,1,.1-.1c0-.2.1-.4.1-.6s.1-.3.1-.4l.3-.9c.2-.7.3-1.3.5-2l.3-1c.1-.2.1-.4.2-.6s.6-2.3,1-3.6.1-.4.1-.6.5-1.9.8-2.9l.3-1a11.7,11.7,0,0,0,.5-2l.6-2.2.6-2.1.6-2.1c.1-.2.1-.5.2-.8l.6-2.1a3.1,3.1,0,0,0,.2-.8l.6-2.3.3-.8.6-2.3a25,25,0,0,0,.7-2.6c.5-1.9,1.1-3.8,1.6-5.8s.5-1.8.8-2.7a18.2,18.2,0,0,1,.7-2.5c.4-1.6.9-3.3,1.3-5a23.3,23.3,0,0,0,.7-2.5l.3-1.1c.3-.9.5-1.8.8-2.8l.3-1c.2-1,.5-1.9.7-2.9l.3-1c.5-1.6.9-3.3,1.4-4.9l.3-1.1c4.2-15.3,8.7-32,13.3-48.8,1.4-5,2.8-10,4.1-15l.3-1c1.4-5,2.7-10,4.1-15,.8-2.9,1.6-5.8,2.3-8.7l1.2-4.3,1.2-4.2c.5-2,1-4,1.6-5.9a3,3,0,0,1,.2-1c.7-2.4,1.3-4.8,2-7.1a28.1,28.1,0,0,1,.8-3.1l1.5-5.5c.3-1.3.7-2.6,1-3.9s.7-2.6,1-3.8l1.2-4.2c.1-.6.3-1.2.4-1.8s.3-.8.4-1.2a12.4,12.4,0,0,1,.4-1.6,2.9,2.9,0,0,0,.2-.9l.3-1,.6-2.1-4.4-.5H1103l-6.9-.7-2.9-.3-2.3-.2h-.4l-2-.2-3.9-.4H1083l-1.7-.2h0l-5.1-.4h0l-5.3-.4h-.9l-2.8-.2h0l-2.8-.2-12.9-.9-4.2-.3h-2.1l-3.5-.2h-.9l-4.3-.3h-.1l-4.4-.2-4.8-.3-7-.4h-.2l-4.8-.2-5-.3-5.1-.2-5.3-.2-4.6-.2-9.6-.4-4.9-.2-6.8-.2H813.4a1.1,1.1,0,0,1,.2-.4s-6.2-28.8-8.3-46.3a39.1,39.1,0,0,1,.1-7.6c1.9-18,12.7-52.2,12.5-116.7h0c-.1-11.2-.4-23.3-1.3-36.3-.2-4.4-.4-8.7-.5-12.9-1.1-33.3,2.1-60.3,6.6-81.3a20.5,20.5,0,0,1,.5-2.4l-30.3,6.7-13.8,3-158,34.9s-28.9-.8-46.2-4c0,0-10.5-25.5-12.9-45.3a56.9,56.9,0,0,1-.4-9.9v-.3c1.6-19.6,153.7-232,153.7-232a149.3,149.3,0,0,0,4-23.9c.1-2.8,3.8-3.4,9.3-2.4l2.6.5,1.9.4,1,.3,2,.6,2.1.6,2.1.8,1.1.4h0l4.5,1.7,1.2.5,2.4,1,1.1.6h0l1.2.5,1.2.6,1.2.5,1.2.6h0l2.4,1.2,1.2.7h0l2.4,1.2,2.4,1.4,1.9,1.1.4.3h0l1.9,1.1.4.3,2.3,1.4,1.1.8,1,.6,3.3,2.4,1,.8,2,1.5,1,.8,1.8,1.6h0l1.8,1.6h0l.8.8.8.8,1.6,1.6h0l2.6,3.1c0,.1.1.2.1.3l.5.7a2.2,2.2,0,0,1,.5.8,2.2,2.2,0,0,1,.5.8,3.5,3.5,0,0,1,.5.8l.4.8h0c.4.9.8,1.7,1.1,2.5,7.6,23.5-8,21.2-15.8,36-3.6,6.8-21.7,37.4-40.3,68.5l-9.9,16.5h0l-16.3,27.3c6.9-1.9,14.1-4.4,21.5-7.2h.1l3.6-1.4,3.7-1.5a.1.1,0,0,0,.1-.1c3.7-1.5,7.4-3,11.1-4.7l7.6-3.3,3.7-1.8,7.5-3.5,3.2-1.6,3.1-1.5,3.1-1.6,3.3-1.6,5.9-3.1,3.1-1.6,3-1.6,4.6-2.5,9.1-4.9,4.3-2.5,3.6-2,3.5-2,1.3-.7,1.2-.7.8-.5,3-1.7,2.1-1.2,6.1-3.6a9.5,9.5,0,0,1,1.7-1l14.3-8.8,1.9-1.1.8-.4.7-.3.9-.4a30.6,30.6,0,0,1,5.8-2l1.1-.3h.1l1-.2h1.4l1.2-.2,2.4-.2a31.4,31.4,0,0,1,5.3.3l40,4.6,8.1.9h.6l-1-5.9-1-6.7a12.4,12.4,0,0,1-.3-2.7,2.8,2.8,0,0,1,.1-.9v-.8a16.1,16.1,0,0,1,1.3-4.9l.5-1.2.4-.6.3-.6,1.2-1.6.4-.5.4-.5.5-.4a8.1,8.1,0,0,1,1-.9l.5-.4a1,1,0,0,1,.5-.4l1.2-.8,1.1-.6.5-.2.9-.4.4-.2.7-.2h.3l1.3-.3a18.4,18.4,0,0,1,4.1-.4h.6l4.8.3a392.9,392.9,0,0,0,47.9.4l5.7-.3,4.7-.4h1.7l5.5-.6,4.7-.5,2.3-.3,2.3-.4,4.3-.6,3.8-.7h.4l3.9-.7,2.7-.6,3.2-.7,3.7-1a9.8,9.8,0,0,0,2.3-.6l3.8-1.1h.3l1.1-.4,6.1-2,1.5-.6.9-.4.8-.3.8-.2.7-.2,1.9-.3h5.1l.9.2h.5l.7.2,1.2.4,2,.8.6.3.4.3.7.4a11.8,11.8,0,0,1,2.5,1.9l.6.5.6.6.7.8,1.7,2.4.4.9a4.1,4.1,0,0,1,.5.9,10.4,10.4,0,0,0,.4,1l.3,1c.2.5.3,1.1.5,1.6s.1.6.1.9c1.7,10.4,2.7,23.1.8,35.6l6.3,2.2,109.7,39.1a21.1,21.1,0,0,1,14,17.9C1214.3,735.5,1226.6,868.5,1226.2,940.1Z"/><path class="cls-10" d="M1149.2,1488.7a40.5,40.5,0,0,0-1.1,4.1l-.9,3.3c-.2.9-.3,1.7-.5,2.5s-.9,3.5-1.3,5.4c-1,4.7-2,9.8-3.1,15.2l-.6,3.4c-1.6,8.6-3.2,17.9-4.7,27.8-.3,1.7-.6,3.5-.8,5.2l-1.5,9.5c-.3,2.5-.7,5.1-1.1,7.6s-.4,3.4-.7,5.2-.3,2.5-.5,3.7-.5,3.9-.8,5.8l-46.5,29.9c7.9-59.2,13.8-105.7,13.8-105.7a207.4,207.4,0,0,1-20.8,8.2h0a175.9,175.9,0,0,1-50.3,9.2h0a94.6,94.6,0,0,1-16.5-.7l.8-155.3,27.9-52.6-1.6-20.7,43.8-182.4s-48.4-.7-106.2-2c-62.9-1.5-136.9-3.9-172.3-7.2h.1l9.4-25.2.2-.4H973.9l6.8.2,4.9.2,9.6.4,4.6.2h2.7l10.2.5h2.5l4.8.2h.2l4.7.3,9.3.5h2.3l4.3.3h.9l3.5.2h2.1l2.1.2,15.9,1.1h1.9l2.8.2,2.7.2,1.7.2,3.5.3,3.4.2h3.3l1.6.2,2.3.2,2,.2h1.9l1.5.2,2.2.2,6.3.6h3.9l1.2.2h1.3l-.6,2.1-.3,1c-.1.3-.1.6-.2.9l-.3,1c0,.2-.1.4-.1.6s-.3.8-.4,1.2-.3,1.2-.4,1.8l-1.2,4.2c-.3,1.2-.6,2.5-1,3.8s-.7,2.6-1,3.9l-1.5,5.5a28.1,28.1,0,0,0-.8,3.1c-.7,2.3-1.3,4.7-2,7.1a3,3,0,0,0-.2,1c-.6,1.9-1.1,3.9-1.6,5.9l-1.2,4.2-1.2,4.3c-.7,2.9-1.5,5.8-2.3,8.7-1.4,5-2.7,10-4.1,15l-.3,1c-1.3,5-2.7,10-4.1,15-4.6,16.8-9.1,33.5-13.3,48.8l-.3,1.1c-.5,1.6-.9,3.3-1.4,4.9l-.3,1c-.2,1-.5,1.9-.7,2.9l-.3,1c-.3,1-.5,1.9-.8,2.8l-.3,1.1a23.3,23.3,0,0,1-.7,2.5c-.4,1.7-.9,3.4-1.3,5a18.2,18.2,0,0,0-.7,2.5c-.3.9-.5,1.8-.8,2.7s-1.1,3.9-1.6,5.8a25,25,0,0,1-.7,2.6l-.6,2.3-.3.8-.6,2.3a3.1,3.1,0,0,1-.2.8l-.6,2.1c-.1.3-.1.6-.2.8l-.6,2.1-.6,2.1-.6,2.2a11.7,11.7,0,0,1-.5,2l-.3,1c-.3,1-.5,2-.8,2.9s-.1.4-.1.6-.7,2.5-1,3.6-.1.4-.2.6l-.3,1c-.2.7-.3,1.3-.5,2l-.3.9c0,.1-.1.2-.1.4s-.1.4-.1.6a.1.1,0,0,0-.1.1,2.9,2.9,0,0,0-.2.9c0,.1-.1.1-.1.2h0v.2h-.1a.4.4,0,0,1-.1.3v.4c-.1.1-.1.3-.2.5h0c0,.1-.1.1-.1.2v.2h-.1a.1.1,0,0,1-.1.1h0c-.1.2-.1.5-.2.7h0a.4.4,0,0,0-.1.3h0v.2a4.3,4.3,0,0,1-.1.5h-.1v.2h0a.4.4,0,0,1,.1.3.4.4,0,0,1,.1.3h0l.3.5.3.7a.3.3,0,0,1,.1.2v.2a3.6,3.6,0,0,1,.5.9c.1.1.1.3.2.5h0l.9,1.4a38.5,38.5,0,0,0,2.2,3.5l.5.7a2.1,2.1,0,0,0,.4.6l.5.8.6.7h0l.4.4a43.7,43.7,0,0,0,3.6,4.4h.1l.2.3h.2l.5.6.2.2a2.3,2.3,0,0,0,.7.7l.2.3.2.2h0l1,1h0l1,1,.2.2.7.6.6.6.6.6,1.2,1,.7.6.6.5h.2l.9.8,1.7,1.4,1.3,1h.2l1.3.9h0l.3.2,1.7,1.2,1.8,1.2h.2l.4.2a5.7,5.7,0,0,0,1.3.8l1.9,1.2,1,.6h.4a.1.1,0,0,0,.1.1h.2l1.2.6h.2l.9.3.4.2h.1l.5.2,1,.4h.1l.5.2h.5l.6.2h1l1,.3a43.7,43.7,0,0,0,11.4,1.1h7.3l1.3-.2h.1l2.7-.6h.6l1.4-.3,1-.3,1-.2,1.6-.5h0l.9-.2,6.7-2.4c2.9-1.1,5.5-2.3,7.6-3.3l1.3-.6,1.7-.9,2.7-1.5h0l.7-.4,1.4-.8h0c0-.1.1-.2.1-.3v-.2h.1a.4.4,0,0,1,.1-.3v-.2h0a.3.3,0,0,0,.1-.2.6.6,0,0,1,.1-.4,3.1,3.1,0,0,1,.2-.8c0-.2.1-.3.1-.5v-.2a.8.8,0,0,1,.1-.4,3,3,0,0,0,.2-1,1.4,1.4,0,0,0,.2-.7.3.3,0,0,0,.1-.2h0v-.3c0-.2.1-.4.1-.6v-.2c0-.2.1-.4.1-.6s.1-.1.1-.2a10.3,10.3,0,0,1,.4-1.4,19.4,19.4,0,0,1,.5-2,.4.4,0,0,1,.1-.3v-.2c.2-.5.3-1.1.5-1.7a963348047880.3,963348047880.3,0,0,0,.2-.8c.1-.3.1-.6.2-.9a6.5,6.5,0,0,1,.4-1.3c.2-1,.4-1.9.7-2.9a7.4,7.4,0,0,1,.4-1.4,18.9,18.9,0,0,1,.5-2.3,19.7,19.7,0,0,0,.7-2.6.8.8,0,0,0,.1-.4,2.4,2.4,0,0,0,.2-.8c.1-.5.3-1,.4-1.5s.1-.5.2-.8v-.3l.9-3.3v-.3l.3-1.3.2-.5c0-.2.1-.4.1-.6h.1c0-.2,0-.3.1-.4a2.9,2.9,0,0,1,.2-.9h0a19.7,19.7,0,0,1,.7-2.6l.3-1.4.3-1.2.2-.8.3-.9a3,3,0,0,1,.2-1h0a8.3,8.3,0,0,0,.4-1.5c.2-.9.5-1.8.7-2.8h0c.1-.2.1-.4.2-.5l.6-2.3h0l.3-1.5h0C1160.6,1353.3,1160.6,1446.9,1149.2,1488.7Z"/><path class="cls-5" d="M1129.2,1339.3c-.3,32.3-7.8,97.7-7.8,97.7s-.5,1.2-1.3,3.4c-6.1,14.9-30.7,74-43.5,80.4-14.8,7.4-49.6,14-49.6,14l9.7-69.4,1-6.9-.9-11.5c-1.2,7.4-3.6,18.9-7.1,22.9-5.4,6-14.1,0-14.1,0,6-14.8,6.7-85.8,6.7-85.8l33.1-69.7c4.7,7,13.4,17.1,28.1,25.5S1116.6,1344.2,1129.2,1339.3Z"/><path class="cls-6" d="M1120.1,1440.4c-6.1,14.9-30.7,74-43.5,80.4-14.8,7.4-49.6,14-49.6,14l9.7-69.4,9-14.1.4-62,12.4,65.7Z"/><path class="cls-11" d="M921.3,627.5l-44.4,5.6L722.3,704.9c-25.8,49.9-61.2,62.5-62.3,62.9,28.5-19.3,50.8-72.6,50.8-72.6C760.1,681,825.2,642.3,850,626.9a34.6,34.6,0,0,1,22.6-5Z"/><path class="cls-11" d="M1079.4,598.2a18.4,18.4,0,0,0-24.6-14.2c-37.7,14.6-89,13.5-117.6,11.4a16.8,16.8,0,0,0-17.9,19.5l1,6.7,1,14.9a54.1,54.1,0,0,0,31.9,17.6s-22.9-12-26.4-20.5-3.6-21.4-.8-27,12.3-.8,48.8,1.2,88-22.5,93.3-11a29.9,29.9,0,0,1,2.2,7.9,42.8,42.8,0,0,1-30.3,47.4,152,152,0,0,1-41.4,5.7c56.5,6.9,81.6-24,81.6-24C1082.1,621.3,1081.1,608.6,1079.4,598.2Z"/><path class="cls-11" d="M1119.2,1052.4c-1.8,7.6-5.6,22-10.4,40.3-18.6-3.4-54.8-5.7-95.6-7.2h-.1l-32.3-1.8c-53.2-2.5-114.6-4-167.4-1.3a1.1,1.1,0,0,1,.2-.4s-6.2-28.8-8.3-46.3a39.1,39.1,0,0,1,.1-7.6c50.6,7.3,118.4,16.1,175.9,23.4,64.4,8.1,115.9,14.3,115.9,14.3l11.6-39.5,8.6-159.1L1092,785.9l26.7,58.6,4.7-87.5S1128.4,1014.1,1119.2,1052.4Z"/><path class="cls-11" d="M843.7,726.1c-14.4,20.9-20.5,52.4-20.5,52.4l-30.3,6.7,33.9-49.6Z"/><g class="cls-12"><path class="cls-13" d="M824,1634.7c0,46.1-20.8,84.6-55.5,105.9-22-2.7-35.2-4.5-35.2-4.5V1693s.7-80.5,4.4-177.3C790.3,1529.8,822.9,1575.3,824,1634.7Z"/><path class="cls-13" d="M981.3,1012.9c-4.3-85.7-57-161.7-165.2-189.3.1,4.2.3,8.5.5,12.9.9,13,1.2,25.1,1.3,36.2h0c.2,64.5-10.6,98.7-12.5,116.7a38.2,38.2,0,0,0-.1,7.5c2.1,17.5,6.2,51.3,4.5,55.7s-3.6,9.7-6,16.7h-.1c-10.3,29.6-27.1,84.5-42.7,164.3-9.7,50.1-16.1,132.3-20.3,213.4h56.1v-24.4c-1.3-61.2,19-114.2,69.3-169.9,42.4-46.9,93.1-101.1,109.9-176.3a233.4,233.4,0,0,0,4.7-31c0-.2.1-.3.1-.5.5-6.7.8-13.5.8-20.5Q981.6,1018.8,981.3,1012.9Z"/></g><path class="cls-14" d="M667.2,1531.7a144.6,144.6,0,0,0-17.6,1.1c63,7.9,102.9,56.7,104.2,122.6S712.8,1770,649.5,1778a145,145,0,0,0,17.7,1.1c73.4,0,122.3-53,122.3-123.7S740.6,1531.7,667.2,1531.7Zm279.9-486.5c0-112.8-81.5-212-260.9-212-6.1,0-12.2.1-18.2.4,167.2,6.2,243.4,102.6,243.4,211.6,0,103.3-63.8,171.3-115.5,228.3s-70.7,108.8-69.3,169.9v24.5h35.7v-24.5c-1.4-61.1,19-114.1,69.3-169.9S947.1,1148.5,947.1,1045.2Z"/><path class="cls-14" d="M619,997.4c-39.9,4-83.6,18.9-113.5,39.7H469.8a199.2,199.2,0,0,1,30.3-17.1c32.2-14.7,70.8-23.7,104.2-23.7C609.4,996.5,614.3,996.9,619,997.4Z"/><path class="cls-15" d="M753.8,1655.4c0,64.7-41,114.6-104.3,122.6a150,150,0,0,1-18,1.1c-72.1,0-121-53-121-123.7s50.3-123.7,121-123.7a151.7,151.7,0,0,1,18.1,1.1C712.6,1540.7,752.5,1589.5,753.8,1655.4Z"/><path class="cls-15" d="M795.9,1273.5c-50.3,55.8-70.7,108.8-69.3,169.9v24.5H545.9l-1.4-35.4c-4.1-69.3,19-139.9,80.2-213.3,43.5-51.7,78.8-95.1,78.8-141.3,0-44-26.7-74.1-84.5-80.5-4.7-.5-9.6-.9-14.7-1.1-33.4,0-72,9-104.2,23.7a199.2,199.2,0,0,0-30.3,17.1L423.6,889c48.9-28.6,130.4-55.8,226.9-55.8,5.9,0,11.8.1,17.5.4,167.2,6.2,243.4,102.6,243.4,211.6C911.4,1148.5,847.6,1216.5,795.9,1273.5Z"/></g></g></svg>