<svg id="Illustration" xmlns="http://www.w3.org/2000/svg" viewBox="0 0 1566.6 1508.2"><defs><style>.cls-1{fill:#dfe6ff;}.cls-1,.cls-10,.cls-11,.cls-12,.cls-13,.cls-14,.cls-15,.cls-16,.cls-17,.cls-18,.cls-19,.cls-2,.cls-20,.cls-21,.cls-3,.cls-4,.cls-5,.cls-6,.cls-7,.cls-8,.cls-9{fill-rule:evenodd;}.cls-2{fill:#ead6b5;}.cls-3{fill:#c7e9f4;opacity:0.5;}.cls-4{fill:#1484ac;}.cls-5{fill:#fff;}.cls-6{fill:#000064;}.cls-7{fill:#66c7f4;}.cls-8{fill:#6767fd;}.cls-9{fill:#9999fe;}.cls-10{fill:#aaaad6;}.cls-11{fill:#039;}.cls-12{fill:#ccccfe;}.cls-13{fill:#153663;}.cls-14{fill:#ff9866;}.cls-15{fill:#62cbec;}.cls-16{fill:#ffaa81;}.cls-17{fill:#101054;}.cls-18{fill:#0643a3;}.cls-19{fill:#2c7efe;}.cls-20{fill:#dfcffd;}.cls-21{fill:#be96f8;}</style></defs><title>hastag</title><path class="cls-1" d="M1458.2,1679.2c370.4,0,672.6-21.8,672.6-48.7s-302.2-48.6-672.6-48.6-672.6,21.9-672.6,48.6,302.1,48.7,672.6,48.7Z" transform="translate(-660.9 -171.1)"/><path class="cls-2" d="M1461.1,1630.6c371.9,0,675.3-327.8,675.3-729.7S1833,171.1,1461.1,171.1,785.9,498.9,785.9,900.9s303.4,729.7,675.2,729.7Z" transform="translate(-660.9 -171.1)"/><path class="cls-3" d="M1256.7,1327.6c-19.2,13.7-106.8,116.4-430.7-28.7-127.1-57-201.3-144.5-147.2-250.5,74-144.7,120.9-169.7,69.4-308.6-30-80.7-178.8-398.7,287.8-404.9,214.2-2.9,244.5,162.5,632.3,25.9,644.9-227.1,741.9,967.5,239.4,974.2-207.2,2.8-334.8-14-577.3-21.2-13.8-.5-44.6-1.2-58.5,6.5Z" transform="translate(-660.9 -171.1)"/><path class="cls-4" d="M1109.3,441.9H1813a23.7,23.7,0,0,1,23.7,23.6V1597.7a23.8,23.8,0,0,1-23.7,23.7H1109.3a23.8,23.8,0,0,1-23.7-23.7V465.5a23.7,23.7,0,0,1,23.7-23.6Z" transform="translate(-660.9 -171.1)"/><path class="cls-5" d="M1150.5,543.1h621.3a21,21,0,0,1,20.9,20.9v863.7a21,21,0,0,1-20.9,21H1150.5a21,21,0,0,1-20.9-21V564a21,21,0,0,1,20.9-20.9Z" transform="translate(-660.9 -171.1)"/><path class="cls-5" d="M1461.1,1590.2a54.8,54.8,0,1,0-54.7-54.8,54.9,54.9,0,0,0,54.7,54.8Z" transform="translate(-660.9 -171.1)"/><path class="cls-5" d="M1357.6,486h156.9a1.4,1.4,0,0,1,1.4,1.4v14.5a1.4,1.4,0,0,1-1.4,1.4H1357.6a1.5,1.5,0,0,1-1.5-1.4V487.4a1.5,1.5,0,0,1,1.5-1.4Z" transform="translate(-660.9 -171.1)"/><path class="cls-5" d="M1535.6,486h29.1a1.5,1.5,0,0,1,1.5,1.4v14.5a1.5,1.5,0,0,1-1.5,1.4h-29.1a1.4,1.4,0,0,1-1.5-1.4V487.4a1.4,1.4,0,0,1,1.5-1.4Z" transform="translate(-660.9 -171.1)"/><path class="cls-6" d="M1246.5,726.2l39.2.4c8,.1,15.9,6.6,17.4,14.4,6.6,32.9,13.2,65.5,19.6,98.1l98.1.6,97.9.6c-6.1-32.4-12.3-65-18.4-97.8-1.5-7.8,3.8-14.3,11.7-14.3l38.9.4c7.9,0,15.6,6.6,17,14.4,6,32.8,12.1,65.3,18.1,97.8,32.8.1,65.5.4,98.3.6,7.8.1,15.4,6.4,16.8,14.2,2.3,12.6,4.5,25.2,6.7,37.8,1.4,7.6-4,13.9-11.7,13.9l-97.9-.6,17.5,95c5.8,31.2,11.5,62.5,17.3,93.6l96.7.2c7.6,0,15.2,6.2,16.5,13.6l6.6,36.8c1.3,7.4-4,13.5-11.7,13.5h-96.3c5.7,31.1,11.4,62,17.1,92.9,1.3,7.3-3.7,13.3-11.4,13.3h-37.6c-7.6,0-15.1-6-16.5-13.3l-17.5-93H1387c6.2,31.1,12.5,62.2,18.7,93.1,1.4,7.4-3.6,13.4-11.4,13.4h-37.8c-7.7,0-15.3-6-16.9-13.3-6.2-31-12.6-62.1-19-93.2l-97.4-.2c-7.8,0-15.3-6.2-16.9-13.7-2.6-12.3-5.2-24.6-7.9-36.9-1.6-7.6,3.4-13.8,11.3-13.8l97.7.2c-6.3-31.3-12.8-62.7-19.2-94.2s-13-63.5-19.5-95.3l-99.1-.6c-7.9-.1-15.7-6.4-17.3-14.3q-4-18.9-8.1-38.1c-1.7-7.8,3.5-14.1,11.4-14.1l99.4.7q-9.9-48.9-20.1-98.2c-1.6-7.8,3.6-14.3,11.6-14.3Zm320.3,369-17.7-93.8c-6-31.5-11.9-63.2-17.9-95l-97.5-.5-97.6-.5c6.3,31.9,12.8,63.6,19,95.3s12.7,62.8,18.9,94.1h96.6l96.2.3Z" transform="translate(-660.9 -171.1)"/><path class="cls-7" d="M1272,726.2l39.2.4c8,.1,15.8,6.6,17.4,14.4,6.6,32.9,13.1,65.5,19.7,98.1l98,.6,97.9.6q-9.2-48.6-18.5-97.8c-1.5-7.8,3.8-14.3,11.7-14.3l38.9.4c7.9,0,15.6,6.6,17.1,14.4,6,32.8,12,65.3,18,97.8,32.8.1,65.6.4,98.3.6a17.9,17.9,0,0,1,16.8,14.2c2.3,12.6,4.6,25.2,6.7,37.8,1.4,7.6-4,13.9-11.7,13.9l-97.9-.6,17.5,95c5.8,31.2,11.6,62.5,17.3,93.6l96.8.2c7.7,0,15.2,6.2,16.5,13.6,2.1,12.3,4.3,24.6,6.5,36.8,1.3,7.4-4,13.5-11.6,13.5h-96.4c5.7,31.1,11.5,62,17.1,92.9,1.4,7.3-3.7,13.3-11.4,13.3h-37.5c-7.7,0-15.1-6-16.5-13.3l-17.6-93H1412.5c6.2,31.1,12.4,62.2,18.6,93.1,1.5,7.4-3.6,13.4-11.3,13.4H1382c-7.8,0-15.4-6-16.8-13.3q-9.6-46.5-19.1-93.2l-97.4-.2c-7.7,0-15.4-6.2-17-13.7l-7.8-36.9c-1.7-7.6,3.4-13.8,11.2-13.8l97.8.2c-6.4-31.3-12.9-62.7-19.3-94.2s-13-63.5-19.5-95.3q-49.5-.5-99-.6a18.7,18.7,0,0,1-17.4-14.3q-4-18.9-8.1-38.1c-1.6-7.8,3.5-14.1,11.4-14.1l99.5.7q-10.1-48.9-20.1-98.2c-1.7-7.8,3.6-14.3,11.6-14.3Zm320.2,369-17.6-93.8q-9-47.2-18-95l-97.4-.5-97.7-.5c6.4,31.9,12.8,63.6,19.2,95.3s12.6,62.8,18.9,94.1h96.5l96.1.3Z" transform="translate(-660.9 -171.1)"/><path class="cls-8" d="M901.7,847.9l-24.9-1.1c-8.3-.4-15,6.7-15,15h0a15,15,0,0,0,15,14.9h21.5Z" transform="translate(-660.9 -171.1)"/><path class="cls-9" d="M886.6,837.4l35.5,2.8c-8.9,23.5-12.3,53.4-12.2,69-4.2,9.4-14.9,11.4-23.3,10.3Z" transform="translate(-660.9 -171.1)"/><path class="cls-8" d="M893.3,919.6l9.4-80.7-16.1-1.5v82.1a18.8,18.8,0,0,0,6.7.1Z" transform="translate(-660.9 -171.1)"/><path class="cls-10" d="M877.5,846.8a19.3,19.3,0,0,0-6.1,14.1h0a18.8,18.8,0,0,0,8.5,15.8h18.4l3.4-28.9Z" transform="translate(-660.9 -171.1)"/><path class="cls-11" d="M873.7,795.4h29.6a27.1,27.1,0,0,1,27,27h0a27,27,0,0,1-27,27H873.7a27.1,27.1,0,0,1-27-27h0a27.1,27.1,0,0,1,27-27Z" transform="translate(-660.9 -171.1)"/><path class="cls-10" d="M792.4,733.7c21.7,24.4,56.8,54.5,90.2,61.3,21.9,3.3,23.3,45.3,0,54.5-84.4,17.2-119.9,92.7-90.2-115.8Z" transform="translate(-660.9 -171.1)"/><path class="cls-11" d="M785,893.9c24.6,0,44.7-36.9,44.7-82.3s-20.1-82.3-44.7-82.3-44.7,37-44.7,82.3,20,82.3,44.7,82.3Z" transform="translate(-660.9 -171.1)"/><path class="cls-10" d="M785,885.8c21,0,38.2-33.4,38.2-74.2S806,737.5,785,737.5s-38.3,33.2-38.3,74.1,17.2,74.2,38.3,74.2Z" transform="translate(-660.9 -171.1)"/><path class="cls-11" d="M824.4,802.6H799.9v25.1h24.5c.3-4.1.5-8.3.5-12.5s-.2-8.5-.5-12.6Z" transform="translate(-660.9 -171.1)"/><path class="cls-12" d="M800.6,827.7c4.2,0,7.6-5.7,7.6-12.5s-3.4-12.6-7.6-12.6-7.5,5.7-7.5,12.6,3.4,12.5,7.5,12.5Z" transform="translate(-660.9 -171.1)"/><path class="cls-11" d="M800.6,823.4c2.7,0,5-3.7,5-8.2s-2.3-8.3-5-8.3-4.9,3.7-4.9,8.3,2.1,8.2,4.9,8.2Z" transform="translate(-660.9 -171.1)"/><path class="cls-13" d="M1120.7,1578.8l12.7-20.8c5.5,4.3,10.9,8.8,16.4,13.2,17.2,5.2,19.3,23.3,19.7,30.3l-114.2,35.4c-18.8-27.5,43.7-38.7,65.4-58.1Z" transform="translate(-660.9 -171.1)"/><polygon class="cls-14" points="440 1350.2 478.3 1344.5 488.9 1400.1 459.8 1407.7 440 1350.2"/><path class="cls-13" d="M974.3,1601.8l18-16.6,12.1,17.3c15,9.8,12,27.8,10.5,34.6l-119.5,2.2c-10.5-31.5,52.6-25,78.9-37.5Z" transform="translate(-660.9 -171.1)"/><polygon class="cls-14" points="310.3 1369.8 348.7 1375.1 343.4 1431.4 313.4 1430.7 310.3 1369.8"/><path class="cls-14" d="M1008.9,1132.6l9.5,7.8c6.6,6.6,22.8,14.5,19.9,19.9-2.1,3.5-10.9-5.1-16.3-3.1-8.5,8.4,12.4,34.3,5.2,40.7-10.7,9.6-29.4,6.4-34.2-6.5-3-6.7,2.2-28.5,2.9-48.6Z" transform="translate(-660.9 -171.1)"/><polygon class="cls-14" points="352.8 792.3 310.9 793.6 309.6 862.1 337.4 980.8 359.4 978.1 344.9 864.7 352.8 792.3"/><polygon class="cls-13" points="383.2 932.4 337.6 966.2 306.6 1142.8 303.6 1387.9 354.7 1387.9 369.7 1151.8 431.4 945.9 383.2 932.4"/><polygon class="cls-13" points="352.1 921.4 445.3 963.4 444.9 1142.8 485.5 1366.8 438.9 1377.3 375 1151.8 352.1 921.4"/><path class="cls-15" d="M1060.6,889.3l-33.8,2.4c-56.5-1.3-58.5,72.8-61.3,88.2,16.5,11.6,28.3,7.4,33.7,8.8.5-16.5-3-35.1.2-34.5l-.9,183.1,107.8-2.8-5.7-156.4-.2-16.3c-8-62.7,22.9-58.8-10.7-67.1-9.6-2.3-12.4-3-29.1-5.4Z" transform="translate(-660.9 -171.1)"/><path class="cls-14" d="M1065.2,842.1l-38.5,10.7c.1,13.1.1,26.1.1,39.2,8.7,33.8,32,4.9,36.9-.2Z" transform="translate(-660.9 -171.1)"/><path class="cls-16" d="M1002.4,775.6c-11.4,10-2.9,26.2-15.6,38.1-25.9,24.2,4.5,14.5,4.5,22.9,0,19.8,4.3,22.8,16.6,40,5.9,8.1,42.3,17.2,61.9-20.6,4.5-8.8,4.2-13.4,4.2-32.1,0-39.8-2-44.1-40.5-60.9-24.7-10.8-41.5,4.8-31.1,12.6Z" transform="translate(-660.9 -171.1)"/><path class="cls-17" d="M1055.3,792.4c-15.7-7.7-43.2-3.3-52.9-16.8-9.4-10-36.8-13.9-27.9-30.1,5.7-10.5,17.8,0,26.6,0,5.7-3.2-8-14.6,5.7-19.4,21.9-8,36.4,28.3,59.1,24.3,5.6-1.7,6.4-15,13.7-8.9,14.6,6.4,11.3,40.9,16.9,61.4,6.6,16.2-15.1,24.9-22.7,37.4-14.4-14.8-7.9-42.3-18.5-47.9Z" transform="translate(-660.9 -171.1)"/><path class="cls-5" d="M1026.2,861.2c-9.1.8-15.7,4.1-26.4-.9,9.8,17.1,20.9,6.3,26.4.9Z" transform="translate(-660.9 -171.1)"/><path class="cls-14" d="M1086.7,979.8l37.1-10.9c4.1,22.6,0,66-12.5,66-18.5,7.6-108.3-65.7-197.4-122.4l12.3-18.7c53.4,26.8,150.7,86.8,160.5,86Z" transform="translate(-660.9 -171.1)"/><path class="cls-14" d="M926.2,893.8c-1.4-3.8-14.9-10.6-21.9-10.6-20,0-22.7-7.6-26,18.6-.4,3.4,3.3,17.4,7.6,17.9,20.8,2.3,15.7-3.8,34.5-3.1,3.7.1,12.7-21.6,5.8-22.8Z" transform="translate(-660.9 -171.1)"/><path class="cls-15" d="M1090.9,909.3c4.5-3.1,6.3-11.4,12.2-10.3,20.4,4.5,25.5,63.7,25.3,76.3-6.9,5.8-30.6,10.8-46,2.6Z" transform="translate(-660.9 -171.1)"/><path class="cls-18" d="M1917.6,1594.4l41.6,3.6c7.6,18.8,83.4,9.3,65.9,36-10.6,2.4-73.9,3.1-115.6,1.8-8-11.1-.4-31.6,8.1-41.4Z" transform="translate(-660.9 -171.1)"/><path class="cls-19" d="M1817.2,1593.2l41.6,3.6c7.5,18.9,83.4,9.3,65.9,36.1-10.6,2.4-74,3.1-115.6,1.8-8-11.1-.4-31.6,8.1-41.5Z" transform="translate(-660.9 -171.1)"/><path class="cls-20" d="M1848.6,977.8l47.6-13.9c10.7,19.7,28.4,74.2,32.3,109.6,3.2,16.7-13.4,83.5-23.1,127.3l-64.2-103.2Z" transform="translate(-660.9 -171.1)"/><path class="cls-13" d="M1844.3,1133.8l70.3,19c13.7,51.4,73.3,170.8,73.3,203.4l-26.2,243.5c-17.1,0-34.1.9-51.1.9l-3.2-232.5-30.5-72.3-16.8,302.5-49.3,3.1q-7.5-210.7-15-421.7Z" transform="translate(-660.9 -171.1)"/><path class="cls-6" d="M2057.7,998.1,2031,983.4a4.3,4.3,0,0,0-5.9,1.6l-29,52.7a4.4,4.4,0,0,0,1.7,5.9l26.8,14.7a4.3,4.3,0,0,0,5.7-1.7l29-52.7a4.1,4.1,0,0,0-1.6-5.8Z" transform="translate(-660.9 -171.1)"/><path class="cls-5" d="M2050.7,1002.7l-2.9-1.7a1.9,1.9,0,0,0-2.4.7l-1.1,2.1a1.6,1.6,0,0,0,.6,2.3l3,1.7a1.8,1.8,0,0,0,2.3-.7l1.2-2.1a1.7,1.7,0,0,0-.7-2.3Z" transform="translate(-660.9 -171.1)"/><path class="cls-14" d="M1975.1,1044.3l8.3-7.5c6.8-5.2,15.9-18.9,20.5-15.5,2.8,2.4-6,9.1-4.9,14.3,6.5,8.7,32.6-6.9,37.4.5,7.3,10.8,2.1,27.2-10.2,29.9-6.4,1.9-25.5-5.5-43.5-8.7Z" transform="translate(-660.9 -171.1)"/><polygon class="cls-14" points="1330.1 887 1323.9 867.3 1292.4 862.9 1288.9 885.7 1330.1 887"/><path class="cls-21" d="M1824.9,913l34.9,14.5c15,10,32.1,22.7,36.4,36.4l19.3,191.7c-23.5,33.8-67.2,34.6-119.7,25.7-7.9-69.2-17.3-160.6-25.1-229.8,4.3-23.4,23-39.7,54.2-38.5Z" transform="translate(-660.9 -171.1)"/><path class="cls-14" d="M1843.1,867.4l30,30.4c-4.7,10.9-9.3,21.9-14,32.8-15,18.6-28.8-2.7-35.3-14.9Z" transform="translate(-660.9 -171.1)"/><path class="cls-16" d="M1857.7,801.4c-2.1,4.1-4.1,8.3-5.9,12.7-19.8,47.3-15.6,94.1,9.3,104.5s61.1-19.5,80.9-66.8c1.9-4.4,3.5-8.8,4.9-13.2Z" transform="translate(-660.9 -171.1)"/><path class="cls-17" d="M1873.6,822.2c12.8-3,47.3,15.4,71,23,17.5-.5,41.3-6.9,45.3-29.9,1.5-33.3-48.6-13.5-68.8-25.6-17.5-22-52.4-9.1-58.9-5.4-23.9,15.3-21.6,45.4-21.8,69.8,18.8-4,18.8-29.2,33.2-31.9Z" transform="translate(-660.9 -171.1)"/><path class="cls-20" d="M1820.3,933.5c.7-25.2-31.1-16.3-43.2,1.7-15.1,25.3-15.8,65.6-3.7,84.9,26.9,33.2,157.7,41,194.2,41.1,6.7-8.1,8.3-15.4,2.5-27.2l-156.6-37.9c2.2-20.8,4.6-41.7,6.8-62.6Z" transform="translate(-660.9 -171.1)"/></svg>