<svg xmlns="http://www.w3.org/2000/svg" viewBox="0 0 2560 1440"><defs><style>.cls-1{fill:#1484ac;}.cls-2,.cls-3{fill:#fff;}.cls-2{fill-rule:evenodd;}.cls-4{font-size:50px;fill:#fcfcfc;font-family:MyriadPro-Regular, Myriad Pro;}.cls-5{letter-spacing:-0.02em;}.cls-6{letter-spacing:-0.02em;}.cls-7{letter-spacing:0.04em;}.cls-8{letter-spacing:-0.01em;}.cls-9{letter-spacing:0em;}</style></defs><title>kind_qoute</title><g id="BG"><rect class="cls-1" x="-34" y="-498" width="2663" height="2436"/></g><g id="Layer_2" data-name="Layer 2"><path class="cls-2" d="M615.6,376.6H707V909H615.6V890.8h14.6c-.3-13.7-.3-27.7.1-42,.5-17.2,1.5-34.8,3.1-52.7,5.1-56-2-86.5-17.8-104.8v-26c28.4,18.5,43.1,53.1,35.9,132.4-1.7,17.6-2.6,34.8-3.1,51.5h0c-.4,14.1-.4,28-.1,41.5h40.5V394.7H615.6V376.6Zm0,249.1a31.2,31.2,0,0,0,22.2-9.2,31.3,31.3,0,0,0,0-44.5h0a31.2,31.2,0,0,0-22.2-9.2v15.2a16.2,16.2,0,0,1,11.5,4.7h0a16.3,16.3,0,0,1-11.5,27.9v15.2Zm0-109.8a49.2,49.2,0,0,0,24.5-13.3,49,49,0,0,0,0-69,49.2,49.2,0,0,0-24.5-13.3V436a33.6,33.6,0,0,1,0,64.2ZM521.4,376.6h94.2v18.1H521.4V376.6ZM615.6,909H521.4V890.8h94.2V909Zm0-488.7V436a33.6,33.6,0,1,0,0,64.2v15.7a48.1,48.1,0,0,1-10.1,1,48.8,48.8,0,0,1,0-97.6,48.1,48.1,0,0,1,10.1,1Zm0,142.4v15.2a16.5,16.5,0,0,0-11.6,4.7h0a16.4,16.4,0,0,0,0,23.2h0a16.5,16.5,0,0,0,11.6,4.7v15.2a31.4,31.4,0,0,1-22.3-9.2h0a31.3,31.3,0,0,1,0-44.5h0a31.4,31.4,0,0,1,22.3-9.2Zm0,102.6v26c-16.2-18.7-41.5-24.4-71.9-31.3l-22.3-5.3V636c9.1,2.4,17.9,4.4,26.3,6.3,26.7,6.1,50,11.4,67.9,23Zm-94.2-82.9V567.2a16.4,16.4,0,0,0,11.6-4.8,16.6,16.6,0,0,0,4.8-11.6,15.9,15.9,0,0,0-4.8-11.5h0a16,16,0,0,0-11.6-4.8V519.3a31.4,31.4,0,0,1,22.3,9.2h0a31.6,31.6,0,0,1-22.3,53.8Zm-181-205.8h181v18.1h-181V376.6ZM521.4,909h-181V863.5c3,6.3,4,10.8,5.4,16.7.7,3,1.4,6.3,2.7,10.6H488c-.9-5.5-2-11.7-3.2-18.7s-3.1-18-5-28.7c-16.8-94.2-41.7-101.7-75.4-111.8-18.9-5.6-40.2-12.1-64-31V676.4c26.1,24.9,49.1,31.8,69.2,37.9,39.8,11.9,69.3,20.8,88.1,126,1.6,9.3,3.3,18.8,5,28.8,1.2,6.6,2.4,13.9,3.7,21.7h15V909Zm0-389.7v15.2a15.9,15.9,0,0,0-11.5,4.8h0a15.9,15.9,0,0,0-4.8,11.5,16.2,16.2,0,0,0,4.8,11.6h0a15.9,15.9,0,0,0,11.5,4.8v15.2a31.5,31.5,0,0,1-22.2-9.3h0a31.3,31.3,0,0,1,0-44.5h0a31.4,31.4,0,0,1,22.2-9.2Zm0,116.7c-43.2-11.1-93.2-30.3-141.7-86.2a229.4,229.4,0,0,0-39.3-36.3v22.9A209.6,209.6,0,0,1,366,561.7c53.8,61.9,108.7,81.4,155.4,93ZM261.2,376.6h79.2v18.1H261.2V376.6ZM340.4,909H261.2V890.8h68.5l-1.6-6.7c-3.1-13.8-4.3-18.7-54.5-81.5a105.2,105.2,0,0,0-12.4-13.2v-23a118.5,118.5,0,0,1,26.5,24.9c34.5,43.1,47.1,60.6,52.7,72.2V909Zm0-395.5v22.9c-21.6-18-43.6-28.2-65.3-32.7a129.7,129.7,0,0,0-13.9-2.2V483.3a152.5,152.5,0,0,1,17.6,2.6c20.6,4.4,41.3,13.1,61.6,27.6Zm0,162.9v24.2c-11.5-9.2-23.5-21.3-36.2-37.6s-27.7-28.3-43-35.2V608.2c20.6,7.7,40.2,21.5,57.4,43.7A211.1,211.1,0,0,0,340.4,676.4ZM183.7,376.6h77.5v18.1H192.8v96.1c21.8-6.5,44.9-9.7,68.4-7.5v18.2c-23.4-2.5-46.6,1.2-68.4,8.3v92.1c21.9-3.1,44.8-2.2,66.7,5.7l1.7.6v19.6a72.8,72.8,0,0,0-7.7-3.1c-19.8-7.1-40.6-7.6-60.7-4.4V747.5a117.6,117.6,0,0,1,43.1,6.1,103.9,103.9,0,0,1,25.3,12.8v23a89.1,89.1,0,0,0-31.1-18.7,98.8,98.8,0,0,0-37.3-5V890.8h68.4V909H174.6V376.6Z"/><path class="cls-3" d="M812.1,399.7H822v71h-9.9Zm4.3,31.5h24.2a8.9,8.9,0,0,0,5.1-1.4,9.7,9.7,0,0,0,3.4-3.8,14.6,14.6,0,0,0,0-11.6,9.3,9.3,0,0,0-3.4-3.9,9.5,9.5,0,0,0-5.1-1.4H816.4v-9.4h23.8a22.2,22.2,0,0,1,10.9,2.5,17.8,17.8,0,0,1,7.2,7.2,23.5,23.5,0,0,1,0,21.5,18.7,18.7,0,0,1-7.3,7.2,22.1,22.1,0,0,1-10.8,2.6H816.4Zm19.4,7.3,9.9-2.3,18.1,34.5H852Z"/><path class="cls-3" d="M888.1,471.4l-5-2.6a17.7,17.7,0,0,1-7.6-7.7c-1.8-3.4-2.6-7.5-2.6-12.4V443a29.2,29.2,0,0,1,2.5-12.8,17.5,17.5,0,0,1,7.3-8.1,22,22,0,0,1,11.5-2.8,18.4,18.4,0,0,1,10.8,3.2,19.6,19.6,0,0,1,6.9,9.1,39.7,39.7,0,0,1,2.4,14.5v3.3H880.1v-8h24.7c-.3-4.2-1.4-7.4-3.2-9.7a8.9,8.9,0,0,0-7.4-3.4c-3.8,0-6.7,1.2-8.8,3.7s-3.1,6-3.1,10.5v6.4c0,4.2,1.1,7.5,3.4,9.7s5.3,3.4,9.4,3.4a14.4,14.4,0,0,0,6-1.3,16.6,16.6,0,0,0,5.3-3.4l6.6,6.6a31.3,31.3,0,0,1-8.5,5.6,24.3,24.3,0,0,1-9.4,1.9Z"/><path class="cls-3" d="M927.9,420h10v50.7h-10Zm30.3,20c0-3.6-.9-6.4-2.6-8.3s-4.3-2.9-7.5-2.9-5.8.8-7.5,2.6a9.4,9.4,0,0,0-2.7,7.2l-1-9.7a17.1,17.1,0,0,1,6.1-7.1,14.6,14.6,0,0,1,8.4-2.5,16.7,16.7,0,0,1,9.1,2.4,15.1,15.1,0,0,1,5.7,7.1,28.6,28.6,0,0,1,2,11.1v30.8h-10Zm30.3,0c0-3.6-.9-6.4-2.8-8.3s-4.5-2.9-7.8-2.9-5.5.9-7.2,2.8-2.5,4.6-2.5,8l-2-9.8a19.4,19.4,0,0,1,6.3-7.7,14.3,14.3,0,0,1,8.7-2.8,17.4,17.4,0,0,1,9.3,2.4,14.9,14.9,0,0,1,5.9,7.1,26.8,26.8,0,0,1,2.1,11.1v30.8h-10Z"/><path class="cls-3" d="M1027.3,471.4l-5-2.6a18.2,18.2,0,0,1-7.6-7.7,27.4,27.4,0,0,1-2.6-12.4V443a30.7,30.7,0,0,1,2.5-12.8,17.5,17.5,0,0,1,7.3-8.1,22.4,22.4,0,0,1,11.6-2.8,18.4,18.4,0,0,1,10.8,3.2,19.6,19.6,0,0,1,6.9,9.1,42,42,0,0,1,2.3,14.5v3.3h-34.1v-8h24.7c-.3-4.2-1.4-7.4-3.2-9.7a9,9,0,0,0-7.4-3.4c-3.8,0-6.7,1.2-8.8,3.7s-3.1,6-3.1,10.5v6.4c0,4.2,1.1,7.5,3.3,9.7s5.4,3.4,9.4,3.4a13.8,13.8,0,0,0,6-1.3,17,17,0,0,0,5.4-3.4l6.5,6.6a29.4,29.4,0,0,1-8.4,5.6,24.8,24.8,0,0,1-9.5,1.9Z"/><path class="cls-3" d="M1067.2,399.7h10v71h-10Zm14.5,69.5a13.2,13.2,0,0,1-5.2-6.4l.7-10.6a13.1,13.1,0,0,0,1.1,5.5,7.7,7.7,0,0,0,3.4,3.5,10.3,10.3,0,0,0,5.4,1.3c3.3,0,5.9-1,7.7-3s2.7-4.9,2.7-8.5V440c0-3.7-.9-6.6-2.7-8.6s-4.4-3.1-7.7-3.1a11.3,11.3,0,0,0-5.4,1.2,7.5,7.5,0,0,0-3.4,3.4,12.7,12.7,0,0,0-1.1,5.4l-1.1-9.7a18.6,18.6,0,0,1,6-6.9,15.2,15.2,0,0,1,8.3-2.4,17,17,0,0,1,9.2,2.4,14.7,14.7,0,0,1,5.8,7.1,26.9,26.9,0,0,1,2,11.1V451a26.1,26.1,0,0,1-2,11,15.4,15.4,0,0,1-6,7,18.1,18.1,0,0,1-9.5,2.4A14.6,14.6,0,0,1,1081.7,469.2Z"/><path class="cls-3" d="M1135.3,471.4l-5-2.6a18.2,18.2,0,0,1-7.6-7.7,27.4,27.4,0,0,1-2.6-12.4V443a30.7,30.7,0,0,1,2.5-12.8,18.1,18.1,0,0,1,7.3-8.1,22.4,22.4,0,0,1,11.6-2.8,18.4,18.4,0,0,1,10.8,3.2,19.6,19.6,0,0,1,6.9,9.1,42,42,0,0,1,2.3,14.5v3.3h-34.1v-8h24.7c-.3-4.2-1.4-7.4-3.2-9.7a9,9,0,0,0-7.4-3.4c-3.8,0-6.7,1.2-8.8,3.7s-3.1,6-3.1,10.5v6.4c0,4.2,1.1,7.5,3.3,9.7s5.4,3.4,9.4,3.4a14.6,14.6,0,0,0,6.1-1.3,17.7,17.7,0,0,0,5.3-3.4l6.5,6.6a29.4,29.4,0,0,1-8.4,5.6,24.8,24.8,0,0,1-9.5,1.9Z"/><path class="cls-3" d="M1175.2,420h10v50.7h-10Zm24.6,9.6a11.6,11.6,0,0,0-4.7-.8c-3.1,0-5.6.8-7.3,2.6s-2.6,4.1-2.6,7.2l-1.1-9.7a18.6,18.6,0,0,1,6.1-7.1,14.2,14.2,0,0,1,8.2-2.5,18.1,18.1,0,0,1,6.3,1,15.1,15.1,0,0,1,4.9,2.9l-6.5,8.8A10,10,0,0,0,1199.8,429.6Z"/><path class="cls-3" d="M1209.8,460.3h10.5v15.8l-10.5,10.8Z"/><path class="cls-3" d="M1257.1,420H1280v9h-22.9Zm8.1,47.6c-1.9-2.3-2.8-5.6-2.8-10.1V405.3h9.9v52.3a4.8,4.8,0,0,0,.8,2.9,2.5,2.5,0,0,0,2.1,1h4.8V471h-5.8C1270.1,471,1267.1,469.8,1265.2,467.6Z"/><path class="cls-3" d="M1293.7,399.7h9.9v71h-9.9Zm30.7,40.3c0-3.6-.9-6.4-2.8-8.3s-4.4-2.9-7.8-2.9-5.7.8-7.5,2.5a9.4,9.4,0,0,0-2.7,7.2l-1-9.8a17.9,17.9,0,0,1,6.1-6.9,14.8,14.8,0,0,1,8.4-2.5c5.5,0,9.8,1.8,12.8,5.4s4.5,8.7,4.5,15.2v30.8h-10Z"/><path class="cls-3" d="M1363.2,471.4l-4.9-2.6a17.2,17.2,0,0,1-7.6-7.7c-1.8-3.4-2.6-7.5-2.6-12.4V443a29.2,29.2,0,0,1,2.5-12.8,17.5,17.5,0,0,1,7.3-8.1,22,22,0,0,1,11.5-2.8,18.4,18.4,0,0,1,10.8,3.2,19.6,19.6,0,0,1,6.9,9.1,39.7,39.7,0,0,1,2.4,14.5v3.3h-34.2v-8H1380c-.3-4.2-1.4-7.4-3.2-9.7a8.9,8.9,0,0,0-7.4-3.4c-3.8,0-6.7,1.2-8.8,3.7s-3.1,6-3.1,10.5v6.4c0,4.2,1.1,7.5,3.4,9.7s5.3,3.4,9.4,3.4a14.4,14.4,0,0,0,6-1.3,16.6,16.6,0,0,0,5.3-3.4l6.5,6.6a29.4,29.4,0,0,1-8.4,5.6,24.3,24.3,0,0,1-9.4,1.9Z"/><path class="cls-3" d="M1403.1,420h10v50.7h-10Zm24.6,9.6a11.1,11.1,0,0,0-4.6-.8c-3.2,0-5.6.8-7.4,2.6a9.8,9.8,0,0,0-2.6,7.2l-1-9.7a18.4,18.4,0,0,1,6-7.1,14.2,14.2,0,0,1,8.2-2.5,18.1,18.1,0,0,1,6.3,1,14.2,14.2,0,0,1,4.9,2.9L1431,432A10,10,0,0,0,1427.7,429.6Z"/><path class="cls-3" d="M1458.6,471.4l-5-2.6a17.7,17.7,0,0,1-7.6-7.7c-1.8-3.4-2.6-7.5-2.6-12.4V443a29.2,29.2,0,0,1,2.5-12.8,17.5,17.5,0,0,1,7.3-8.1,22,22,0,0,1,11.5-2.8,18.7,18.7,0,0,1,10.9,3.2,20.1,20.1,0,0,1,6.8,9.1,39.7,39.7,0,0,1,2.4,14.5v3.3h-34.2v-8h24.7c-.3-4.2-1.4-7.4-3.2-9.7a8.9,8.9,0,0,0-7.4-3.4c-3.8,0-6.7,1.2-8.8,3.7s-3.1,6-3.1,10.5v6.4c0,4.2,1.2,7.5,3.4,9.7s5.3,3.4,9.4,3.4a14.4,14.4,0,0,0,6-1.3,15.5,15.5,0,0,0,5.3-3.4l6.6,6.6a29.9,29.9,0,0,1-8.5,5.6,24.3,24.3,0,0,1-9.4,1.9Z"/><path class="cls-3" d="M1492.8,399.7h10.5v15.8l-10.5,10.9Z"/><path class="cls-3" d="M1524.8,471.4l-4-.8a30.4,30.4,0,0,1-7.3-2.7,24.7,24.7,0,0,1-6.3-4.4l5.9-7.2a33.9,33.9,0,0,0,8.2,4.6,20.8,20.8,0,0,0,8,1.6c3.9,0,6.9-.6,8.8-1.8a6.1,6.1,0,0,0,3-5.5,4.6,4.6,0,0,0-1.6-3.7,9.6,9.6,0,0,0-4-1.6c-1.6-.3-3.9-.5-6.8-.8h-2.4a42.4,42.4,0,0,1-8.4-1.5,12.2,12.2,0,0,1-5.7-3.9c-1.5-1.9-2.2-4.7-2.2-8.2a16.7,16.7,0,0,1,2.2-9,12.8,12.8,0,0,1,6.5-5.3,28.5,28.5,0,0,1,10.9-1.8,36.1,36.1,0,0,1,7.5.7,32.6,32.6,0,0,1,6.9,2.2,39.4,39.4,0,0,1,6.3,3.6l-6,7.3a32.1,32.1,0,0,0-7.5-3.6,21.1,21.1,0,0,0-7.2-1.3c-3.4,0-5.9.6-7.6,1.8a5.9,5.9,0,0,0-2.6,5.2,3.3,3.3,0,0,0,1.5,3,7.8,7.8,0,0,0,3.6,1.4l6.3.6h1.8a42,42,0,0,1,9.1,1.5,12.2,12.2,0,0,1,6.3,4.2c1.7,2.1,2.5,5.2,2.5,9.2a16.7,16.7,0,0,1-2.3,9,14.6,14.6,0,0,1-7.1,5.4,33.3,33.3,0,0,1-11.8,1.8Z"/><path class="cls-3" d="M1590.1,420h9.9v50.7h-9.9Zm30.7,20c0-3.6-.9-6.4-2.8-8.3s-4.4-2.9-7.8-2.9-5.8.8-7.5,2.6a9.4,9.4,0,0,0-2.7,7.2l-1-9.7a17.9,17.9,0,0,1,6.1-7.1,14.6,14.6,0,0,1,8.4-2.5c5.5,0,9.7,1.8,12.8,5.4s4.5,8.7,4.5,15.2v30.8h-10Z"/><path class="cls-3" d="M1654.1,468.9a17.6,17.6,0,0,1-7.2-7.6,27.1,27.1,0,0,1-2.5-11.9v-8.3a26.7,26.7,0,0,1,2.5-11.8,17.1,17.1,0,0,1,7.2-7.4,25.6,25.6,0,0,1,22.5,0,17.1,17.1,0,0,1,7.2,7.4,26.7,26.7,0,0,1,2.4,11.8v8.4a27.2,27.2,0,0,1-2.4,11.9,17.9,17.9,0,0,1-7.2,7.5,26.6,26.6,0,0,1-22.5,0Zm19.3-10.2c1.9-2.2,2.9-5.2,2.9-9.2v-8.4c0-3.9-1-7-2.9-9.1s-4.6-3.2-8.1-3.2-6.1,1-8,3.2-2.9,5.2-2.9,9.1v8.4c0,4,1,7,2.9,9.2a10,10,0,0,0,8,3.3Q1670.6,462,1673.4,458.7Z"/><path class="cls-3" d="M1740.7,471.4l-3.9-.8a29.6,29.6,0,0,1-7.4-2.7,24.7,24.7,0,0,1-6.3-4.4l5.9-7.2a35.9,35.9,0,0,0,8.2,4.6,20.8,20.8,0,0,0,8,1.6c3.9,0,6.9-.6,8.8-1.8a6.1,6.1,0,0,0,3-5.5,4.3,4.3,0,0,0-1.6-3.7,9.6,9.6,0,0,0-4-1.6c-1.6-.3-3.9-.5-6.8-.8h-2.4a40,40,0,0,1-8.3-1.5,11.3,11.3,0,0,1-5.7-3.9c-1.6-1.9-2.3-4.7-2.3-8.2a16.7,16.7,0,0,1,2.2-9,13.2,13.2,0,0,1,6.5-5.3,28.9,28.9,0,0,1,10.9-1.8,37,37,0,0,1,7.6.7,31.8,31.8,0,0,1,6.8,2.2,39.4,39.4,0,0,1,6.3,3.6l-6,7.3a32.1,32.1,0,0,0-7.5-3.6,20.3,20.3,0,0,0-7.2-1.3c-3.4,0-5.9.6-7.6,1.8a5.8,5.8,0,0,0-2.5,5.2,3.3,3.3,0,0,0,1.4,3,8.2,8.2,0,0,0,3.6,1.4l6.3.6h1.8a42,42,0,0,1,9.1,1.5,12.2,12.2,0,0,1,6.3,4.2c1.7,2.1,2.5,5.2,2.5,9.2a16.7,16.7,0,0,1-2.3,9,14.1,14.1,0,0,1-7.1,5.4,33.3,33.3,0,0,1-11.8,1.8Z"/><path class="cls-3" d="M1789.1,450.8c0,3.6.9,6.3,2.7,8.3a9.9,9.9,0,0,0,7.6,2.9c3.3,0,5.8-.9,7.6-2.6s2.7-4.2,2.7-7.4l.7,10.6a15.5,15.5,0,0,1-5.1,6.3,14.4,14.4,0,0,1-8.7,2.5q-8.4,0-12.9-5.4c-3.1-3.5-4.6-8.6-4.6-15.2V420h10Zm20.6-30.8h9.9v50.7h-9.9Z"/><path class="cls-3" d="M1848.3,471.4l-5-2.5a18.1,18.1,0,0,1-7.4-7.6,24.3,24.3,0,0,1-2.6-11.9v-8.3a24.2,24.2,0,0,1,2.6-11.8,17.1,17.1,0,0,1,7.4-7.4,24.6,24.6,0,0,1,11.9-2.6,29.4,29.4,0,0,1,7.4.9,22.7,22.7,0,0,1,6.3,2.8,16.1,16.1,0,0,1,4.6,4.4l-7.1,6.4a15.5,15.5,0,0,0-5.1-3.7,13.8,13.8,0,0,0-6-1.3c-3.8,0-6.8,1-8.9,3.2s-3.2,5.2-3.2,9.1v8.3c0,4,1.1,7.1,3.2,9.3s5.1,3.3,8.9,3.3a14,14,0,0,0,6.1-1.4,16.1,16.1,0,0,0,5-4l7.1,6.9a17.2,17.2,0,0,1-4.6,4.3,22.2,22.2,0,0,1-6.3,2.7,29.4,29.4,0,0,1-7.4.9Z"/><path class="cls-3" d="M1884.5,399.7h10v71h-10Zm30.8,40.3c0-3.6-.9-6.4-2.8-8.3s-4.4-2.9-7.8-2.9-5.8.8-7.5,2.5a9.4,9.4,0,0,0-2.7,7.2l-1-9.8a17.2,17.2,0,0,1,6.1-6.9,14.6,14.6,0,0,1,8.4-2.5c5.5,0,9.7,1.8,12.7,5.4s4.6,8.7,4.6,15.2v30.8h-10Z"/><path class="cls-3" d="M1963.3,420h22.9v9h-22.9Zm8.1,47.6c-1.9-2.3-2.8-5.6-2.8-10.1V405.3h9.9v52.3a4.8,4.8,0,0,0,.8,2.9,2.7,2.7,0,0,0,2.1,1h4.8V471h-5.8C1976.3,471,1973.3,469.8,1971.4,467.6Z"/><path class="cls-3" d="M1999.9,399.7h9.9v71h-9.9Zm30.7,40.3c0-3.6-.9-6.4-2.8-8.3s-4.4-2.9-7.8-2.9-5.7.8-7.5,2.5a9.4,9.4,0,0,0-2.7,7.2l-1-9.8a17.9,17.9,0,0,1,6.1-6.9,14.8,14.8,0,0,1,8.4-2.5c5.5,0,9.8,1.8,12.8,5.4s4.5,8.7,4.5,15.2v30.8h-10Z"/><path class="cls-3" d="M2055.7,399.7h10v10h-10Zm0,20.3h10v50.7h-10Z"/><path class="cls-3" d="M2080.8,420h10v50.7h-10Zm30.8,20c0-3.6-.9-6.4-2.8-8.3s-4.5-2.9-7.8-2.9-5.8.8-7.6,2.6a9.8,9.8,0,0,0-2.6,7.2l-1-9.7a17.1,17.1,0,0,1,6.1-7.1,14.6,14.6,0,0,1,8.4-2.5c5.5,0,9.7,1.8,12.7,5.4s4.5,8.7,4.5,15.2v30.8h-9.9Z"/><path class="cls-3" d="M2143.3,469.2a14.5,14.5,0,0,1-6-7.1,26.8,26.8,0,0,1-2.1-11.1V439.8a28.8,28.8,0,0,1,2-11.2,15.2,15.2,0,0,1,5.9-7,16.8,16.8,0,0,1,9.2-2.5,14.8,14.8,0,0,1,8.2,2.4,17.4,17.4,0,0,1,6,6.6l-1,10.3a11.8,11.8,0,0,0-1.2-5.5,8.2,8.2,0,0,0-3.4-3.5,11.3,11.3,0,0,0-5.4-1.2,9.7,9.7,0,0,0-7.6,3.1c-1.8,2.1-2.7,4.9-2.7,8.6V451c0,3.7.9,6.5,2.7,8.5s4.3,3,7.6,3a11.3,11.3,0,0,0,5.4-1.2,9,9,0,0,0,3.4-3.6,12.5,12.5,0,0,0,1.2-5.6l.7,10.7a14,14,0,0,1-13.5,8.8A17.5,17.5,0,0,1,2143.3,469.2Zm4.7,22.1-4.6-2.1a16.4,16.4,0,0,1-7-6l6.8-6.1a14.1,14.1,0,0,0,4.6,4.2,12.6,12.6,0,0,0,5.7,1.4c3.8,0,6.8-1,8.9-3.1s3.1-5.1,3.1-8.9V420h10v49.2a26.2,26.2,0,0,1-2.6,12,17,17,0,0,1-7.5,7.5,23.5,23.5,0,0,1-11.7,2.6Z"/><path class="cls-3" d="M2219.6,467.6c-3.1-2.6-4.6-6.6-4.6-11.8s1.4-8.8,4.3-11.3,7.1-3.8,12.8-3.8h14.4l.7,8h-15.1c-2.6,0-4.5.6-5.8,1.8s-1.9,2.9-1.9,5.3a6.7,6.7,0,0,0,2.5,5.7c1.8,1.2,4.3,1.8,7.8,1.8s6.7-.4,8.6-1.2a4.1,4.1,0,0,0,2.8-3.8l1,7.1a11.9,11.9,0,0,1-3.3,3.4,13.7,13.7,0,0,1-4.4,2,24.9,24.9,0,0,1-5.7.6C2227.4,471.4,2222.7,470.1,2219.6,467.6Zm26.5-29a10.9,10.9,0,0,0-2.7-7.8,10.1,10.1,0,0,0-7.5-2.7,20.3,20.3,0,0,0-6,.9,17.5,17.5,0,0,0-5.1,2.6l-7.3-5a18.7,18.7,0,0,1,7.6-5.4,26.9,26.9,0,0,1,10.5-1.9,23.9,23.9,0,0,1,10.8,2.2,15.8,15.8,0,0,1,6.8,6.5,20.1,20.1,0,0,1,2.3,10.1v32.6h-9.4Z"/><path class="cls-3" d="M2284.1,471.4l-3.9-.8a29.6,29.6,0,0,1-7.4-2.7,24.7,24.7,0,0,1-6.3-4.4l5.9-7.2a35.9,35.9,0,0,0,8.2,4.6,21.1,21.1,0,0,0,8,1.6c3.9,0,6.9-.6,8.9-1.8a6.2,6.2,0,0,0,2.9-5.5,4.3,4.3,0,0,0-1.6-3.7,9.6,9.6,0,0,0-4-1.6c-1.6-.3-3.9-.5-6.7-.8h-2.5a40,40,0,0,1-8.3-1.5,11.3,11.3,0,0,1-5.7-3.9c-1.5-1.9-2.3-4.7-2.3-8.2a16.7,16.7,0,0,1,2.2-9,13.2,13.2,0,0,1,6.5-5.3,28.9,28.9,0,0,1,10.9-1.8,37,37,0,0,1,7.6.7,30.1,30.1,0,0,1,6.8,2.2,39.4,39.4,0,0,1,6.3,3.6l-6,7.3a32.1,32.1,0,0,0-7.5-3.6,20.3,20.3,0,0,0-7.2-1.3c-3.4,0-5.9.6-7.6,1.8a5.8,5.8,0,0,0-2.5,5.2,3.5,3.5,0,0,0,1.4,3,8.2,8.2,0,0,0,3.7,1.4l6.2.6h1.9a42.1,42.1,0,0,1,9,1.5,12.2,12.2,0,0,1,6.3,4.2c1.7,2.1,2.5,5.2,2.5,9.2a16.7,16.7,0,0,1-2.3,9,14.1,14.1,0,0,1-7.1,5.4,33.3,33.3,0,0,1-11.8,1.8Z"/><path class="cls-3" d="M813.3,587.6c-3.1-2.6-4.6-6.6-4.6-11.8s1.4-8.8,4.2-11.3,7.1-3.8,12.8-3.8h14.5l.6,8h-15c-2.6,0-4.6.6-5.8,1.8s-2,2.9-2,5.3a6.8,6.8,0,0,0,2.6,5.7q2.5,1.8,7.8,1.8c3.8,0,6.6-.4,8.5-1.2a4,4,0,0,0,2.8-3.8l1,7.1a10.4,10.4,0,0,1-3.2,3.4,15.4,15.4,0,0,1-4.5,2,24.9,24.9,0,0,1-5.7.6C821.1,591.4,816.4,590.1,813.3,587.6Zm26.4-29a11.3,11.3,0,0,0-2.6-7.8c-1.8-1.8-4.3-2.7-7.6-2.7a19.6,19.6,0,0,0-5.9.9,16.9,16.9,0,0,0-5.2,2.6l-7.3-5a20.2,20.2,0,0,1,7.6-5.4,27.6,27.6,0,0,1,10.5-1.9,23.9,23.9,0,0,1,10.8,2.2,14.8,14.8,0,0,1,6.8,6.5,20.1,20.1,0,0,1,2.4,10.1v32.6h-9.5Z"/><path class="cls-3" d="M904.6,591.4l-3.9-.8a31.2,31.2,0,0,1-7.4-2.7,24.7,24.7,0,0,1-6.3-4.4l5.9-7.2a35.9,35.9,0,0,0,8.2,4.6,21.1,21.1,0,0,0,8,1.6c3.9,0,6.9-.6,8.9-1.8a6.2,6.2,0,0,0,2.9-5.5,4.3,4.3,0,0,0-1.6-3.7,9.6,9.6,0,0,0-4-1.6c-1.6-.3-3.8-.5-6.7-.8h-2.5a40,40,0,0,1-8.3-1.5,11.3,11.3,0,0,1-5.7-3.9c-1.5-1.9-2.3-4.7-2.3-8.2a16.7,16.7,0,0,1,2.2-9,13.7,13.7,0,0,1,6.5-5.3,28.9,28.9,0,0,1,10.9-1.8,37,37,0,0,1,7.6.7,30.1,30.1,0,0,1,6.8,2.2,39.4,39.4,0,0,1,6.3,3.6l-6,7.3a32.1,32.1,0,0,0-7.5-3.6,20.3,20.3,0,0,0-7.2-1.3c-3.3,0-5.9.6-7.6,1.8a5.8,5.8,0,0,0-2.5,5.2,3.5,3.5,0,0,0,1.4,3,8.2,8.2,0,0,0,3.7,1.4l6.2.6h1.9a42.1,42.1,0,0,1,9,1.5,12.2,12.2,0,0,1,6.3,4.2c1.7,2.1,2.5,5.2,2.5,9.2a15.9,15.9,0,0,1-2.3,9,14.1,14.1,0,0,1-7.1,5.4,33.3,33.3,0,0,1-11.8,1.8Z"/><path class="cls-3" d="M943,540h10v50.7H943Zm30.3,20c0-3.6-.9-6.4-2.6-8.3s-4.3-2.9-7.5-2.9-5.8.8-7.5,2.6a9.4,9.4,0,0,0-2.7,7.2l-1-9.7a17.1,17.1,0,0,1,6.1-7.1,14.6,14.6,0,0,1,8.4-2.5,16.9,16.9,0,0,1,9.1,2.4,15.1,15.1,0,0,1,5.7,7.1,28.6,28.6,0,0,1,2,11.1v30.8h-10Zm30.3,0c0-3.6-.9-6.4-2.8-8.3s-4.5-2.9-7.8-2.9-5.5.9-7.2,2.8-2.5,4.6-2.5,8l-2-9.8a19.4,19.4,0,0,1,6.3-7.7,14.3,14.3,0,0,1,8.7-2.8,17.4,17.4,0,0,1,9.3,2.4,14.9,14.9,0,0,1,5.9,7.1,26.9,26.9,0,0,1,2,11.1v30.8h-9.9Z"/><path class="cls-3" d="M1030.9,587.6c-3.1-2.6-4.7-6.6-4.7-11.8s1.5-8.8,4.3-11.3,7.1-3.8,12.8-3.8h14.4l.7,8h-15c-2.6,0-4.6.6-5.9,1.8a7,7,0,0,0-1.9,5.3,6.8,6.8,0,0,0,2.6,5.7q2.5,1.8,7.8,1.8c3.8,0,6.6-.4,8.5-1.2a4,4,0,0,0,2.8-3.8l1,7.1a11.6,11.6,0,0,1-3.2,3.4,15.4,15.4,0,0,1-4.5,2,24.9,24.9,0,0,1-5.7.6C1038.6,591.4,1034,590.1,1030.9,587.6Zm26.4-29a10.9,10.9,0,0,0-2.7-7.8c-1.7-1.8-4.3-2.7-7.5-2.7a19.6,19.6,0,0,0-5.9.9,16.9,16.9,0,0,0-5.2,2.6l-7.3-5a19.4,19.4,0,0,1,7.6-5.4,27.6,27.6,0,0,1,10.5-1.9,23.9,23.9,0,0,1,10.8,2.2,14.8,14.8,0,0,1,6.8,6.5,20.1,20.1,0,0,1,2.4,10.1v32.6h-9.5Z"/><path class="cls-3" d="M1091.9,577.6a4.2,4.2,0,0,0,.8,2.9,2.9,2.9,0,0,0,2.2,1h4.7V591h-5.8c-3.8,0-6.7-1.2-8.8-3.6s-3.1-5.6-3.1-9.9V519.7h10Z"/><path class="cls-3" d="M1120.8,577.6a4.8,4.8,0,0,0,.8,2.9,3.1,3.1,0,0,0,2.3,1h4.7V591h-5.9q-5.7,0-8.7-3.6c-2.1-2.3-3.1-5.6-3.1-9.9V519.7h9.9Z"/><path class="cls-3" d="M1168.9,587.6c-3.1-2.6-4.7-6.6-4.7-11.8s1.4-8.8,4.3-11.3,7.1-3.8,12.8-3.8h14.4l.7,8h-15c-2.6,0-4.6.6-5.9,1.8s-1.9,2.9-1.9,5.3a6.8,6.8,0,0,0,2.6,5.7c1.7,1.2,4.3,1.8,7.7,1.8s6.7-.4,8.6-1.2a4.1,4.1,0,0,0,2.8-3.8l1,7.1a13,13,0,0,1-3.2,3.4,15.4,15.4,0,0,1-4.5,2,24.9,24.9,0,0,1-5.7.6C1176.6,591.4,1172,590.1,1168.9,587.6Zm26.4-29a10.9,10.9,0,0,0-2.7-7.8,10.1,10.1,0,0,0-7.5-2.7,20.8,20.8,0,0,0-6,.9,17.5,17.5,0,0,0-5.1,2.6l-7.3-5a19.4,19.4,0,0,1,7.6-5.4,26.9,26.9,0,0,1,10.5-1.9,23.9,23.9,0,0,1,10.8,2.2,15.3,15.3,0,0,1,6.8,6.5,20.1,20.1,0,0,1,2.4,10.1v32.6h-9.5Z"/><path class="cls-3" d="M1233.4,591.4l-4.9-2.5a17.7,17.7,0,0,1-7.5-7.6,25.5,25.5,0,0,1-2.6-11.9v-8.3a25.4,25.4,0,0,1,2.6-11.8,16.8,16.8,0,0,1,7.5-7.4,24.2,24.2,0,0,1,11.8-2.6,29.7,29.7,0,0,1,7.5.9,25.7,25.7,0,0,1,6.3,2.8,17.5,17.5,0,0,1,4.6,4.4l-7.2,6.4a15.2,15.2,0,0,0-5-3.7,13.8,13.8,0,0,0-6-1.3c-3.8,0-6.8,1-8.9,3.2s-3.2,5.2-3.2,9.1v8.3c0,4,1,7.1,3.1,9.3s5.1,3.3,9,3.3a13.9,13.9,0,0,0,6-1.4,15,15,0,0,0,5-4l7.2,6.9a17.6,17.6,0,0,1-4.7,4.3,20,20,0,0,1-6.3,2.7,28.9,28.9,0,0,1-7.4.9Z"/><path class="cls-3" d="M1265.8,540h22.8v9h-22.8Zm8.1,47.6c-1.9-2.3-2.9-5.6-2.9-10.1V525.3h10v52.3a4.8,4.8,0,0,0,.7,2.9,2.7,2.7,0,0,0,2.2,1h4.7V591h-5.7C1278.8,591,1275.8,589.8,1273.9,587.6Z"/><path class="cls-3" d="M1337.3,588.9a17.4,17.4,0,0,1-7.1-7.6,25.8,25.8,0,0,1-2.5-11.9v-8.3a25.4,25.4,0,0,1,2.5-11.8,16.9,16.9,0,0,1,7.1-7.4,25.9,25.9,0,0,1,22.6,0,16.9,16.9,0,0,1,7.1,7.4,25.4,25.4,0,0,1,2.5,11.8v8.4a25.8,25.8,0,0,1-2.5,11.9,17.7,17.7,0,0,1-7.1,7.5,26.8,26.8,0,0,1-22.6,0Zm19.4-10.2c1.9-2.2,2.8-5.2,2.8-9.2v-8.4c0-3.9-.9-7-2.8-9.1s-4.6-3.2-8.1-3.2-6.2,1-8.1,3.2-2.8,5.2-2.8,9.1v8.4c0,4,.9,7,2.8,9.2s4.6,3.3,8.1,3.3S1354.8,580.9,1356.7,578.7Z"/><path class="cls-3" d="M1379.8,540h25.3v8.5h-25.3Zm5.3-6.9c0-4.5,1.1-7.8,3.1-10s5.3-3.4,9.6-3.4h7.3v9.5H1398a2.3,2.3,0,0,0-2.2,1.1,4.5,4.5,0,0,0-.7,2.7v57.7h-10Z"/><path class="cls-3" d="M1442.2,519.7h10v71h-10Zm4.3,51.8,26.1-31.5h11.7l-38.4,43.3Zm11.8-10,6.4-6.7,22.1,35.9h-10.9Z"/><path class="cls-3" d="M1495.1,519.7h9.9v10h-9.9Zm0,20.3h9.9v50.7h-9.9Z"/><path class="cls-3" d="M1520.2,540h9.9v50.7h-9.9Zm30.7,20c0-3.6-.9-6.4-2.7-8.3s-4.5-2.9-7.9-2.9-5.7.8-7.5,2.6a9.4,9.4,0,0,0-2.7,7.2l-1-9.7a17.9,17.9,0,0,1,6.1-7.1,15,15,0,0,1,8.4-2.5c5.5,0,9.8,1.8,12.8,5.4s4.5,8.7,4.5,15.2v30.8h-10Z"/><path class="cls-3" d="M1582.6,589.2a15.6,15.6,0,0,1-6-7.1,28.6,28.6,0,0,1-2-11.1V559.8a27,27,0,0,1,2-11.2,15,15,0,0,1,5.8-7,17.1,17.1,0,0,1,9.2-2.5,14.6,14.6,0,0,1,8.2,2.4,18.5,18.5,0,0,1,6.1,6.6l-1.1,10.3a11.8,11.8,0,0,0-1.1-5.5,8.2,8.2,0,0,0-3.4-3.5,11.3,11.3,0,0,0-5.4-1.2,10.1,10.1,0,0,0-7.7,3.1c-1.8,2.1-2.7,4.9-2.7,8.6V571c0,3.7.9,6.5,2.7,8.5a10,10,0,0,0,7.7,3,11.3,11.3,0,0,0,5.4-1.2,9,9,0,0,0,3.4-3.6,12.5,12.5,0,0,0,1.1-5.6l.7,10.7a14.3,14.3,0,0,1-4.9,6.3,14.5,14.5,0,0,1-8.5,2.5A17.9,17.9,0,0,1,1582.6,589.2Zm22.2-69.5h10v71h-10Z"/><path class="cls-3" d="M1629.9,540h10v50.7h-10Zm30.8,20c0-3.6-.9-6.4-2.8-8.3s-4.4-2.9-7.8-2.9-5.8.8-7.5,2.6a9.4,9.4,0,0,0-2.7,7.2l-1-9.7a17.1,17.1,0,0,1,6.1-7.1,14.6,14.6,0,0,1,8.4-2.5c5.5,0,9.7,1.8,12.8,5.4s4.5,8.7,4.5,15.2v30.8h-10Z"/><path class="cls-3" d="M1699.5,591.4l-5-2.6a17.4,17.4,0,0,1-7.5-7.7,26.1,26.1,0,0,1-2.7-12.4V563a29.2,29.2,0,0,1,2.6-12.8,17,17,0,0,1,7.3-8.1,21.8,21.8,0,0,1,11.5-2.8,18.4,18.4,0,0,1,10.8,3.2,19.6,19.6,0,0,1,6.9,9.1,39.8,39.8,0,0,1,2.3,14.5v3.3h-34.1v-8h24.7c-.3-4.2-1.4-7.4-3.2-9.7a9,9,0,0,0-7.4-3.4c-3.8,0-6.7,1.2-8.8,3.7s-3.1,6-3.1,10.5v6.4c0,4.2,1.1,7.5,3.3,9.7s5.4,3.4,9.5,3.4a14.4,14.4,0,0,0,6-1.3,17.7,17.7,0,0,0,5.3-3.4l6.5,6.6a29.4,29.4,0,0,1-8.4,5.6,24.3,24.3,0,0,1-9.4,1.9Z"/><path class="cls-3" d="M1752.8,591.4l-3.9-.8a28.9,28.9,0,0,1-7.3-2.7,24.7,24.7,0,0,1-6.3-4.4l5.9-7.2a33.4,33.4,0,0,0,8.1,4.6,21.1,21.1,0,0,0,8,1.6c4,0,6.9-.6,8.9-1.8a6.1,6.1,0,0,0,3-5.5,4.4,4.4,0,0,0-1.7-3.7,9.1,9.1,0,0,0-4-1.6c-1.6-.3-3.8-.5-6.7-.8h-2.4a42.4,42.4,0,0,1-8.4-1.5,11.3,11.3,0,0,1-5.7-3.9c-1.5-1.9-2.2-4.7-2.2-8.2a17.6,17.6,0,0,1,2.1-9,13.5,13.5,0,0,1,6.6-5.3,28.5,28.5,0,0,1,10.9-1.8,36.7,36.7,0,0,1,7.5.7,32.6,32.6,0,0,1,6.9,2.2,39.4,39.4,0,0,1,6.3,3.6l-6,7.3a36.4,36.4,0,0,0-7.5-3.6,21.1,21.1,0,0,0-7.2-1.3c-3.4,0-5.9.6-7.6,1.8a5.9,5.9,0,0,0-2.6,5.2,3.3,3.3,0,0,0,1.5,3,7.4,7.4,0,0,0,3.6,1.4l6.3.6h1.8a42,42,0,0,1,9.1,1.5,11.9,11.9,0,0,1,6.2,4.2c1.7,2.1,2.6,5.2,2.6,9.2a15.9,15.9,0,0,1-2.4,9,13.9,13.9,0,0,1-7,5.4,33.9,33.9,0,0,1-11.9,1.8Z"/><path class="cls-3" d="M1804.7,591.4l-3.9-.8a29.6,29.6,0,0,1-7.4-2.7,24.7,24.7,0,0,1-6.3-4.4l5.9-7.2a35.9,35.9,0,0,0,8.2,4.6,21.1,21.1,0,0,0,8,1.6c3.9,0,6.9-.6,8.9-1.8a6.2,6.2,0,0,0,2.9-5.5,4.3,4.3,0,0,0-1.6-3.7,9.6,9.6,0,0,0-4-1.6c-1.6-.3-3.8-.5-6.7-.8h-2.5a40,40,0,0,1-8.3-1.5,11.3,11.3,0,0,1-5.7-3.9c-1.5-1.9-2.3-4.7-2.3-8.2a16.7,16.7,0,0,1,2.2-9,13.2,13.2,0,0,1,6.5-5.3,28.9,28.9,0,0,1,10.9-1.8,37,37,0,0,1,7.6.7,30.1,30.1,0,0,1,6.8,2.2,39.4,39.4,0,0,1,6.3,3.6l-6,7.3a32.1,32.1,0,0,0-7.5-3.6,20.3,20.3,0,0,0-7.2-1.3c-3.4,0-5.9.6-7.6,1.8a5.8,5.8,0,0,0-2.5,5.2,3.5,3.5,0,0,0,1.4,3,8.2,8.2,0,0,0,3.7,1.4l6.2.6h1.9a42.1,42.1,0,0,1,9,1.5,12.2,12.2,0,0,1,6.3,4.2c1.7,2.1,2.5,5.2,2.5,9.2a15.9,15.9,0,0,1-2.3,9,14.1,14.1,0,0,1-7.1,5.4,33.3,33.3,0,0,1-11.8,1.8Z"/><path class="cls-3" d="M1841.4,580.3h10.5v10.4h-10.5Z"/><path class="cls-3" d="M1893.6,519.7h10v71h-10Zm4.9,0h40.7v9.5h-40.7Zm0,31h35.4v9.5h-35.4Zm0,30.5h40.7v9.5h-40.7Z"/><path class="cls-3" d="M1982.2,540h10.4l-19,50.7h-7.5L1947,540h10.4l12.4,36.2Z"/><path class="cls-3" d="M2015.2,591.4l-5-2.6a17.2,17.2,0,0,1-7.6-7.7c-1.8-3.4-2.6-7.5-2.6-12.4V563a29.2,29.2,0,0,1,2.5-12.8,17.5,17.5,0,0,1,7.3-8.1,22,22,0,0,1,11.5-2.8,18.4,18.4,0,0,1,10.8,3.2,19.6,19.6,0,0,1,6.9,9.1,39.7,39.7,0,0,1,2.4,14.5v3.3h-34.2v-8h24.7c-.3-4.2-1.4-7.4-3.2-9.7a8.9,8.9,0,0,0-7.4-3.4c-3.8,0-6.7,1.2-8.8,3.7s-3.1,6-3.1,10.5v6.4c0,4.2,1.1,7.5,3.4,9.7s5.3,3.4,9.4,3.4a14.4,14.4,0,0,0,6-1.3,16.6,16.6,0,0,0,5.3-3.4l6.6,6.6a31.3,31.3,0,0,1-8.5,5.6,24.3,24.3,0,0,1-9.4,1.9Z"/><path class="cls-3" d="M2055,540h10v50.7h-10Zm24.6,9.6a11.1,11.1,0,0,0-4.6-.8c-3.2,0-5.6.8-7.4,2.6a9.8,9.8,0,0,0-2.6,7.2l-1-9.7a18.4,18.4,0,0,1,6-7.1,14.2,14.2,0,0,1,8.2-2.5,18.1,18.1,0,0,1,6.3,1,14.2,14.2,0,0,1,4.9,2.9l-6.5,8.8A10,10,0,0,0,2079.6,549.6Z"/><path class="cls-3" d="M2092.3,540h10.2l15.6,44.1-5.5,10.8Zm44.9,0-21.6,62.6a15.1,15.1,0,0,1-3,5.5,12,12,0,0,1-4.7,2.9,23.1,23.1,0,0,1-6.9.9h-2v-9.6h2a8.3,8.3,0,0,0,4.5-1.1,10.3,10.3,0,0,0,2.8-3.9l18.8-57.3Z"/><path class="cls-3" d="M2175.1,587.6c-3.1-2.6-4.7-6.6-4.7-11.8s1.4-8.8,4.3-11.3,7.1-3.8,12.8-3.8h14.4l.7,8h-15c-2.6,0-4.6.6-5.9,1.8s-1.9,2.9-1.9,5.3a6.8,6.8,0,0,0,2.6,5.7q2.5,1.8,7.8,1.8c3.8,0,6.6-.4,8.5-1.2a4.1,4.1,0,0,0,2.8-3.8l1,7.1a13,13,0,0,1-3.2,3.4,15.4,15.4,0,0,1-4.5,2,24.9,24.9,0,0,1-5.7.6C2182.8,591.4,2178.2,590.1,2175.1,587.6Zm26.4-29a10.9,10.9,0,0,0-2.7-7.8,10.1,10.1,0,0,0-7.5-2.7,20.8,20.8,0,0,0-6,.9,17.5,17.5,0,0,0-5.1,2.6l-7.3-5a19.4,19.4,0,0,1,7.6-5.4,26.9,26.9,0,0,1,10.5-1.9,23.9,23.9,0,0,1,10.8,2.2,15.3,15.3,0,0,1,6.8,6.5,20.1,20.1,0,0,1,2.4,10.1v32.6h-9.5Z"/><path class="cls-3" d="M2239.6,591.4l-4.9-2.5a17.7,17.7,0,0,1-7.5-7.6,25.5,25.5,0,0,1-2.6-11.9v-8.3a25.4,25.4,0,0,1,2.6-11.8,16.8,16.8,0,0,1,7.5-7.4,24.2,24.2,0,0,1,11.8-2.6,29.7,29.7,0,0,1,7.5.9,25.7,25.7,0,0,1,6.3,2.8,17.5,17.5,0,0,1,4.6,4.4l-7.2,6.4a15.2,15.2,0,0,0-5-3.7,13.8,13.8,0,0,0-6-1.3c-3.8,0-6.8,1-8.9,3.2s-3.2,5.2-3.2,9.1v8.3c0,4,1,7.1,3.1,9.3s5.1,3.3,9,3.3a13.9,13.9,0,0,0,6-1.4,15,15,0,0,0,5-4l7.2,6.9a17.6,17.6,0,0,1-4.7,4.3,20,20,0,0,1-6.3,2.7,28.9,28.9,0,0,1-7.4.9Z"/><path class="cls-3" d="M2272,540h22.8v9H2272Zm8.1,47.6c-1.9-2.3-2.9-5.6-2.9-10.1V525.3h10v52.3a4.8,4.8,0,0,0,.7,2.9,2.7,2.7,0,0,0,2.2,1h4.7V591h-5.7C2285,591,2282,589.8,2280.1,587.6Z"/><path class="cls-3" d="M824.6,711.4l-4.9-2.5a17.7,17.7,0,0,1-7.5-7.6,25.5,25.5,0,0,1-2.6-11.9v-8.3a25.4,25.4,0,0,1,2.6-11.8,16.8,16.8,0,0,1,7.5-7.4,24.3,24.3,0,0,1,11.9-2.6,29.4,29.4,0,0,1,7.4.9,25.7,25.7,0,0,1,6.3,2.8,17.5,17.5,0,0,1,4.6,4.4l-7.2,6.4a15.2,15.2,0,0,0-5-3.7,13.8,13.8,0,0,0-6-1.3c-3.8,0-6.8,1-8.9,3.2s-3.2,5.2-3.2,9.1v8.3c0,4,1,7.1,3.1,9.3s5.1,3.3,9,3.3a14.7,14.7,0,0,0,6.1-1.4,15.7,15.7,0,0,0,4.9-4l7.2,6.9a17.6,17.6,0,0,1-4.7,4.3,20.5,20.5,0,0,1-6.2,2.7,30,30,0,0,1-7.4.9Z"/><path class="cls-3" d="M860.9,660h10v50.7h-10Zm24.6,9.6a11.6,11.6,0,0,0-4.7-.8c-3.1,0-5.6.8-7.3,2.6s-2.6,4.1-2.6,7.2l-1.1-9.7a18.6,18.6,0,0,1,6.1-7.1,14.2,14.2,0,0,1,8.2-2.5,18.1,18.1,0,0,1,6.3,1,15.1,15.1,0,0,1,4.9,2.9l-6.5,8.8A10,10,0,0,0,885.5,669.6Z"/><path class="cls-3" d="M916.3,711.4l-5-2.6a18.2,18.2,0,0,1-7.6-7.7,27.4,27.4,0,0,1-2.6-12.4V683a29.2,29.2,0,0,1,2.6-12.8,17,17,0,0,1,7.3-8.1,21.8,21.8,0,0,1,11.5-2.8,18.4,18.4,0,0,1,10.8,3.2,19.6,19.6,0,0,1,6.9,9.1,39.8,39.8,0,0,1,2.3,14.5v3.3H908.4v-8h24.7c-.3-4.2-1.4-7.4-3.2-9.7a9,9,0,0,0-7.4-3.4c-3.8,0-6.7,1.2-8.8,3.7s-3.1,6-3.1,10.5v6.4c0,4.2,1.1,7.5,3.3,9.7s5.4,3.4,9.5,3.4a14.4,14.4,0,0,0,6-1.3,17.7,17.7,0,0,0,5.3-3.4l6.5,6.6a29.4,29.4,0,0,1-8.4,5.6,24.3,24.3,0,0,1-9.4,1.9Z"/><path class="cls-3" d="M958.4,707.6c-3.1-2.6-4.6-6.6-4.6-11.8s1.4-8.8,4.2-11.3,7.1-3.8,12.9-3.8h14.4l.7,8H970.9c-2.6,0-4.5.6-5.8,1.8s-2,2.9-2,5.3a6.8,6.8,0,0,0,2.6,5.7q2.5,1.8,7.8,1.8c3.8,0,6.6-.4,8.5-1.2a4,4,0,0,0,2.8-3.8l1.1,7.1a11.9,11.9,0,0,1-3.3,3.4,15.4,15.4,0,0,1-4.5,2,24.9,24.9,0,0,1-5.7.6C966.2,711.4,961.5,710.1,958.4,707.6Zm26.4-29a11.3,11.3,0,0,0-2.6-7.8c-1.8-1.8-4.3-2.7-7.6-2.7a19.6,19.6,0,0,0-5.9.9,18.1,18.1,0,0,0-5.2,2.6l-7.2-5a18.7,18.7,0,0,1,7.6-5.4,26.8,26.8,0,0,1,10.4-1.9,23.9,23.9,0,0,1,10.8,2.2A15.5,15.5,0,0,1,992,668a21.2,21.2,0,0,1,2.3,10.1v32.6h-9.5Z"/><path class="cls-3" d="M1005.5,660h22.9v9h-22.9Zm8.1,47.6c-1.9-2.3-2.8-5.6-2.8-10.1V645.3h9.9v52.3a5.6,5.6,0,0,0,.7,2.9,2.9,2.9,0,0,0,2.2,1h4.8V711h-5.8C1018.5,711,1015.5,709.8,1013.6,707.6Z"/><path class="cls-3" d="M1055.8,711.4l-5-2.6a17.7,17.7,0,0,1-7.6-7.7,27.4,27.4,0,0,1-2.6-12.4V683a29.2,29.2,0,0,1,2.5-12.8,17.5,17.5,0,0,1,7.3-8.1,22,22,0,0,1,11.5-2.8,18.5,18.5,0,0,1,10.9,3.2,19.4,19.4,0,0,1,6.8,9.1,39.7,39.7,0,0,1,2.4,14.5v3.3h-34.2v-8h24.7c-.3-4.2-1.3-7.4-3.2-9.7a8.9,8.9,0,0,0-7.4-3.4c-3.7,0-6.7,1.2-8.7,3.7s-3.1,6-3.1,10.5v6.4c0,4.2,1.1,7.5,3.3,9.7s5.3,3.4,9.4,3.4a14.4,14.4,0,0,0,6-1.3,15.5,15.5,0,0,0,5.3-3.4l6.6,6.6a28.5,28.5,0,0,1-8.5,5.6,23.9,23.9,0,0,1-9.4,1.9Z"/><path class="cls-3" d="M1109.1,711.4l-3.9-.8a29.6,29.6,0,0,1-7.4-2.7,24.7,24.7,0,0,1-6.3-4.4l5.9-7.2a35.9,35.9,0,0,0,8.2,4.6,21.1,21.1,0,0,0,8,1.6c3.9,0,6.9-.6,8.9-1.8a6.2,6.2,0,0,0,2.9-5.5,4.3,4.3,0,0,0-1.6-3.7,9.6,9.6,0,0,0-4-1.6c-1.6-.3-3.9-.5-6.7-.8h-2.5a40,40,0,0,1-8.3-1.5,11.3,11.3,0,0,1-5.7-3.9c-1.5-1.9-2.3-4.7-2.3-8.2a16.7,16.7,0,0,1,2.2-9,13.2,13.2,0,0,1,6.5-5.3,28.9,28.9,0,0,1,10.9-1.8,37,37,0,0,1,7.6.7,30.1,30.1,0,0,1,6.8,2.2,39.4,39.4,0,0,1,6.3,3.6l-6,7.3a32.1,32.1,0,0,0-7.5-3.6,20.3,20.3,0,0,0-7.2-1.3c-3.4,0-5.9.6-7.6,1.8a5.8,5.8,0,0,0-2.5,5.2,3.5,3.5,0,0,0,1.4,3,8.2,8.2,0,0,0,3.7,1.4l6.2.6h1.9a42.1,42.1,0,0,1,9,1.5,12.2,12.2,0,0,1,6.3,4.2c1.7,2.1,2.5,5.2,2.5,9.2a16.7,16.7,0,0,1-2.3,9,14.1,14.1,0,0,1-7.1,5.4,33.3,33.3,0,0,1-11.8,1.8Z"/><path class="cls-3" d="M1176.6,707.6c-3.1-2.6-4.7-6.6-4.7-11.8s1.5-8.8,4.3-11.3,7.1-3.8,12.8-3.8h14.4l.7,8h-15c-2.6,0-4.6.6-5.9,1.8a7,7,0,0,0-1.9,5.3,6.8,6.8,0,0,0,2.6,5.7q2.5,1.8,7.8,1.8c3.8,0,6.6-.4,8.5-1.2a4,4,0,0,0,2.8-3.8l1,7.1a11.6,11.6,0,0,1-3.2,3.4,15.4,15.4,0,0,1-4.5,2,24.9,24.9,0,0,1-5.7.6C1184.3,711.4,1179.7,710.1,1176.6,707.6Zm26.4-29a10.9,10.9,0,0,0-2.7-7.8c-1.7-1.8-4.3-2.7-7.5-2.7a19.6,19.6,0,0,0-5.9.9,16.9,16.9,0,0,0-5.2,2.6l-7.3-5a19.4,19.4,0,0,1,7.6-5.4,27.6,27.6,0,0,1,10.5-1.9,23.9,23.9,0,0,1,10.8,2.2,14.8,14.8,0,0,1,6.8,6.5,20.1,20.1,0,0,1,2.4,10.1v32.6H1203Z"/><path class="cls-3" d="M1254.5,660h9.9v50.7h-9.9Zm24.5,9.6a11.1,11.1,0,0,0-4.6-.8c-3.2,0-5.6.8-7.4,2.6a9.8,9.8,0,0,0-2.6,7.2l-1-9.7a19.3,19.3,0,0,1,6-7.1,14.5,14.5,0,0,1,8.3-2.5,17.2,17.2,0,0,1,6.2,1,14.2,14.2,0,0,1,4.9,2.9l-6.5,8.8A8.3,8.3,0,0,0,1279,669.6Z"/><path class="cls-3" d="M1297.1,639.7h10v10h-10Zm0,20.3h10v50.7h-10Z"/><path class="cls-3" d="M1322.2,660h10v71.3h-10Zm14.5,49.2a13.2,13.2,0,0,1-5.2-6.4l.7-10.6a11.8,11.8,0,0,0,1.2,5.5,7.2,7.2,0,0,0,3.4,3.5,11.4,11.4,0,0,0,13-1.7c1.8-2,2.7-4.9,2.7-8.5V680c0-3.7-.9-6.6-2.7-8.6a9.5,9.5,0,0,0-7.6-3.1,10.8,10.8,0,0,0-5.4,1.2,7,7,0,0,0-3.4,3.4,11.3,11.3,0,0,0-1.2,5.4l-1-9.7a17,17,0,0,1,6-6.9,14.6,14.6,0,0,1,8.2-2.4,16.8,16.8,0,0,1,9.2,2.4,15.4,15.4,0,0,1,5.9,7.1,28.6,28.6,0,0,1,2,11.1V691a26,26,0,0,1-2.1,11,15.4,15.4,0,0,1-6,7,17.9,17.9,0,0,1-9.5,2.4A14.8,14.8,0,0,1,1336.7,709.2Z"/><path class="cls-3" d="M1376.6,660h10v71.3h-10Zm14.5,49.2a13.2,13.2,0,0,1-5.2-6.4l.7-10.6a11.8,11.8,0,0,0,1.2,5.5,7.2,7.2,0,0,0,3.4,3.5,9.7,9.7,0,0,0,5.3,1.3c3.3,0,5.9-1,7.7-3s2.7-4.9,2.7-8.5V680c0-3.7-.9-6.6-2.7-8.6s-4.4-3.1-7.7-3.1a10.7,10.7,0,0,0-5.3,1.2,7,7,0,0,0-3.4,3.4,11.3,11.3,0,0,0-1.2,5.4l-1-9.7a17,17,0,0,1,6-6.9,14.6,14.6,0,0,1,8.2-2.4,16.8,16.8,0,0,1,9.2,2.4,15.4,15.4,0,0,1,5.9,7.1,28.6,28.6,0,0,1,2,11.1V691a26,26,0,0,1-2.1,11,15.4,15.4,0,0,1-6,7,17.9,17.9,0,0,1-9.5,2.4A14.8,14.8,0,0,1,1391.1,709.2Z"/><path class="cls-3" d="M1441,697.6a4.2,4.2,0,0,0,.8,2.9,2.9,2.9,0,0,0,2.3,1h4.6V711h-5.8c-3.8,0-6.7-1.2-8.8-3.6s-3.1-5.6-3.1-9.9V639.7h10Z"/><path class="cls-3" d="M1473.7,711.4l-5-2.6a18.2,18.2,0,0,1-7.6-7.7,27.4,27.4,0,0,1-2.6-12.4V683a29.2,29.2,0,0,1,2.5-12.8,17.5,17.5,0,0,1,7.3-8.1,22.3,22.3,0,0,1,11.5-2.8,18.5,18.5,0,0,1,10.9,3.2,18.8,18.8,0,0,1,6.8,9.1,39.7,39.7,0,0,1,2.4,14.5v3.3h-34.2v-8h24.7c-.2-4.2-1.3-7.4-3.2-9.7a8.9,8.9,0,0,0-7.4-3.4c-3.7,0-6.7,1.2-8.7,3.7s-3.1,6-3.1,10.5v6.4c0,4.2,1.1,7.5,3.3,9.7s5.4,3.4,9.4,3.4a14.4,14.4,0,0,0,6-1.3,17,17,0,0,0,5.4-3.4l6.5,6.6a29.4,29.4,0,0,1-8.4,5.6,24.8,24.8,0,0,1-9.5,1.9Z"/><path class="cls-3" d="M1536,660h10.4l9,36.2,12.7-36.2h6.9l12.7,36.2,8.9-36.2H1607l-15.6,50.7h-7.5l-12.4-35-12.3,35h-7.5Z"/><path class="cls-3" d="M1617.8,639.7h9.9v10h-9.9Zm0,20.3h9.9v50.7h-9.9Z"/><path class="cls-3" d="M1639,660h22.8v9H1639Zm8.1,47.6c-1.9-2.3-2.9-5.6-2.9-10.1V645.3h10v52.3a4.8,4.8,0,0,0,.7,2.9,2.7,2.7,0,0,0,2.1,1h4.8V711h-5.7C1652,711,1649,709.8,1647.1,707.6Z"/><path class="cls-3" d="M1675.5,639.7h10v71h-10Zm30.8,40.3c0-3.6-1-6.4-2.8-8.3s-4.5-2.9-7.8-2.9-5.8.8-7.6,2.5-2.6,4.1-2.6,7.2l-1.1-9.8a17.4,17.4,0,0,1,6.2-6.9,14.5,14.5,0,0,1,8.3-2.5c5.5,0,9.8,1.8,12.8,5.4s4.5,8.7,4.5,15.2v30.8h-9.9Z"/><path class="cls-3" d="M1758.2,660h10v50.7h-10Zm30.8,20c0-3.6-.9-6.4-2.8-8.3s-4.5-2.9-7.8-2.9-5.8.8-7.6,2.6a9.8,9.8,0,0,0-2.6,7.2l-1-9.7a17.1,17.1,0,0,1,6.1-7.1,14.6,14.6,0,0,1,8.4-2.5c5.5,0,9.7,1.8,12.7,5.4s4.5,8.7,4.5,15.2v30.8H1789Z"/><path class="cls-3" d="M1822.2,708.9a17.4,17.4,0,0,1-7.1-7.6,25.8,25.8,0,0,1-2.5-11.9v-8.3a25.4,25.4,0,0,1,2.5-11.8,16.9,16.9,0,0,1,7.1-7.4,22.5,22.5,0,0,1,11.3-2.6,22.2,22.2,0,0,1,11.3,2.6,16.9,16.9,0,0,1,7.1,7.4,25.4,25.4,0,0,1,2.5,11.8v8.4a25.8,25.8,0,0,1-2.5,11.9,17.7,17.7,0,0,1-7.1,7.5,23.3,23.3,0,0,1-11.3,2.5A23.6,23.6,0,0,1,1822.2,708.9Zm19.4-10.2c1.9-2.2,2.8-5.2,2.8-9.2v-8.4c0-3.9-.9-7-2.8-9.1s-4.6-3.2-8.1-3.2-6.2,1-8.1,3.2-2.8,5.2-2.8,9.1v8.4c0,4,.9,7,2.8,9.2s4.6,3.3,8.1,3.3S1839.7,700.9,1841.6,698.7Z"/><path class="cls-3" d="M1905.4,697.6a4.8,4.8,0,0,0,.8,2.9,2.9,2.9,0,0,0,2.3,1h4.6V711h-5.8c-3.8,0-6.7-1.2-8.8-3.6s-3.1-5.6-3.1-9.9V639.7h10Z"/><path class="cls-3" d="M1932.5,708.9a17.4,17.4,0,0,1-7.1-7.6,25.8,25.8,0,0,1-2.5-11.9v-8.3a25.4,25.4,0,0,1,2.5-11.8,16.9,16.9,0,0,1,7.1-7.4,22.5,22.5,0,0,1,11.3-2.6,22.2,22.2,0,0,1,11.3,2.6,16.9,16.9,0,0,1,7.1,7.4,25.4,25.4,0,0,1,2.5,11.8v8.4a25.8,25.8,0,0,1-2.5,11.9,17.7,17.7,0,0,1-7.1,7.5,23.3,23.3,0,0,1-11.3,2.5A23.6,23.6,0,0,1,1932.5,708.9Zm19.4-10.2c1.9-2.2,2.9-5.2,2.9-9.2v-8.4c0-3.9-1-7-2.9-9.1s-4.6-3.2-8.1-3.2-6.2,1-8.1,3.2-2.8,5.2-2.8,9.1v8.4c0,4,.9,7,2.8,9.2s4.6,3.3,8.1,3.3S1950,700.9,1951.9,698.7Z"/><path class="cls-3" d="M1985.4,709.2a14.9,14.9,0,0,1-5.9-7.1,26.8,26.8,0,0,1-2.1-11.1V679.8a28.8,28.8,0,0,1,2-11.2,15,15,0,0,1,5.8-7,17.3,17.3,0,0,1,9.2-2.5,15.2,15.2,0,0,1,8.3,2.4,17.4,17.4,0,0,1,6,6.6l-1,10.3a11.8,11.8,0,0,0-1.2-5.5,8.2,8.2,0,0,0-3.4-3.5,11.3,11.3,0,0,0-5.4-1.2,9.7,9.7,0,0,0-7.6,3.1c-1.8,2.1-2.7,4.9-2.7,8.6V691c0,3.7.9,6.5,2.7,8.5s4.3,3,7.6,3a11.3,11.3,0,0,0,5.4-1.2,9,9,0,0,0,3.4-3.6,12.5,12.5,0,0,0,1.2-5.6l.7,10.7a14,14,0,0,1-13.5,8.8A18.1,18.1,0,0,1,1985.4,709.2Zm4.8,22.1-4.6-2.1a16.4,16.4,0,0,1-7-6l6.8-6.1a14.1,14.1,0,0,0,4.6,4.2,12.6,12.6,0,0,0,5.7,1.4c3.8,0,6.8-1,8.9-3.1s3.1-5.1,3.1-8.9V660h9.9v49.2a26.2,26.2,0,0,1-2.5,12,17,17,0,0,1-7.5,7.5,23.5,23.5,0,0,1-11.7,2.6Z"/><path class="cls-3" d="M2032.8,639.7h9.9v10h-9.9Zm0,20.3h9.9v50.7h-9.9Z"/><path class="cls-3" d="M2071.4,711.4l-4.9-2.5a17.7,17.7,0,0,1-7.5-7.6,25.5,25.5,0,0,1-2.6-11.9v-8.3a25.4,25.4,0,0,1,2.6-11.8,16.8,16.8,0,0,1,7.5-7.4,24.2,24.2,0,0,1,11.8-2.6,29.7,29.7,0,0,1,7.5.9,25.7,25.7,0,0,1,6.3,2.8,17.5,17.5,0,0,1,4.6,4.4l-7.2,6.4a15.2,15.2,0,0,0-5-3.7,13.8,13.8,0,0,0-6-1.3c-3.9,0-6.8,1-9,3.2s-3.1,5.2-3.1,9.1v8.3c0,4,1,7.1,3.1,9.3s5.1,3.3,9,3.3a13.9,13.9,0,0,0,6-1.4,15,15,0,0,0,5-4l7.2,6.9a17.6,17.6,0,0,1-4.7,4.3,20,20,0,0,1-6.3,2.7,29.4,29.4,0,0,1-7.4.9Z"/><path class="cls-3" d="M2109.9,707.6c-3.1-2.6-4.7-6.6-4.7-11.8s1.5-8.8,4.3-11.3,7.1-3.8,12.8-3.8h14.4l.7,8h-15c-2.6,0-4.6.6-5.9,1.8a7,7,0,0,0-1.9,5.3,6.8,6.8,0,0,0,2.6,5.7q2.6,1.8,7.8,1.8c3.8,0,6.6-.4,8.5-1.2a4,4,0,0,0,2.8-3.8l1,7.1a11.6,11.6,0,0,1-3.2,3.4,15.4,15.4,0,0,1-4.5,2,24.9,24.9,0,0,1-5.7.6C2117.6,711.4,2113,710.1,2109.9,707.6Zm26.4-29a10.9,10.9,0,0,0-2.7-7.8c-1.7-1.8-4.3-2.7-7.5-2.7a19.6,19.6,0,0,0-5.9.9,16.9,16.9,0,0,0-5.2,2.6l-7.3-5a19.4,19.4,0,0,1,7.6-5.4,27.6,27.6,0,0,1,10.5-1.9,23.9,23.9,0,0,1,10.8,2.2,14.8,14.8,0,0,1,6.8,6.5,20.1,20.1,0,0,1,2.4,10.1v32.6h-9.5Z"/><path class="cls-3" d="M2170.9,697.6a4.2,4.2,0,0,0,.8,2.9,2.9,2.9,0,0,0,2.2,1h4.7V711h-5.8c-3.8,0-6.7-1.2-8.8-3.6s-3.1-5.6-3.1-9.9V639.7h10Z"/><path class="cls-3" d="M824.8,831.4l-5-2.6a18.2,18.2,0,0,1-7.6-7.7,27.4,27.4,0,0,1-2.6-12.4V803a30.7,30.7,0,0,1,2.5-12.8,18.1,18.1,0,0,1,7.3-8.1,22.4,22.4,0,0,1,11.6-2.8,18.4,18.4,0,0,1,10.8,3.2,19.6,19.6,0,0,1,6.9,9.1,39.8,39.8,0,0,1,2.3,14.5v3.3H816.9v-8h24.7c-.3-4.2-1.4-7.4-3.2-9.7a9,9,0,0,0-7.4-3.4c-3.8,0-6.7,1.2-8.8,3.7s-3.1,6-3.1,10.5v6.4c0,4.2,1.1,7.5,3.3,9.7s5.4,3.4,9.5,3.4a16.1,16.1,0,0,0,6-1.2,20.3,20.3,0,0,0,5.3-3.5l6.5,6.6a29.4,29.4,0,0,1-8.4,5.6,24.7,24.7,0,0,1-9.4,1.9Z"/><path class="cls-3" d="M864.7,780h10v50.7h-10Zm30.8,20a11.9,11.9,0,0,0-2.8-8.3c-1.9-2-4.5-2.9-7.8-2.9s-5.8.8-7.6,2.6a9.8,9.8,0,0,0-2.6,7.2l-1.1-9.7a18.1,18.1,0,0,1,6.2-7.1,14.5,14.5,0,0,1,8.3-2.5c5.5,0,9.8,1.8,12.8,5.4s4.5,8.7,4.5,15.2v30.8h-9.9Z"/><path class="cls-3" d="M927.1,829.2a14.9,14.9,0,0,1-5.9-7.1,26.8,26.8,0,0,1-2.1-11.1V799.8a28.8,28.8,0,0,1,2-11.2,15,15,0,0,1,5.8-7,17.3,17.3,0,0,1,9.2-2.5,15.2,15.2,0,0,1,8.3,2.4,17.4,17.4,0,0,1,6,6.6l-1,10.3a11.8,11.8,0,0,0-1.2-5.5,8.2,8.2,0,0,0-3.4-3.5,11.3,11.3,0,0,0-5.4-1.2,9.7,9.7,0,0,0-7.6,3.1c-1.8,2.1-2.7,4.9-2.7,8.6V811c0,3.7.9,6.5,2.7,8.5s4.3,3,7.6,3a11.3,11.3,0,0,0,5.4-1.2,9,9,0,0,0,3.4-3.6,12.5,12.5,0,0,0,1.2-5.6l.7,10.7a14,14,0,0,1-13.5,8.8A18.1,18.1,0,0,1,927.1,829.2Zm22.3-69.5h9.9v71h-9.9Z"/><path class="cls-3" d="M972.8,820.3h10.4v10.4H972.8Z"/></g><g id="Layer_3" data-name="Layer 3"><text class="cls-4" transform="translate(1975.3 891)">- S<tspan class="cls-5" x="50.6" y="0">C</tspan><tspan class="cls-6" x="78.5" y="0">O</tspan><tspan class="cls-7" x="111.7" y="0">T</tspan><tspan x="138.5" y="0">T A</tspan><tspan class="cls-8" x="204.5" y="0">D</tspan><tspan class="cls-9" x="237.1" y="0">A</tspan><tspan x="267.5" y="0">MS</tspan></text></g></svg>