<svg id="Illustration" xmlns="http://www.w3.org/2000/svg" viewBox="0 0 1920 1932.2"><defs><style>.cls-1{fill:#66c7f4;opacity:0.28;}.cls-1,.cls-11,.cls-12,.cls-13,.cls-14,.cls-15,.cls-16,.cls-17,.cls-18,.cls-19,.cls-2,.cls-20,.cls-21,.cls-22,.cls-23,.cls-3,.cls-5,.cls-7,.cls-8,.cls-9{fill-rule:evenodd;}.cls-2{fill:#dfe6ff;}.cls-3{fill:#0ebaa0;}.cls-4{fill:#16888c;}.cls-5{fill:#24d1b3;}.cls-11,.cls-6{fill:#edc06d;}.cls-10,.cls-7{fill:#fff;}.cls-8{fill:#1484ac;}.cls-9{fill:#ea718b;}.cls-12{fill:#060352;}.cls-13{fill:#ffaa81;}.cls-14{fill:#ff9866;}.cls-15{fill:#78b14f;}.cls-16{fill:#ffbb9b;}.cls-17{fill:#42c5a0;}.cls-18{fill:#2db289;}.cls-19{fill:#2c7efe;}.cls-20{fill:#0643a3;}.cls-21{fill:#8183f1;}.cls-22{fill:#dfcffd;}.cls-23{fill:#be96f8;}</style></defs><title>kindness_modal</title><path class="cls-1" d="M1705.7,541C1590.3,258.7,1258.5,66.8,873.6,87.4,401.7,112.7,28.6,448.1,40.2,836.3c5.7,189.5,102,356.6,254.1,475,115.4,282.3,447.2,474.4,832.2,453.7,471.8-25.4,844.9-360.7,833.3-749-5.7-189.4-102-356.5-254.1-475Z" transform="translate(-40 -33.9)"/><path class="cls-2" d="M1000.2,1966.1c499.2,0,906.6-25.1,906.6-55.3s-407.4-55.3-906.6-55.3-907,25-907,55.3,407.4,55.3,907,55.3Z" transform="translate(-40 -33.9)"/><path class="cls-3" d="M462.7,539.9c16.2-41.2,11.1-133.4-26.6-189.3-11.4-17.2-51.1-76.4-84.9-52.5-6.6,23.9,26.2,68.5-19.8,71.6-22.6-5.2,17.8-55.5,2.7-72.3-23.4-19.9-80.8-30.4-105.8-5.2-3.1,15.3,54.5,81.9,38.8,94.7-17.7,8.5-28-48-42-72-16.7-22.6-57.8-1.9-84,8.2,31.7,17.1,54.2,37.2,46.2,47.1-21.8,21.5-27.2-42.4-46.2-47.1-38.2,14.6-53.9,3.2-66.9,23,1.3,28.4,2.6,41.6,17.7,64.1,34,48.1,113.4-.2,115.4,19.7-6.2,16.9-74.1,5.7-78.5,15.8-12.7,19.1,12.8,58.9,32.9,59.9,29.8,1.4,95.3-42.5,104.2-28.8,11.3,17.1-86.2,34.7-90.9,69.7-1,29.1,29.2,58.3,52.6,74.3,27.4,27.9,82.9-99.5,95.8-93.8C344,557.6,233.7,637.1,288,659.2c30.2,9.4,59.6-2.7,87.5-16.1,43.1-20.7,76.5-73.5,87.2-103.2ZM232.9,525.1c1.5-4.6,7-7,12.1-5.3s8.2,7,6.6,11.7-7.1,7-12.3,5.3-8.1-7-6.4-11.7Zm69.2-94.3c7.3,13.1,14.5-7.6,12-15.4-1.1-10.2-5.2-24.6-16.3-27.3-9.8,8.5-4.4,26.1,4.3,42.7Zm61.3,14.4c-20.7-7.2-7.7-50.3,4-53.2,11.1.7,11.7,54.3-4,53.2Zm-6.9,104.4c-2.8,7.8,8.5,3.3,10.8-.5,3.9-4,8.4-11,5.5-16.5-7-1.1-12.4,7.4-16.3,17ZM197.8,449.2c5-7.7,17.5-9.4,26.2-8.6,3.1,6.2-6.4,10-12.2,13s-15.4,1.9-14-4.4Z" transform="translate(-40 -33.9)"/><path class="cls-4" d="M575.3,626.8a3.9,3.9,0,0,1-2.2-.9C435,513.9,287.5,432.3,122.2,376.5a3.8,3.8,0,0,1-2.4-4.7,3.6,3.6,0,0,1,4.7-2.3A1439.7,1439.7,0,0,1,374.9,481.4,1491.2,1491.2,0,0,1,577.8,620.2a3.7,3.7,0,0,1,.5,5.2A3.9,3.9,0,0,1,575.3,626.8Z" transform="translate(-40 -33.9)"/><path class="cls-4" d="M244.1,423.5a3.6,3.6,0,0,1-3.6-3.5c-1.3-34.9-16.8-62.6-46.3-82.3a3.6,3.6,0,0,1-1-5.1,3.7,3.7,0,0,1,5.1-1c15.1,10,26.9,22.2,35.2,36.3s13.7,32.6,14.4,51.8a3.7,3.7,0,0,1-3.6,3.8Z" transform="translate(-40 -33.9)"/><path class="cls-4" d="M392.2,499.4a4.2,4.2,0,0,1-1.6-.4,3.9,3.9,0,0,1-1.6-5.1c28.8-54.5,24.7-111.8-11.9-165.8a3.6,3.6,0,0,1,1-5.1,3.7,3.7,0,0,1,5.1,1c38.2,56.3,42.5,116.3,12.4,173.4A3.8,3.8,0,0,1,392.2,499.4Z" transform="translate(-40 -33.9)"/><path class="cls-4" d="M224.1,569.6a3.6,3.6,0,0,1-3.4-2.5,3.7,3.7,0,0,1,2.3-4.7c49.2-16.8,78.1-47,99.7-104.6a3.8,3.8,0,0,1,7,2.7c-10.9,28.8-22.9,50-37.9,66.7-17.1,19-38.8,32.8-66.4,42.2A3,3,0,0,1,224.1,569.6Z" transform="translate(-40 -33.9)"/><path class="cls-4" d="M312.2,635a3.7,3.7,0,0,1-1.1-7.2c84.3-29.5,106.3-74.1,116-109.7a3.7,3.7,0,0,1,4.5-2.6,3.6,3.6,0,0,1,2.6,4.5c-10.2,37.4-33.1,84.2-120.7,114.8Z" transform="translate(-40 -33.9)"/><path class="cls-5" d="M548.1,486.9c39.5-20.2,96.8-92.5,105.6-159.4,2.9-20.4,12.4-91.1-28.7-95.6-20.8,13.6-25.8,68.7-62.3,40.5-13.5-18.9,50.1-29.7,50-52.3-4.4-30.5-40.4-76.3-75.8-74-12.4,9.3-13.5,97.3-33.8,96.6-18.8-5.5,10.9-54.5,16.4-81.8,2.5-28-42-39.7-68.4-49.6,12.4,33.8,15.9,63.8,3.4,66-30.6,1.6,7.8-49.9-3.4-66C412.9,96.9,408.7,78,385.9,84.1c-18,22.3-25.7,32.9-29.4,59.9-6.4,58.6,85,74.9,73.4,91.2-15.8,8.6-59.3-44.9-69.3-40.3-22.1,6-29.5,52.7-15,66.7,21.3,20.8,99.5,31.4,97.1,47.6-2.9,20.2-87.6-31.3-114.3-8.1-20.1,21-16.8,62.9-9.9,90.4,2,39.1,128-19.5,133.9-6.7-4.9,36.6-140.1,23-114.1,75.6,16.4,27,46.3,37.5,76.1,45.9,46,13,105.9-4.3,133.7-19.4ZM385.8,323.4c4.3-2.4,10-.6,12.7,4.1s1.4,10.6-2.9,13-9.9.6-12.7-4.1-1.3-10.5,2.9-13Zm114.4-24.6c-3.3,14.6,15.9,3.8,19.3-3.6,5.9-8.4,12.3-21.9,5.8-31.2-13-.2-20.5,16.5-25.1,34.8Zm36.3,51.4c-10.6-19.1,27.6-42.8,38.4-37.2,7.9,7.8-27.2,48.3-38.4,37.2Zm-74.3,73.5c-7.3,4,4,8.1,8.4,6.9s13.5-2.7,15.1-8.8c-4.5-5.5-14.2-2.7-23.5,1.9ZM409.9,243.3c9-2.5,19.4,4.6,25.3,11-1.8,6.6-11.5,3.2-17.6,1.6s-12.9-8.8-7.7-12.6Z" transform="translate(-40 -33.9)"/><path class="cls-4" d="M577.2,627.6a3.7,3.7,0,0,1-3.5-3.1C544.5,449,488.3,290.1,401.6,138.7a3.7,3.7,0,0,1,1.4-5.1,3.7,3.7,0,0,1,5,1.4A1447.1,1447.1,0,0,1,521.2,384.8,1499.4,1499.4,0,0,1,581,623.3a3.7,3.7,0,0,1-3.1,4.2Z" transform="translate(-40 -33.9)"/><path class="cls-4" d="M464,255.9a3.6,3.6,0,0,1-2.2-.9,3.7,3.7,0,0,1-.5-5.2c22.2-27,28.9-58,19.9-92.3a3.7,3.7,0,0,1,2.6-4.5,3.8,3.8,0,0,1,4.6,2.6c9.6,36.7,2.4,70-21.4,98.9A4.1,4.1,0,0,1,464,255.9Z" transform="translate(-40 -33.9)"/><path class="cls-4" d="M524.6,410.8a3.9,3.9,0,0,1-3.4-2.4,3.8,3.8,0,0,1,2.2-4.8c57.7-21.7,92.6-67.4,101-132a3.9,3.9,0,0,1,4.2-3.2,3.7,3.7,0,0,1,3.2,4.2C623,340.1,586.4,387.8,526,410.5Z" transform="translate(-40 -33.9)"/><path class="cls-4" d="M408.5,364.9c-18.8-.6-37.8-5-57.6-13.3a3.7,3.7,0,0,1-2-4.8,3.7,3.7,0,0,1,4.9-2c47.9,20.1,89.6,16.5,144-12.2a3.7,3.7,0,1,1,3.4,6.6c-27.2,14.4-50.3,22.3-72.5,24.8A136.6,136.6,0,0,1,408.5,364.9Z" transform="translate(-40 -33.9)"/><path class="cls-4" d="M454.3,478.2c-22.5-.7-49-6.2-80.7-19.2a3.7,3.7,0,0,1-2-4.8,3.8,3.8,0,0,1,4.8-2.1c82.6,33.9,128.6,15,159.5-5.2a3.7,3.7,0,0,1,4.1,6.2C519.5,466.5,492.8,479.3,454.3,478.2Z" transform="translate(-40 -33.9)"/><path class="cls-3" d="M729.6,451.5c43.5,8.3,133.2-13.8,181.2-61.1,14.8-14.4,65.7-64.3,36-93.1-24.8-2.1-62.6,38.4-74.1-6.2,1-23.3,57.8,7.2,71.5-10.7,15.3-26.7,15-85-14.4-105-15.5-.2-70.3,68.7-85.9,55.7-11.6-15.9,42-36.5,63-54.6,19.2-20.6-8.8-57.2-23.5-81.1-11,34.3-26.5,60.1-37.8,54.1C820.5,132,882.3,115,883.4,95.4,862,60.6,870.3,43,848.5,33.9c-27.7,6.5-40.4,10.2-59.8,29.2-41,42.3,21.1,111.4,1.9,117.1-17.7-3-19.3-71.8-30-74.3-21.1-8.9-55.5,23.5-52.7,43.4,4,29.5,59.3,85.9,47.5,97.1-14.7,14.3-50-78.4-85.3-76.5-28.8,4.3-51.9,39.4-63.3,65.4-22.4,32.1,113,63.1,109.8,76.8-26.2,25.9-124.7-67.8-136.5-10.3-3.6,31.4,13.7,58,32,83,28.3,38.5,86.3,61.6,117.5,66.7ZM701.8,222.8c4.8.7,8.2,5.6,7.4,11s-5.4,9.3-10.3,8.6-8.2-5.7-7.4-11.1,5.4-9.2,10.3-8.5Zm105.4,50.7c-11.5,9.6,10.2,12.8,17.4,9,9.8-3,23.2-9.7,23.8-21.1-10.2-8.1-26.4.5-41.2,12.1Zm-2.8,62.9c3.2-21.7,48-16.8,53-5.9,1.4,11.1-51.2,21.5-53,5.9ZM700.5,348.9c-8.2-1.4-1.7,8.9,2.5,10.5,4.7,3.1,12.3,6.2,17.3,2.4-.3-7.1-9.7-10.9-19.8-12.9Zm69.4-174.6c8.5,3.5,12.5,15.5,13.3,24.2-5.5,4.2-11.1-4.4-15-9.5s-4.8-14.9,1.7-14.7Z" transform="translate(-40 -33.9)"/><path class="cls-4" d="M665,578.2a4.1,4.1,0,0,1,.4-2.4C750,419.4,803,259.4,827.5,86.6a3.6,3.6,0,0,1,4.1-3.1,3.7,3.7,0,0,1,3.2,4.2A1451.5,1451.5,0,0,1,771,354.4a1502.4,1502.4,0,0,1-99.1,225,3.6,3.6,0,0,1-5,1.4A3.4,3.4,0,0,1,665,578.2Z" transform="translate(-40 -33.9)"/><path class="cls-4" d="M803.7,215.1a3.7,3.7,0,0,1,2.8-4.2c34.1-7.6,58.4-28,72.3-60.6a3.7,3.7,0,0,1,4.9-2,3.8,3.8,0,0,1,1.9,4.9c-7.1,16.6-16.9,30.5-29.2,41.2s-29.5,19.6-48.3,23.8a3.7,3.7,0,0,1-4.4-2.8Z" transform="translate(-40 -33.9)"/><path class="cls-4" d="M756.4,374.7a5,5,0,0,1,.2-1.7,3.7,3.7,0,0,1,4.6-2.4c58.9,18.2,114.5,3.6,160.8-42.3a3.6,3.6,0,0,1,5.2,0,3.7,3.7,0,0,1,0,5.2c-48.4,48-106.5,63.2-168.2,44.1A3.8,3.8,0,0,1,756.4,374.7Z" transform="translate(-40 -33.9)"/><path class="cls-4" d="M656.4,222.4a3.7,3.7,0,0,1,6.9-2.4c25.6,45.3,60.7,68.1,121.2,78.8a3.7,3.7,0,0,1,3,4.3,3.8,3.8,0,0,1-4.3,3c-30.4-5.4-53.4-13.3-72.6-24.9-21.8-13.3-39.4-32.2-53.8-57.5A5,5,0,0,1,656.4,222.4Z" transform="translate(-40 -33.9)"/><path class="cls-4" d="M608.4,321.1a3.9,3.9,0,0,1,1.8-3.8,3.7,3.7,0,0,1,5.1,1.4c44.5,77.4,92.4,90.7,129.2,93.7a3.8,3.8,0,0,1,3.4,4,3.7,3.7,0,0,1-4,3.4c-38.6-3.1-88.8-17-135-97.5A6.1,6.1,0,0,1,608.4,321.1Z" transform="translate(-40 -33.9)"/><path class="cls-5" d="M797.5,525.6c27,35.1,108.7,78.1,176.1,74.4,20.6-.9,91.8-4.6,88.7-45.8-17.2-17.9-72.3-12.7-51.4-53.7,16.2-16.8,38.5,43.7,60.7,39.4,29.1-9.9,67.5-53.7,58.8-88.1-11.5-10.5-98.2,4.7-101.2-15.4,1.9-19.5,55.6.7,83.3,1,28-2.7,31.4-48.6,36.2-76.4-31,18.5-59.7,27.5-64.2,15.5-7.2-29.8,50.5-1.5,64.2-15.5,7.1-40.1,24.9-47.8,14.7-69.1-25.2-13.6-37.1-19.2-64.2-17.8-58.8,4.5-58,97.4-76.1,89-11.4-14,33.1-66.6,26.7-75.6-9.9-20.6-57.1-19.2-68.3-2.4-16.4,24.7-12.5,103.5-28.8,104.1-20.4.9,14.6-91.8-13.1-113.8-24.4-15.9-65-4.9-90.7,7-38.1,9.2,42.8,122.2,31.2,130.3-36.8,2-48.4-133.5-95.3-98.2-23.5,21.1-28.3,52.4-31.1,83.3-4.3,47.6,23.8,103.3,43.8,127.8ZM928.3,336c3.1,3.7,2.4,9.7-1.8,13.2s-10.2,3.3-13.3-.4-2.4-9.7,1.7-13.2,10.1-3.4,13.4.4Zm45.2,107.9c-14.9-.5-.8,16.3,7.1,18.2,9.3,4.3,23.8,8.2,31.8,0-2.2-12.8-20-17.1-38.9-18.2Zm-43.8,45.2c16.8-14.1,47.1,19.2,43.6,30.8-6.3,9.2-52.5-17.9-43.6-30.8Zm-86-59.6c-5.2-6.4-7.2,5.5-5.2,9.5s5.2,12.9,11.4,13.3c4.6-5.5,0-14.5-6.2-22.8Zm167.7-84.6c4.1,8.3-1,19.9-6.1,26.9-6.8-.5-5.3-10.7-4.9-17.1s6.3-14.2,11-9.8Z" transform="translate(-40 -33.9)"/><path class="cls-4" d="M664.5,580.2a3.8,3.8,0,0,1,2.4-4.1C834,515.2,979.8,430.5,1112.7,317.4a3.7,3.7,0,0,1,5.2.5,3.8,3.8,0,0,1-.4,5.2A1441.8,1441.8,0,0,1,892.8,480.3,1492.4,1492.4,0,0,1,669.5,583.1a3.7,3.7,0,0,1-4.8-2.2A6.4,6.4,0,0,0,664.5,580.2Z" transform="translate(-40 -33.9)"/><path class="cls-4" d="M1009,400.4a3.5,3.5,0,0,1,.5-2.4,3.6,3.6,0,0,1,5-1.4c30.6,16.9,62.3,17.7,94.4,2.5a3.7,3.7,0,0,1,4.9,1.8,3.6,3.6,0,0,1-1.8,4.9c-34.3,16.3-68.3,15.4-101.1-2.7A4,4,0,0,1,1009,400.4Z" transform="translate(-40 -33.9)"/><path class="cls-4" d="M867.9,488.5a3.7,3.7,0,0,1,1.8-3.8,3.6,3.6,0,0,1,5,1.3c32.1,52.7,83.4,78.6,148.4,75a3.6,3.6,0,0,1,3.9,3.5,3.8,3.8,0,0,1-3.5,3.9C955.6,572.2,902,545,868.4,489.8A6.9,6.9,0,0,1,867.9,488.5Z" transform="translate(-40 -33.9)"/><path class="cls-4" d="M891.7,365.9c-2.9-18.6-2.1-38.1,2.4-59a3.7,3.7,0,1,1,7.2,1.5c-10.9,50.9.3,91.2,38.5,139.3a3.7,3.7,0,0,1-5.8,4.6c-19.2-24.1-31.2-45.3-37.8-66.7A133.7,133.7,0,0,1,891.7,365.9Z" transform="translate(-40 -33.9)"/><path class="cls-4" d="M788.8,431.8c-3.5-22.2-3-49.3,3.9-82.8a3.7,3.7,0,0,1,7.3,1.5c-18.1,87.4,8.9,129.1,34.5,155.8a3.7,3.7,0,1,1-5.3,5.1C812.2,493.8,794.7,469.9,788.8,431.8Z" transform="translate(-40 -33.9)"/><path class="cls-6" d="M1000,581.8c93.1-166,186.3-248.9,372.5-248.9,205.6,0,372.5,148.7,372.5,331.9,0,331.9-372.5,663.8-745,995.7C627.5,1328.6,255,996.7,255,664.8c0-183.2,166.9-331.9,372.5-331.9,186.3,0,279.4,82.9,372.5,248.9Z" transform="translate(-40 -33.9)"/><path class="cls-7" d="M1193.9,442.7c70.1-53.4,145.7-72.2,246-52.4C1595.6,421,1703.1,561.4,1703.3,720c-21.9-121.3-93.7-222.9-195.5-269.1a382.3,382.3,0,0,0-103.7-36.7c-83.5-16.5-149.8-6.2-210.2,28.5Z" transform="translate(-40 -33.9)"/><path class="cls-8" d="M1738.1,925.9h129a19.7,19.7,0,0,1,19.7,19.7V1041a19.7,19.7,0,0,1-19.7,19.7h-98.6l-25.3,21.6v-21.6h-5.1a19.7,19.7,0,0,1-19.7-19.7V945.6a19.7,19.7,0,0,1,19.7-19.7Z" transform="translate(-40 -33.9)"/><path class="cls-7" d="M1779.3,987.9c6.2-4.7,14.8-6.2,20.9-12.5,7.7-9.1,11.3-32.1,15.5-39.1,2.7-4.2,7.2-2,9,.7,7.7,12.6-3.5,26.5-2.1,38.4,3,3.8,25.8-3.6,33.5,4.2,7.8,10.4,2.5,24.4-2,34.1-3.5,7.7-8.6,14.4-14.8,17.5-9.6,5.2-20.9,4.9-30.7,2.8s-16.7-7.6-29.3-8.4V987.9Z" transform="translate(-40 -33.9)"/><path class="cls-7" d="M1750.7,984.8h16a5.5,5.5,0,0,1,5.5,5.4v32.2a5.6,5.6,0,0,1-5.5,5.5h-16a5.5,5.5,0,0,1-5.5-5.5V990.2a5.5,5.5,0,0,1,5.5-5.4Z" transform="translate(-40 -33.9)"/><path class="cls-9" d="M1281.1,87.5h157.7a24.2,24.2,0,0,1,24.1,24.1V228.4a24.1,24.1,0,0,1-24.1,24H1318.2l-30.9,26.4V252.4h-6.2a24.1,24.1,0,0,1-24.1-24V111.6a24.2,24.2,0,0,1,24.1-24.1Z" transform="translate(-40 -33.9)"/><path class="cls-10" d="M1359.9,136.2c6.5-13,12.9-19.4,25.9-19.4a25.8,25.8,0,0,1,25.8,25.9c0,25.8-25.8,51.7-51.7,77.5-25.8-25.8-51.7-51.7-51.7-77.5a25.9,25.9,0,0,1,25.9-25.9c12.8,0,19.3,6.4,25.8,19.4Z" transform="translate(-40 -33.9)"/><path class="cls-11" d="M255,1110.4a87.2,87.2,0,1,0-87.2-87.1,87.3,87.3,0,0,0,87.2,87.1Z" transform="translate(-40 -33.9)"/><path class="cls-7" d="M292.8,1063.5a44.2,44.2,0,0,1-75.6,0,145.4,145.4,0,0,0,75.6,0Z" transform="translate(-40 -33.9)"/><path class="cls-12" d="M220.8,1028.9c8,0,14.6-11,14.6-24.4S228.8,980,220.8,980,206,991,206,1004.5s6.6,24.4,14.8,24.4Z" transform="translate(-40 -33.9)"/><path class="cls-12" d="M289.2,1028.9c8.2,0,14.7-11,14.7-24.4S297.4,980,289.2,980s-14.6,11-14.6,24.5,6.5,24.4,14.6,24.4Z" transform="translate(-40 -33.9)"/><path class="cls-13" d="M1565,1840.6l20.8-.9,6.9,31.2-5.1,1.2,3.9,9.6-3.5,13-61.2,32.9c19.5-17.8,43.6-36.7,45.9-55.4Z" transform="translate(-40 -33.9)"/><path class="cls-8" d="M1592.7,1870.9c-2.4-4.5-3.1-3.8-8,1.9-5.3,40.3-85.8,52.8-71,65.9l50.4-12.2c17.7-8.4,20.6-21.8,23.5-28.9l6,22.4,6-1.3c-2.2-16,.3-32-6.9-47.8Z" transform="translate(-40 -33.9)"/><path class="cls-13" d="M1429.2,1844.7l20.7,2.8,1.1,32.2h-5.1l2,10.2-5.8,12-66,21.3c22.3-14,49.4-28.2,55.1-46.2Z" transform="translate(-40 -33.9)"/><path class="cls-8" d="M1451,1879.7c-1.5-5-2.3-4.5-8.1.3-12.7,38.6-93.8,36.3-81.7,52l51.5-2.8c19-5.1,24.5-17.9,28.7-24.2l1.7,23.1,6.2-.3c.6-16.1,5.9-31.5,1.7-48.1Z" transform="translate(-40 -33.9)"/><path class="cls-14" d="M1677.7,1249.3c5.5-4.9,1.4-23,6.9-22.1s2.2,14.3,4.4,14.6c7.6,3.7,20.5-16.2,26.4-12.6,14.8,9.3-1.3,33.7-31.4,37l-9.2-9.7c-.8-1.3-3-1.2,2.9-7.2Z" transform="translate(-40 -33.9)"/><path class="cls-14" d="M1295.7,1235.3c-5-4.3-1.9-21.1-6.9-20s-1.6,13-3.7,13.6c-6.9,3.5-19.2-14.4-24.6-10.8-13.2,9.1,2.2,30.9,30,33l8.1-9.2c.7-1.2,2.8-1.2-2.9-6.6Z" transform="translate(-40 -33.9)"/><path class="cls-12" d="M1448,1282.6c-5.5-25.8-11.9-57.1,16-53.3,11.9,1.5,20.2-20.5,45.6-14,5.5,1.4,15,8.7,19.6,19,2.5,5.8,19.7,4.1,20,22.7.1,7.7,4.8,7.1-5.9,31.7-7.9,18,5.8,49.2,4.9,62.2-1.4,20.9,7.7,21,5.5,38.8-2.6,23.4-28.5,17.1-50.2-2.3-6.4-5.8-18.2-7-27-5-5.1,1.2-21.6-1.3-20-13.2,1.4-9.8-25.5,9.5-15.7-29.3,2.7-10.5,9.1,6.8,13.5-26.1,1.5-11.1-1.9-4.9-6.3-31.2Z" transform="translate(-40 -33.9)"/><polygon class="cls-8" points="1382.7 1520.5 1514.6 1516.9 1553.8 1826.6 1510.9 1830.7 1448.3 1602.6 1423.8 1834.7 1380.5 1833 1382.7 1520.5"/><path class="cls-15" d="M1283.1,1258.5c.1-7.3,3.3-24.2,15.5-25.6,47.6,31.2,91,78.7,141,112.8,17.9-5.9,57.7-3.9,78.1,1.1,54.6-31,104.7-69.7,158.6-97.4,7.8,3.2,13.8,17.5,14,24.7-52.5,36.2-111.4,82.9-151.4,121,9.3,59.6,16.3,104.2,25.6,163.9-46.6,17.8-105,17.2-148.4,2.4,5.3-59.4,9-100.4,14.5-159.8-50-46.4-98.7-102.3-147.5-143.1Z" transform="translate(-40 -33.9)"/><path class="cls-14" d="M1469.8,1320.2l28.7,2.5-2.8,24.7c-13.8,9.7-25.4,8.6-31.7,1.6Z" transform="translate(-40 -33.9)"/><path class="cls-13" d="M1519.9,1274.1q-28.5-9.4-57-18.6c-8.6,10.1-18.9,58.6-11.3,72.7,9.4,17.7,35.5,13,45,.6s24.5-42.1,23.3-54.7Z" transform="translate(-40 -33.9)"/><path class="cls-12" d="M1463.8,1247.8c.8,4.8-11.5,14.7,6.9,17.3,11.2,1.5,3.2-5.1,15.3,6.5,7.8,7.4,21.4-4.3,22.6,14.4.4,6.5-.9,13.7,1.2,20,1.2,3.2,5.2,21.1,11.5,8s10.4-10.9,10.2-31.8c0-4.3-6-17.9-10.1-21.5-8.1-7.2-15.2-9.2-26.2-11.1-4.3-.7-29.8-6.7-31.3-3.3a7.6,7.6,0,0,0-.1,1.5Z" transform="translate(-40 -33.9)"/><path class="cls-13" d="M1506.8,1311.3c-10.9-7.4-8.8-12.4.8-17.8,3.6-3,9.3-4.6,11.1,1s-7.6,13.2-11.9,16.8Z" transform="translate(-40 -33.9)"/><path class="cls-8" d="M632.6,1006.5l27.2-1.1c-19,42.4-38,84.7-56.6,127.4,38.3-1.4,76.7-2.4,115.4-3.5s77.4-2.1,116.1-3.5q28.5-64,56.3-128.1l28-1q-100.1,227.4-201.1,458.2T512.8,1922.6H484.9L561.2,1749c-39,.3-78.1.7-116.8.7l-115.8,1c-25.5,57.1-50.9,114.5-76.7,171.9H224.6q103.8-233.1,206.1-462.8Q532.4,1232,632.6,1006.5Zm-58.5,713.1q37.2-84.6,74.2-169.1c-39,.7-77.8,1-116.8,1.7s-77.1,1.1-115.5,1.4c-24.7,55.7-49.8,111.7-74.5,167.4,38.7,0,77.1-.4,115.8-.7s77.8-.7,116.8-.7Zm87.1-198.5q35.5-80.8,71-161.1l-116.5,2.1c-38.7,1.1-77.4,1.8-115.8,2.5l-70.9,160c38.3-.7,77-1.1,115.7-1.8s77.5-1,116.5-1.7Zm83.6-190.5c26.1-58.8,51.6-117.2,77.4-175.7l-116.5,3.2c-38.4,1-77.1,2.1-115.4,3.5q-38.7,86.6-77.5,174.3c38.4-1.1,77.1-1.8,115.5-2.8s77.7-1.8,116.5-2.5Z" transform="translate(-40 -33.9)"/><path class="cls-14" d="M550.8,889.5l-32.3-4.8-3.6,28c12.7,14.5,25.7,16.4,34.5,10.4Z" transform="translate(-40 -33.9)"/><path class="cls-16" d="M507.8,825.3l67.7-5.5c6.9,13.6,5.5,69.8-6.7,83.5-15.1,17.1-42.7,5-50-11.4s-15.7-52.8-11-66.6Z" transform="translate(-40 -33.9)"/><path class="cls-12" d="M529.4,840.4c14.6-17.1,35.2,4.6,47.4,2,9.7-6.5,55.7-34.6,47.8-56.8-5.6-13.5-45.4-12.1-60.2-9.4a138.1,138.1,0,0,0-35.6,11.1c-10.8,6.2-17.1,15.9-17.4,27.9-6.4-4.3-24.7,7.5-26,13.8-7,18.2,20,25.9,27.2,45.7,9.3-.5,13.5-32.5,16.8-34.3Z" transform="translate(-40 -33.9)"/><path class="cls-16" d="M520,867.1c13.1-3,12.8-8.6,5.6-17.4-2.1-4.2-7-7.7-10.7-3.2s2.1,15.7,5.1,20.6Z" transform="translate(-40 -33.9)"/><path class="cls-17" d="M362.3,1437.2l10.7,14.9c10.6,22.6,56.4,47.7,31.6,68L322.4,1462c6.8-10.1,13.7-21.7,26-27.6Z" transform="translate(-40 -33.9)"/><path class="cls-14" d="M357.6,1420.1l25,17.9-9.6,14.1a50.2,50.2,0,0,1-24.6-17.7Z" transform="translate(-40 -33.9)"/><path class="cls-18" d="M575.7,1478.9l17.3,6.3c21.3,13.1,73.4,8.4,64.2,39.2l-100.9-2.5c.1-12.4-.5-25.8,6.4-37.6Z" transform="translate(-40 -33.9)"/><path class="cls-14" d="M562.4,1467.5l30.7.9v16.8a47.4,47.4,0,0,1-30.3-.9Z" transform="translate(-40 -33.9)"/><polygon class="cls-18" points="452.9 1170.5 518.3 1126.8 561.7 1261.1 555.5 1442.5 512.9 1438.5 509.7 1269.6 452.9 1170.5"/><path class="cls-17" d="M537.6,1069.8l-66,54.5c-5.5,12.1-11,19.4-3.8,69.9L350.2,1424.5l40,25.8c85.2-119.8,164.7-256,176.3-309Z" transform="translate(-40 -33.9)"/><path class="cls-19" d="M464.6,947.4c6.9-20.9,28.2-23.8,51.5-42.1,12.2,17.5,32.8,8.6,47.7,19.1,49.5,49.4,9.4,154,2.7,216.9l-94.7-17c2.2-58.9-16.8-157.4-7.2-176.9Z" transform="translate(-40 -33.9)"/><polygon class="cls-14" points="586.4 968.5 594.9 930.2 655.3 944.6 758.2 921.2 764 939.3 657.7 977.1 586.4 968.5"/><polygon class="cls-20" points="524.1 898.6 511.7 956.2 594.2 974.3 600.2 932.4 524.1 898.6"/><polygon class="cls-19" points="524.1 894.7 511.5 952.3 594.2 970.2 600.1 928.5 524.1 894.7"/><path class="cls-14" d="M801.2,954.2c6.6-2.3,9.5-20.1,14.1-17.1s-3.1,13.4-1.3,14.6c5.5,6.1,24.2-7.2,28.2-1.6,10,13.6-13.4,29.8-41.6,21.7l-4.7-12c-.3-1.4-2.2-2.4,5.3-5.6Z" transform="translate(-40 -33.9)"/><polygon class="cls-21" points="1078.8 812.3 1017.5 850.2 1081.7 864.2 1078.8 812.3"/><polygon class="cls-22" points="1042.4 897.5 1089.6 753.1 1263.1 955.8 1042.4 897.5"/><path class="cls-23" d="M1057.5,884.1c5.7-9.5,35.7-38.7,57.6-52l183.2,154.3-191.8-129c-14.4,11-41.5,25-49,26.7Z" transform="translate(-40 -33.9)"/></svg>