<svg id="Illustration" xmlns="http://www.w3.org/2000/svg" viewBox="0 0 1649.1 1401.7"><defs><style>.cls-1{fill:#aaaad6;}.cls-1,.cls-10,.cls-11,.cls-12,.cls-13,.cls-14,.cls-15,.cls-16,.cls-17,.cls-2,.cls-3,.cls-5,.cls-6,.cls-7,.cls-8,.cls-9{fill-rule:evenodd;}.cls-2{fill:#66c7f4;opacity:0.23;}.cls-3{fill:#1484ac;}.cls-4{fill:#fff;}.cls-5{fill:#326598;}.cls-6{fill:#033397;}.cls-7{fill:#4bc1dd;}.cls-8{fill:#ed1c24;}.cls-9{fill:#62cbec;}.cls-10{fill:#ff9866;}.cls-11{fill:#ffaa81;}.cls-12{fill:#080d47;}.cls-13{fill:#0e7f7f;}.cls-14{fill:#ffc328;}.cls-15{fill:#18898d;}.cls-16{fill:#a35e43;}.cls-17{fill:#edc06d;}</style></defs><title>team_work</title><path class="cls-1" d="M1431.3,1622.8c343.3,0,623.3-14.3,623.3-31.9s-280-32-623.3-32-623.1,14.4-623.1,32,279.9,31.9,623.1,31.9Z" transform="translate(-589 -221.1)"/><path class="cls-2" d="M1276.2,417.1c43.7-114.6,154.8-196,284.8-196,168.5,0,304.9,136.6,304.9,305a285.1,285.1,0,0,1-1.7,32.1C2047.6,592.4,2184,722.3,2184,877.6c0,135.3-103.8,251.5-251.8,301.7-3.6,165.2-138.8,298.1-304.9,298.1a302.9,302.9,0,0,1-197.1-72.4,183.9,183.9,0,0,1-45.9,5.9c-66.2,0-124.9-35.4-161.4-90.1a411,411,0,0,1-151.4,28.6c-229.5,0-415.5-186-415.5-415.5,0-214.9,163.2-391.6,372.5-413.2a199.9,199.9,0,0,1,181.1-114.9,202,202,0,0,1,66.6,11.3Z" transform="translate(-589 -221.1)"/><path class="cls-3" d="M1055.8,1050.4c-48,6.2-144.3-23.8-193.6-78.6-15.2-16.7-67.3-74.6-32.9-104,27-.6,65.6,46,81.1-1.9.6-25.4-63.5,4.1-77.3-16.4-14.9-30.2-10.7-93.7,22.7-113.5,17,.7,72.2,79.5,90.1,66.4,13.6-16.6-43.5-42.5-65.2-63.7-19.6-23.7,13.4-61.8,31.1-87,9.7,38.3,24.9,67.4,37.6,61.6,28.6-17.4-37.7-40.1-37.6-61.6,25.6-36.5,17.7-56.2,42.1-64.7,29.8,8.9,43.4,13.8,63.3,35.9,42,48.9-30.5,120.1-9.9,127.6,19.7-2.1,25.9-77.2,37.7-79.1,23.6-8.3,59,29.3,54.6,50.8-6.3,32-70.4,89.7-58.3,102.8,15.2,16.6,59.9-82.1,98.2-77.7,31.1,6.6,54,46.4,64.7,75.4,22.3,36.6-127.5,61.4-124.9,76.6,26.9,30,140.7-65.7,149.6-2.2,1.8,34.5-18.8,62.5-40.3,88.5-33.5,40-98.4,61.4-132.8,64.8Zm45.6-247.5c-5.3.4-9.3,5.6-8.8,11.5s5.2,10.4,10.7,10,9.3-5.6,8.7-11.5-5.2-10.5-10.6-10ZM983,851.2c12,11.1-11.9,13.3-19.5,8.5-10.6-3.8-24.7-12.1-24.5-24.5,11.5-8.1,28.7,2.3,44,16ZM981.9,920c-2.1-23.9-51.2-21.5-57.4-10-2.3,12,54.3,26.9,57.4,10Zm112.6,20.6c8.9-1,1.3,9.7-3.5,11.2-5.3,3-13.8,5.9-19,1.4.7-7.7,11.3-11.2,22.5-12.6Zm-64.2-195.2c-9.5,3.3-14.6,16.1-16.1,25.5,5.7,4.9,12.3-4.1,17-9.4s6.2-15.8-.9-16.1Z" transform="translate(-589 -221.1)"/><path class="cls-4" d="M1114,1197a4.7,4.7,0,0,1-4.4-2.8A1626.7,1626.7,0,0,1,1016.5,942a1586.2,1586.2,0,0,1-52-295.4,4.9,4.9,0,0,1,4.5-5.3,4.8,4.8,0,0,1,5.2,4.5c15,189.7,62.2,367.8,144.2,544.3a4.9,4.9,0,0,1-2.4,6.4A3.5,3.5,0,0,1,1114,1197Z" transform="translate(-589 -221.1)"/><path class="cls-4" d="M986.8,791.7l-1.3-.2c-39.6-11.5-66.8-37.3-80.8-76.5a4.8,4.8,0,1,1,9.1-3.3c12.9,36.2,37.9,59.9,74.4,70.5a4.8,4.8,0,0,1,3.3,6A4.9,4.9,0,0,1,986.8,791.7Z" transform="translate(-589 -221.1)"/><path class="cls-4" d="M983.3,974.5c-50.9,0-97.1-22.2-135.7-65.3a5,5,0,0,1,.4-6.9,4.9,4.9,0,0,1,6.9.4c47.2,52.9,106.6,72.5,171.8,56.7a4.7,4.7,0,0,1,5.8,3.5,4.8,4.8,0,0,1-3.5,5.9A192.5,192.5,0,0,1,983.3,974.5Z" transform="translate(-589 -221.1)"/><path class="cls-4" d="M1006.7,889.1a4.9,4.9,0,0,1-.6-9.7c66.4-7.5,106-29.9,136.7-77.5a4.9,4.9,0,0,1,8.2,5.3c-32.5,50.3-74.2,74-143.8,81.9Z" transform="translate(-589 -221.1)"/><path class="cls-4" d="M1042.3,1015.7a4.9,4.9,0,0,1-4.8-4.8,4.7,4.7,0,0,1,4.7-4.9c40.1-.7,93-12,146.4-93.3a4.9,4.9,0,0,1,6.7-1.4,4.8,4.8,0,0,1,1.4,6.7c-55.9,85.1-111.8,96.9-154.3,97.7Z" transform="translate(-589 -221.1)"/><path class="cls-3" d="M976.8,1126.8c-31.8,36.5-123.7,78-196.9,69.4-22.6-2.4-100-10.9-93.8-55.9,19.9-18.3,79.7-9,59.6-55.1-16.5-19.5-44.8,45.1-68.7,39-31.3-12.7-70.2-63.1-58.3-100,13.2-10.7,106.7,11.7,111.3-10-.7-21.5-60.6-3.1-90.9-4.7-30.4-4.6-31-55-34.5-85.6,32.7,22.2,63.3,33.8,69.1,21.2,9.9-32-54.9-5-69.1-21.2-4.9-44.3-23.9-53.9-11.4-76.3,28.4-13.2,41.8-18.5,71.2-15.2,63.8,8.8,56.9,110.1,77.2,102.1,13.4-14.5-31.7-74.9-24.2-84.2,12.2-21.8,63.6-17.2,74.6,1.8,16.5,28.2,6.9,113.8,24.6,115.6,22.3,2.3-9.8-101.2,21.8-123.3,27.8-15.6,71.3-1,98.6,13.7,40.8,12.5-54.8,130.5-42.8,140,40.1,4.7,61.8-142.3,110.5-100.8,24.2,24.7,27.5,59.2,28.5,93,1.5,52.2-32.8,111.2-56.4,136.5ZM846.9,911.3c-3.8,3.8-3.4,10.4,1,14.5s10.8,4.3,14.5.4,3.4-10.4-1-14.5-10.8-4.4-14.5-.4Zm-56.6,114.6c16.3.5-.1,17.9-9,19.4-10.4,4.1-26.5,7.3-34.7-2.1,3.3-13.7,23-17.3,43.7-17.3Zm44.8,52.4c-17.5-16.5-52.7,17.7-49.6,30.5,6.2,10.6,58.4-15.9,49.6-30.5Zm97.8-59.3c6.1-6.8,7.5,6.5,4.9,10.7-1.9,5.8-6.4,13.6-13.3,13.6-4.5-6.3,1-15.7,8.4-24.3ZM755.5,915.5c-4.9,8.7-.3,21.7,4.9,29.7,7.5-.1,6.5-11.3,6.5-18.3S761,911,755.5,915.5Z" transform="translate(-589 -221.1)"/><path class="cls-4" d="M1114.4,1199.1a4.1,4.1,0,0,1-1.9-.4,1626.1,1626.1,0,0,1-237-126.9A1587.3,1587.3,0,0,1,640.7,885.2a4.8,4.8,0,0,1-.2-6.8,4.9,4.9,0,0,1,6.9-.2c137.6,132.3,291,234.2,468.9,311.6a4.9,4.9,0,0,1-1.9,9.3Z" transform="translate(-589 -221.1)"/><path class="cls-4" d="M700.4,992.1q-29.9,0-59.2-16.2a5,5,0,0,1-1.9-6.6,4.9,4.9,0,0,1,6.6-1.9c33.7,18.6,68.2,19.8,102.5,3.6a4.7,4.7,0,0,1,6.4,2.3,4.7,4.7,0,0,1-2.3,6.4Q726.4,992.2,700.4,992.1Z" transform="translate(-589 -221.1)"/><path class="cls-4" d="M754.5,1160.9a229.3,229.3,0,0,1-27.1-1.7,4.8,4.8,0,1,1,1.1-9.6c70.4,8.2,127.8-16.5,166.1-71.6a4.8,4.8,0,1,1,7.9,5.6C867.1,1134.5,816.3,1160.9,754.5,1160.9Z" transform="translate(-589 -221.1)"/><path class="cls-4" d="M829.9,1039.9a4.6,4.6,0,0,1-3.3-1.3,4.8,4.8,0,0,1-.3-6.8c44.6-49.7,59.4-92.8,51-148.7a4.9,4.9,0,1,1,9.6-1.4c8.9,59.1-6.6,104.5-53.4,156.6A5.2,5.2,0,0,1,829.9,1039.9Z" transform="translate(-589 -221.1)"/><path class="cls-4" d="M940.5,1111a5.2,5.2,0,0,1-3.6-1.6,4.9,4.9,0,0,1,.3-6.8c29.5-27.1,61.6-70.6,47.8-167a4.9,4.9,0,1,1,9.6-1.4c14.5,100.9-19.6,146.8-50.8,175.5A4.6,4.6,0,0,1,940.5,1111Z" transform="translate(-589 -221.1)"/><path class="cls-3" d="M1771.2,1244.1c48,6.2,144.4-23.8,193.6-78.7,15.2-16.6,67.4-74.5,33.1-103.9-27.1-.7-65.7,46-81.3-1.8-.5-25.5,63.5,4.1,77.3-16.5,14.9-30.1,10.7-93.8-22.7-113.5-16.8.7-72,79.6-89.9,66.3-13.8-16.6,43.3-42.5,65-63.7,19.6-23.7-13.2-61.7-30.9-86.9-9.8,38.1-25.1,67.3-37.8,61.7-28.6-17.5,37.9-40.3,37.8-61.7-25.7-36.5-17.9-56.2-42.1-64.6-30,8.8-43.5,13.6-63.4,35.7-42,48.9,30.4,120.1,9.9,127.6-19.6-2-25.8-77-37.8-79.1-23.5-8.2-59,29.4-54.6,50.9,6.5,32,70.4,89.7,58.3,102.8-15.1,16.5-59.7-82.2-98.1-77.7-31.2,6.5-54.1,46.3-64.8,75.4-22.3,36.5,127.5,61.4,125,76.5-27,30.1-140.6-65.6-149.6-2.1-1.9,34.5,18.7,62.4,40.4,88.4,33.5,40.1,98.2,61.5,132.6,64.9Zm-45.6-247.6c5.3.4,9.4,5.6,8.8,11.5s-5.2,10.4-10.5,10-9.3-5.6-8.9-11.5,5.2-10.5,10.6-10Zm118.4,48.2c-11.9,11.3,11.9,13.4,19.5,8.8,10.6-4,24.8-12.1,24.7-24.7-11.7-8.1-28.7,2.3-44.2,15.9Zm1.1,68.9c2.1-23.8,51.2-21.5,57.4-9.9,2.3,12-54.3,26.8-57.4,9.9Zm-112.5,20.5c-9-.9-1.3,9.9,3.4,11.3,5.3,3.1,13.9,6.1,19,1.6-.7-7.9-11.1-11.3-22.4-12.9Zm64.2-194.9c9.4,3.2,14.6,16,16.1,25.4-5.8,4.8-12.4-4.2-17.1-9.4s-6-15.9,1-16Z" transform="translate(-589 -221.1)"/><path class="cls-4" d="M1713,1390.6a5,5,0,0,1-4.4-6.9c81.9-176,129.1-354,144.3-544.2a4.9,4.9,0,0,1,5.3-4.4,4.8,4.8,0,0,1,4.4,5.2,1583.3,1583.3,0,0,1-52,295.4,1628.9,1628.9,0,0,1-93.2,252.1A4.7,4.7,0,0,1,1713,1390.6Z" transform="translate(-589 -221.1)"/><path class="cls-4" d="M1840.2,985.4a4.9,4.9,0,0,1-4.7-3.5,4.8,4.8,0,0,1,3.3-6c36.5-10.6,61.5-34.3,74.4-70.5a4.8,4.8,0,1,1,9.1,3.3c-14,39.2-41.2,65-80.8,76.5Z" transform="translate(-589 -221.1)"/><path class="cls-4" d="M1843.9,1168.1a193.2,193.2,0,0,1-45.7-5.7,5,5,0,0,1-3.6-5.9,4.8,4.8,0,0,1,5.9-3.5c65.2,15.8,124.6-3.7,171.8-56.6a4.9,4.9,0,1,1,7.2,6.5C1941.1,1146,1894.8,1168.1,1843.9,1168.1Z" transform="translate(-589 -221.1)"/><path class="cls-4" d="M1820.5,1082.8h-.6c-69.8-8.1-111.5-31.8-143.9-81.9a4.9,4.9,0,1,1,8.2-5.2c30.6,47.3,70.3,69.8,136.8,77.5a4.8,4.8,0,0,1-.5,9.6Z" transform="translate(-589 -221.1)"/><path class="cls-4" d="M1784.7,1209.4h-.1c-42.4-.8-98.3-12.5-154.3-97.6a4.9,4.9,0,0,1,1.4-6.8,4.9,4.9,0,0,1,6.7,1.4c53.5,81.3,106.3,92.6,146.4,93.3a4.7,4.7,0,0,1,4.7,4.9A4.8,4.8,0,0,1,1784.7,1209.4Z" transform="translate(-589 -221.1)"/><path class="cls-3" d="M1850.2,1320.6c31.8,36.4,123.9,77.8,197.1,69.4,22.4-2.4,99.8-11.2,93.6-55.9-19.9-18.5-79.7-9-59.6-55.2,16.5-19.4,45,45.2,68.9,39,31.1-12.7,70.1-63.1,58.1-100.1-13.1-10.7-106.7,11.7-111.3-10,.8-21.6,60.7-3,91.1-4.5,30.2-4.8,30.9-55.1,34.3-85.6-32.6,22.1-63.3,33.8-69,21.1-9.8-32,54.9-5.1,69-21.1,5.1-44.4,23.9-53.9,11.4-76.5-28.3-13.1-41.7-18.4-71.2-15-63.8,8.7-56.8,110.1-77.2,101.9-13.3-14.5,31.8-74.8,24.2-84.2-12.1-21.8-63.6-17.2-74.6,2-16.3,28-6.7,113.7-24.5,115.4-22.2,2.4,9.7-101.1-21.9-123.2-27.6-15.7-71.3-1.1-98.6,13.7-40.8,12.5,54.9,130.4,42.8,140.1-40,4.5-61.7-142.5-110.5-101-24.2,24.7-27.3,59.2-28.5,93.1-1.4,52.1,32.9,111.2,56.4,136.6Zm130.1-215.7c3.6,3.9,3.2,10.4-1.2,14.6s-10.8,4.2-14.5.4-3.2-10.4,1-14.5,10.9-4.3,14.7-.5Zm56.6,114.7c-16.5.4,0,17.9,8.8,19.4,10.4,4.1,26.5,7.4,34.7-2.1-3.3-13.8-23-17.3-43.5-17.3Zm-45,52.2c17.5-16.4,52.7,17.9,49.7,30.7-6.3,10.5-58.5-16-49.7-30.7Zm-97.8-59.2c-6.1-6.6-7.3,6.4-4.9,10.7,2.1,5.9,6.4,13.6,13.3,13.8,4.7-6.4-.9-15.9-8.4-24.5Zm177.4-103.4c5.1,8.8.3,21.7-4.8,29.7-7.6-.1-6.6-11.4-6.5-18.3s5.9-16,11.3-11.4Z" transform="translate(-589 -221.1)"/><path class="cls-4" d="M1712.8,1392.8a4.8,4.8,0,0,1-2-9.2c178.2-77.7,331.5-179.7,468.8-311.8a4.9,4.9,0,0,1,6.9.1,5,5,0,0,1-.1,6.9,1587.3,1587.3,0,0,1-234.8,186.6,1624.7,1624.7,0,0,1-236.9,127A4.3,4.3,0,0,1,1712.8,1392.8Z" transform="translate(-589 -221.1)"/><path class="cls-4" d="M2126.8,1185.7q-26.1,0-52.2-12.4a4.9,4.9,0,0,1,4.2-8.8c34.1,16.3,68.5,15.1,102.3-3.3a4.8,4.8,0,1,1,4.6,8.5C2166.2,1180.3,2146.5,1185.7,2126.8,1185.7Z" transform="translate(-589 -221.1)"/><path class="cls-4" d="M2072.1,1354.5c-61.6,0-112.3-26.4-147.6-77.4a4.7,4.7,0,0,1,1.2-6.7,4.8,4.8,0,0,1,6.7,1.2c38.3,55.2,95.8,80,166.1,71.6a4.8,4.8,0,1,1,1.2,9.6A237.6,237.6,0,0,1,2072.1,1354.5Z" transform="translate(-589 -221.1)"/><path class="cls-4" d="M1997.2,1233.6a4.9,4.9,0,0,1-3.7-1.6c-46.9-52.2-62.3-97.6-53.2-156.7a4.8,4.8,0,0,1,5.5-4.1,4.8,4.8,0,0,1,4,5.5c-8.5,56,6.2,99.1,51,148.8a5,5,0,0,1-.4,6.9A4.9,4.9,0,0,1,1997.2,1233.6Z" transform="translate(-589 -221.1)"/><path class="cls-4" d="M1886.5,1304.7a4.6,4.6,0,0,1-3.3-1.3c-31.2-28.7-65.3-74.5-50.8-175.4a4.8,4.8,0,0,1,5.5-4.1,4.7,4.7,0,0,1,4.1,5.4c-13.8,96.5,18.3,139.9,47.8,167a4.9,4.9,0,0,1,.3,6.8A4.8,4.8,0,0,1,1886.5,1304.7Z" transform="translate(-589 -221.1)"/><path class="cls-5" d="M1339.8,951.4l25.8,2.3c4.6,11.6,51.8,5.6,40.9,22.2-6.6,1.5-45.9,2-71.8,1.1-4.9-6.9-.2-19.5,5.1-25.6Z" transform="translate(-589 -221.1)"/><path class="cls-6" d="M1277.4,950.7l25.9,2.3c4.7,11.6,51.7,5.6,40.9,22.2-6.7,1.5-45.9,2-71.7,1.1-5.1-6.9-.3-19.5,4.9-25.6Z" transform="translate(-589 -221.1)"/><path class="cls-7" d="M1297,568.7l29.6-8.6c6.6,12.3,17.6,46.1,20,68,1.9,10.5-8.3,51.9-14.4,79l-39.8-64Z" transform="translate(-589 -221.1)"/><path class="cls-8" d="M1294.3,665.6l43.5,11.7c8.6,31.9,45.6,106,45.6,126.3l-16.3,151c-10.5,0-21.1.6-31.7.6l-1.9-144.3-19-44.8-10.3,187.7-30.7,2L1264.2,694Z" transform="translate(-589 -221.1)"/><path class="cls-9" d="M1281.8,537.8l22.1-.2c8,.6,17.9,5.2,22.7,22.5l11.9,119c-14.6,21-41.8,21.6-74.3,15.9-4.9-42.9-9.4-92.2-14.2-135.1,2.7-14.5,12.5-23,31.8-22.1Z" transform="translate(-589 -221.1)"/><path class="cls-10" d="M1275.3,510.6l24.9,8.9c.5,7.3.7,14.7,1,22.1-3.4,14.3-16.9,6.2-23.6,1.1Z" transform="translate(-589 -221.1)"/><path class="cls-11" d="M1265.7,469.6a84.9,84.9,0,0,0,.2,8.7c1.7,31.9,16.5,56.9,33.2,56.1s29-27.5,27.3-59.2c-.1-2.9-.4-5.9-.7-8.7Z" transform="translate(-589 -221.1)"/><path class="cls-12" d="M1280.2,477.1c6.4-5.2,30.6-4.2,45.9-6.2,9.8-5.1,21.3-15.1,17.4-28.9-8.2-19.1-30.9,5.4-45.4,4.1-15.7-7.6-31.8,9-34.3,12.8-9.3,14.9,0,31.1,6.4,44.9,9.5-7.3,2.7-21.4,10-26.7Z" transform="translate(-589 -221.1)"/><path class="cls-10" d="M1399.9,626l4.8,5.1c3.9,3.5,8.9,12.4,11.8,10.6s-3.2-6-2.2-9.2c4.3-5.1,19.8,5.9,23.1,1.6,5-6.4,2.6-16.8-4.8-19-4-1.6-16.1,2.2-27.3,3.3Z" transform="translate(-589 -221.1)"/><polygon class="cls-10" points="821.4 397.2 816.6 409.1 797 410.3 795.9 396 821.4 397.2"/><path class="cls-7" d="M1280.9,561.3c-2.5-13.7-31.3-16.6-31.3.4-.5,23.8,6.3,59.8,16.6,72.6,15,8.6,74.4,4.3,133.3,0-.1-6-.3-11.9-.4-17.8l-112-7.6Z" transform="translate(-589 -221.1)"/><path class="cls-5" d="M1543.4,949.9l-26.1,2.2c-4.6,11.8-52.1,5.9-41.1,22.5,6.6,1.6,46.2,2,72.1,1.2,5.1-6.9.3-19.8-4.9-25.9Z" transform="translate(-589 -221.1)"/><path class="cls-6" d="M1605.9,949.9l-25.9,2.2c-4.8,11.8-52.2,5.9-41.3,22.5,6.7,1.6,46.4,2,72.3,1.2,5-6.9.2-19.8-5.1-25.9Z" transform="translate(-589 -221.1)"/><path class="cls-13" d="M1558.4,567.9l-29.7-8.6c-6.6,12.2-17.7,46.2-20.1,68.4-2,10.4,8.5,52.1,14.5,79.6l40.1-64.5Z" transform="translate(-589 -221.1)"/><polygon class="cls-14" points="974.2 421.7 927.8 457.9 918.5 560.5 926.4 732 957.2 732.4 965.1 560.5 989.2 731.3 1019.2 730.7 1002.5 473.9 974.2 421.7"/><path class="cls-15" d="M1573.8,536.6h-22.3c-8.1.6-18,5.3-22.8,22.8L1516.8,679c14.6,21.1,41.9,21.7,74.7,16,5-43.2,9.5-92.9,14.4-136.1-2.7-14.7-12.7-23-32.1-22.3Z" transform="translate(-589 -221.1)"/><path class="cls-10" d="M1452,626.5l-4.5,5.3c-3.8,3.8-8.2,13-11.3,11.3s2.9-6.1,1.7-9.3c-4.6-4.8-19.5,7.2-23.1,2.9-5.4-6-3.6-16.6,3.7-19.4,3.8-1.7,16.2,1.3,27.7,1.7Z" transform="translate(-589 -221.1)"/><polygon class="cls-10" points="852 398.2 857.5 409.8 877.4 409.8 877.7 395.5 852 398.2"/><path class="cls-13" d="M1574.6,560.3c2.6-13.7,31.7-16.8,31.7.4.4,23.9-6.5,60.3-16.7,73.2-15.1,8.6-75.1,4.2-134.4,0,.2-6,.3-11.9.5-18l112.7-7.6Z" transform="translate(-589 -221.1)"/><path class="cls-16" d="M1582.7,501.4l-26.8,12.3-.8,36c2.8,3,18.7-4.3,25-12.4Z" transform="translate(-589 -221.1)"/><path class="cls-16" d="M1592.2,481.2c-19.3-2.3-34.7-13.4-55.3-12.6-1.1,7.4-2.5,15.7-3.4,23.7-3.9,5.9-10.2,10.3-8.8,14.8,1.6,2.1,5.3,1.4,8.3,1.5.7,13,5.3,23.5,18.7,26.8,27.3,2.2,41.2-30,40.5-54.2Z" transform="translate(-589 -221.1)"/><path class="cls-12" d="M1535.9,474.4c1.3,3.4,21.6-3.4,31-.3s4.2,21,9.6,23.3,4.8-8.9,10.2-5.8c1.9,1.7-4.3,12.8,1.3,15.2,11-23,10.7-36.5-12.4-48.9-14.8-6.2-45.6-10.2-39.7,16.5Z" transform="translate(-589 -221.1)"/><path class="cls-10" d="M1427.2,643.6c7.6,0,14-3.9,14-8.8s-6.4-8.9-14-8.9-13.9,3.9-13.9,8.9,6.2,8.8,13.9,8.8Z" transform="translate(-589 -221.1)"/><path class="cls-17" d="M1198.6,975.8v57.7h-44.1v231.2h-75.3V1033.5h-44.5V975.8Zm17.2,0h125.3v57.7h-50v55.2h46.7v54.7h-46.7v63.5h55.2v57.8H1215.8Zm281.4,0,42.9,288.9h-76.7l-4.1-51.9h-27l-4.1,51.9h-77.8l38.1-288.9Zm-39.8,185.9q-5.6-49.2-11.4-121.7-11.2,83.4-14.3,121.7Zm327.3-185.9v288.9h-65.8l-.2-195-26.1,195h-46L1619,1074l-.2,190.7h-65.7V975.8h97c2.8,17.4,5.8,38,9,61.5l10.7,73.3,17-134.8Z" transform="translate(-589 -221.1)"/><path class="cls-17" d="M1278.1,1293.2l-35.3,304.7h-98.7q-13.3-70.4-24.1-160.1c-3.2,25.8-10.7,79.2-22.1,160.1H999.8l-35.6-304.7h77.1l8.3,106.5,8.1,102.8q4.3-79.9,21.9-209.3h82.1c.8,9.1,3.7,42.6,8.3,100.7l9,115.9q7.1-110.7,22.1-216.6Zm196.3,178.6c0,30.7-.7,52.2-2.1,65a72.2,72.2,0,0,1-44.4,59.1c-12.8,5.7-27.8,8.5-45,8.5s-30.9-2.7-43.8-8-23.5-13.3-31.3-24a74.2,74.2,0,0,1-14.2-34.7c-1.4-12.6-2.1-34.5-2.1-65.9v-52.1c0-30.7.7-52.3,2.1-65.1a73,73,0,0,1,13.5-34.9,74.2,74.2,0,0,1,30.7-24.2c13-5.6,28-8.5,45.1-8.5s31,2.7,43.9,8.1a71.4,71.4,0,0,1,31.3,23.9,73.2,73.2,0,0,1,14,34.8c1.6,12.5,2.3,34.5,2.3,65.9ZM1395,1371.7c0-14.1-.7-23.1-2.3-27.2s-4.6-5.9-9.4-5.9a10.5,10.5,0,0,0-9.3,4.9c-2.1,3.1-3.2,12.5-3.2,28.2v142.2c0,17.7.7,28.5,2.1,32.6s4.6,6.4,9.8,6.4,8.6-2.4,10.2-7.2,2.1-16.2,2.1-34.1Zm109.2-78.5h56.1q56,0,75.9,4.3c13.2,2.9,23.9,10.2,32.2,22.1s12.5,30.8,12.5,56.7c0,23.7-2.9,39.6-8.8,47.7s-17.5,13.1-34.8,14.7c15.8,3.9,26.3,9.1,31.7,15.7s8.7,12.4,10,17.9,1.9,20.6,1.9,45.1v80.5h-73.5V1496.5c0-16.3-1.2-26.4-3.9-30.4s-9.2-5.7-20-5.7v137.5h-79.3Zm79.3,52v67.7c8.9,0,15.1-1.1,18.6-3.6s5.3-10.3,5.3-23.8v-16.8c0-9.7-1.8-16-5.2-19s-9.7-4.5-18.7-4.5Zm317.1-52-45.4,137.6,49.6,167.1h-81.7l-32.2-130.6v130.6h-79.3V1293.2h79.3v118.3l35.6-118.3Z" transform="translate(-589 -221.1)"/></svg>