<svg id="Layer_1" data-name="Layer 1" xmlns="http://www.w3.org/2000/svg" viewBox="0 0 3288.1 1954.4"><defs><style>.cls-1{fill:#1484ac;}</style></defs><title>thank_you</title><path class="cls-1" d="M3453.3,959.6c-13-9.3-27.3-13.4-42.4-2.7-5.7,4-12.5,6.6-18.9,9.5-55.9,25.2-110.5,52.4-156,94.7-1.8,1.7-5.9,1-11.9,1.8,3.2-8.8,5.1-15.2,7.9-21.3,41.5-91,83.1-182,135.4-267.4,12.7-20.8,9.4-37.8-1.9-55.4-18.9-29.6-40.8-28.8-59.1,1-29.5,48.1-58.6,96.5-89.2,143.9-25.5,39.5-50.6,79.1-72.5,120.9-15.3,29.1-32.7,57.1-50.3,84.9-23.4,36.6-47.9,72.6-72.1,108.6-2.9,4.3-7.2,7.5-13.7,14.1,0-8-.8-11.5.1-14.5,10.1-36.2,20.6-72.3,30.7-108.6,2.9-10.1,6-20.6,6.6-31,1.1-21.4-7.1-39.9-25.1-51.4-16.4-10.5-31.6-1.6-45.6,8-1.9,1.3-3.9,2.6-5.7,4.1-35.9,30.3-73.2,59-103,95.9-6.5,7.9-13.6,15.3-23,25.8-2.6-16,6.4-23.9,9.1-33.6,8.1-29.5-7.3-58.2-36.6-66.2-7.4-2-14.4-.4-19.4,5.2s-8.3,11.3-11.9,17.2c-9.6,16.2-17.8,33.3-28.7,48.5-34.4,47.6-68.9,95.2-105,141.6-22.4,28.7-47.5,55.3-71.8,82.4-3.3,3.6-9.3,4.8-15.3,7.7-3.4-24.3,2.6-44.8,7.1-65.3,8.7-40.5,23.9-78.6,39.7-116.7,12.9-31.1,8.4-48.2-16.3-68.2-15-12.1-27.9-12-39.1,3.9-9.3,13.3-21.1,21.3-35.4,27.2-9.8,4.1-19,9.3-28.9,13.2-27.8,11.1-51,28.6-72.2,49.5a245.8,245.8,0,0,1-35.2,29.2c-70.3,47.1-139,96.4-204.7,149.8-2.9,2.3-7.4,2.5-12,4-2.6-16.1,3.2-28,7-40.1,21.1-67.4,38.9-135.6,51.8-205,1.9-10.4,2.3-21,3.8-31.4,3.7-25.7-11.2-42-28.7-56.7-11.7-9.8-25.5-12.6-39.7-6.6s-30.6,12.7-44.2,21.7c-47.5,31.3-88.8,69.4-120,117.7-2.6,4.1-6.9,7.1-16.1,16.4,3.4-14.6,4.6-21.3,6.4-27.8,7.6-27.2,15.4-54.3,23.1-81.4,24-84.8,47-169.9,72.6-254.3,20.1-66.2,40.8-132.4,71.8-195,11.9-24.1,11.6-49.8-3-74-7.6-12.6-19.7-14.7-28.1-2.4-13.1,19.4-27.2,39-35.8,60.5-25.7,64.3-56.5,126.8-72.8,194.6-1.1,4.6-3,9-4.5,13.4-2.9,8.6-8.4,13.9-17.7,14.9-5.9.6-11.7,1.4-17.6,1.9a868.4,868.4,0,0,0-163.2,27.5c-5.1,1.4-10.8.2-16.7.2,0-7.1-.4-11.8.1-16.4,3.3-29.8-13.6-48.7-35.3-64.6-10.4-7.6-24.8-1.3-27.3,11.3-1.1,5.7-.7,11.8-1.9,17.5-4.2,20.7-8.3,41.5-13.4,62-3,12-10.6,19.8-23.5,23.5-55.4,15.7-110.5,32.7-165.9,48.3-20.4,5.7-41.4,8.9-62,13.6-10.3,2.4-20.8,5-25,18.2,4.5,9.9,9,20.6,14.4,30.8,2.1,3.9,5.9,7.1,9.4,10.1,15.5,13.2,33.3,16.7,52.8,11.4l142.9-39c5.3-1.4,10.6-2.6,18.6-4.5,0,7,.9,11.6-.1,15.8-6.6,26.2-14,52.2-20.3,78.4-15,62.9-29.5,125.9-44.5,188.8-17.1,72.1-34.2,144.1-52,215.9-5.1,20.5-12.8,40.3-19.1,60.5s-1.8,35.9,12.3,51.8c32.5,36.5,50.9,17.3,60.6-12.4,5.4-16.7,8.8-34.1,12.9-51.2,14.2-59.5,29.4-118.7,42-178.5,21.9-103.5,41.2-207.5,68.9-309.7q9.1-34,18.9-68c3.8-13.6,12-21.7,26.8-24.2,17.4-2.8,34.4-7.9,51.6-11.9,39-9,78.3-16.3,118.5-16.7,6.6-.1,13.2,1.9,18.9,2.8,4.2,14.4-2.2,25.1-5.2,36.2-28,102.1-56.9,203.9-84.2,306.1a1864.5,1864.5,0,0,1-85.2,246.5c-13,30.3-9.5,47.7,14.5,68.7,15,13.1,35.3,10.9,45.2-6,5.3-9,8.4-19.3,11.7-29.3,22.3-68.6,51.5-134,90.1-194.8,29.6-46.6,62.1-91.4,93.3-137,18.8-27.4,42.2-50.6,66.3-73,5.7-5.3,13.2-8.6,23.5-15-.7,11.9.1,20-1.8,27.3-19.1,72.8-38.8,145.4-58.1,218.1-5.5,20.5-11.7,40.8-15.2,61.6-5.2,31.9,13.9,55,36.2,66.7,20.2,10.6,35.5-3.8,50-16.2,41.1-35.1,82.1-70.3,123.4-105.3,3-2.6,7.4-3.5,13-5.9,0,8.5-.3,14.3.1,20.1,1.3,23.1,10.1,42.7,25.8,60.2,22.6,25.1,46.7,26.3,76.1,10.4a148.9,148.9,0,0,0,33.5-25.6c17.3-17.6,32.8-36.8,49.5-54.9,4.3-4.8,10.2-8.1,13.7-10.8,14.7,16.8,26.7,32.7,41,46.3,18.1,17.3,40.6,19.5,61.2,5.8,13.5-9,25.8-20.4,36.8-32.4,18.1-20.1,34.5-41.6,51.9-62.3,4.2-5.2,7-12.8,17.1-11.2,0,4.3.7,8.9-.1,13.1-4.1,23.2-7.8,46.5-13.2,69.3s3.7,39.4,16.5,55.1,34,16.1,47.4,3.8c6.5-5.9,10.4-15.4,13.4-24,24-69.3,54.1-135.3,97.2-195,8.9-12.4,15.7-26.4,24.9-38.5,15.6-20.5,32.2-40.3,48.9-60,3.2-3.8,7.8-9,15.4-2.6-7.3,29-14.4,58.5-22.2,87.8-7.1,26.5-8,53.5-8.4,80.5-.1,14.3,2,28.5,9.7,40.8,17,27,37.8,33.1,60.4,11.5,11.1-10.6,22.3-21.2,31.4-33.4,19-25.3,36.7-51.7,54.9-77.6,6.5-9.3,13.1-18.5,21.8-30.6,3.9,7.3,6.6,11,7.7,15,3.6,14.4,13.5,24.5,22.8,35.1s20.5,11.4,32.1,6c7.3-3.3,13.8-8.8,20.2-13.8,8.2-6.5,16.1-13.4,24.6-20.6l44.6,12.4c30.9,8.5,62.5,10.8,94.4,10.2,19.9-.3,36.9-6.6,46.3-26.1-3.3-32.1-23.6-47.1-53-52.4-13.9-2.5-27.9-4.2-41.9-6.4-5.1-.8-12.1,2.1-14.2-5.9,36.9-50,110-101.3,167.2-117.5,25.8-7.3,36.9-25.7,30.7-50.1C3474.9,974,3463.5,967,3453.3,959.6ZM2441.5,1289.7c-18.4,24.1-36.1,49.1-60.6,67.9-1.2.9-4.1-.4-8.9-1,5-18.6,15.4-33.7,26.7-48.1,34.1-43.3,59.6-68.9,80.7-79.9C2468.5,1252.6,2455.5,1271.6,2441.5,1289.7Z" transform="translate(-856 -522.8)"/><path class="cls-1" d="M2115.1,1640.1c-10.5-7.2-23.9-6.2-31.7,3.7a144.3,144.3,0,0,0-16.4,26.9c-21.7,45.7-42.7,91.6-64.2,137.4-6.4,13.8-12.6,27.9-20.7,40.8-34.1,54.1-76.6,101.2-124.5,143.3-11.2,9.8-25.3,16.7-38.8,23.6-24.5,12.6-52.8-1.2-64.5-20.5-10.5-17.3-18.3-35.5-18.5-56.2-.2-28.4,2.3-56,13.4-82.9,13-31.3,4.5-53.7-24-72.5-14.4-9.4-31.4-6.2-38.8,9.7-28.8,61.8-41.7,124.4-9.5,189.8,16,32.4,37.9,59.7,63.9,83.4,34.6,31.7,102.3,50.7,148.8,10.1,2.9-2.6,7.5-3.4,11.1-4.9,5.5,7.8,1.3,13-.9,18-18.5,42-36.4,84.2-56.1,125.5-24.6,51.3-57.8,96.8-96.9,138.1a224.5,224.5,0,0,1-55.5,43.1c-37.7,20.5-77.2,28-118.9,13.5-16.6-5.8-32.9-12.5-49.1-19.3-2.8-1.2-4.6-4.8-8.1-8.7,2.8-5,4.7-10.6,8.2-14.8,13.5-16.3,27-32.7,41.4-48.1,10.1-10.8,11.6-22.3,7.9-35.8-5.3-18.8-16.5-25.5-34.3-17.8-15,6.6-28.8,16.1-43.7,23-22.7,10.6-36.5,29.3-47,50.7-22.2,45.2-8.1,77.8,39.5,93.4l3.4.8c23.8,3.2,44.4,14.7,65.6,24.8,14.8,7,30.3,15.1,46.1,16.8,73,7.9,141.1-4.1,195-59.1,22.2-22.6,42.5-47.1,63.3-71a127.3,127.3,0,0,0,16.5-22.8q36.3-66.4,71.8-133.4c4.4-8.3,7.7-17.2,10.9-26,22-60.8,43.4-121.7,65.8-182.3,16.2-44.1,32.5-88.2,50.7-131.5,19-45.5,40.7-89.9,60.5-135.2C2150.1,1683.3,2142.3,1658.5,2115.1,1640.1Z" transform="translate(-856 -522.8)"/><path class="cls-1" d="M2728.2,1731.5c-17.3-15.6-40.7-10.4-48.4,11.4-3.8,10.9-5.3,22.9-6.4,34.5-3.2,31.3-15.5,58.7-33.2,84.3-21.2,30.4-47.8,54.9-78.6,74.9-3.6,2.3-8.3,2.9-12.6,4.3-8.3-9.2-7.1-18.7-4.9-27.7,6.1-25.1,12.3-50.2,19.6-75,12.3-41.7,30.9-78.8,73.9-97.7a36.5,36.5,0,0,0,20.4-23.3c5.9-19.2-3.1-40.9-22.5-55.1s-30.3-14-51.3,0c-4.9,3.3-9.9,6.5-14.1,10.5-20.8,19.9-45.9,33.5-71.6,44.5-38.9,16.5-78.8,30.4-122.6,27.1-18.7-1.4-37.6.3-56.4.2-17.3,0-32,7-45.6,16.6-19.6,13.9-21.4,31.4-3.1,46.5,12.4,10.2,27.3,17.4,41.8,26.4,2.9,9.6,1.8,19.7-2.9,29.8-6,12.7-11.4,25.8-17.4,38.5-19.5,41.5-49.2,74.3-86.3,100.6-4.5,3.1-10.3,4.4-15.6,6.6-13.2-15.3-10.3-32.1-9-48.2,2.9-35.8,15.5-68.3,33.5-99.1,9.5-16.2,18.5-33,25.1-50.5,10.6-28.4-12.6-55.6-42.7-51.5-13.6,1.8-24.1,8.8-31.5,20.2-31,47.8-56.1,98-62,155.8-3,29.7-.6,58.6,12.9,86,12.3,25,31.1,43.6,53,60.2a52.8,52.8,0,0,0,32.3,11.4c17.1.4,33.1-3.1,46.6-13.3,43.3-32.9,84.1-67.9,107.3-119.2,10.1-22.4,20.7-44.7,37-63.8,12.5-14.8,18.4-32.5,18.2-52.2-.1-7.8,1.5-15.7,2.4-25.1,24.2-1.2,46.2-10.1,70.5-6.9.7,21-7.5,38.3-11.6,56.4-8.7,38.5-10.6,76.7,2.3,114.8,9.4,28,41.9,49.6,71,46.3,20.1-2.3,38.6-9,56.4-18.8,44.4-24.4,78.4-60.3,107-100.7,25.3-35.6,42.6-75.4,44.7-120.7C2754.9,1765.8,2745.6,1747.2,2728.2,1731.5Z" transform="translate(-856 -522.8)"/><path class="cls-1" d="M4131.8,1368.2c-6.5-9.6-16.8-17-22.4-27-11.5-20.1-30.4-28.8-50-37-26.1-10.9-53.9-15.8-81.7-21-64.5-11.9-128.7-8.4-192.6,3-12.4,2.2-24.3,8-35.9,13.5-6.6,3.2-9.7,10.2-8.4,17.9,2,11.5,3.9,23.1,6.6,34.5,4.9,20.3,20.3,31.3,41.7,29.5,9.3-.8,18.5-3.1,27.7-4.9,57-11.4,114-15.3,171.5-3.5,41.3,8.4,83.6,12.8,121.1,34.7,5.3,3.1,14.2,3.2,20.2,1.1s9.2-8.6,14.4-13.9C4139.6,1384.9,4137,1375.7,4131.8,1368.2Z" transform="translate(-856 -522.8)"/><path class="cls-1" d="M3046.7,1472.3c-12.6-8.1-24.5-5.9-33.7,6.3-4.2,5.6-7.4,11.9-10.9,18.1-13.7,24.5-27.9,48.8-41,73.7a930.4,930.4,0,0,0-71.7,179.1c-6.5,22.7-14.5,47.7.4,72.5,29.3,10.2,48.2.5,60.7-23.5,9.1-17.6,18-35.5,26-53.6,22.1-50.4,41.4-101.9,70.3-149.2,14.5-23.8,24.6-50.3,35.4-73.1C3076.3,1498.7,3064.1,1483.5,3046.7,1472.3Z" transform="translate(-856 -522.8)"/><path class="cls-1" d="M3726.2,1130.7c7.1,6.1,14.6,8.1,22.6,4.2a100.3,100.3,0,0,0,20.2-13.5c10.8-9,20.6-19.3,31.6-28.1,46.8-37.3,93.6-74.7,141.2-110.9,15.7-12,33.8-20.9,51.3-30.4,10.3-5.5,21.7-9,29.8-23.1-10.5-22.8-26.5-33.2-50.8-30.7-9.2.9-19.3,3-27.7.5-12.8-3.8-22.5-.9-33.1,5.5-61.5,37-120.9,76.8-174.2,124.9a290,290,0,0,0-29.5,30.2c-4.1,5-8,13-7.1,18.9C3703.5,1098.1,3710.2,1116.7,3726.2,1130.7Z" transform="translate(-856 -522.8)"/><path class="cls-1" d="M3989.8,1778.1c-24.6-23.6-51-44.9-81.7-60.2q-73.9-37.1-148.2-73.3c-14.7-7.2-29.8-13.7-45.1-19.7s-30.8-11.2-50-7c-6.1,12.2-4.9,22.3-.9,32.4s8.7,21.8,13.2,32.6c6.6,16.2,17.6,26.5,35.4,30.8,33.3,7.9,64.2,22.1,94.6,37.6,51.2,26,102.5,51.6,153.9,77.4,7.3,3.6,14.6,7.5,22.4,10.1,17,5.7,27.4-2.9,26.5-20.9C4009.1,1801.6,4001,1788.9,3989.8,1778.1Z" transform="translate(-856 -522.8)"/><path class="cls-1" d="M1052,1623.5c-17.4,1.8-35.4,1.3-52,5.8-32.8,8.8-64.9,19.8-97,31.1-9.7,3.4-19,9.3-26.9,16-23.6,20-24.9,28.3-12,57.5,1.4,3.2,2,6.7,3.7,9.8,6.6,12.4,18.1,18.8,32,16.4,7.9-1.3,15.6-4.6,23.1-7.9,50.9-22.2,103.3-37.1,159.7-35.9,17.4.4,34.9-3.3,52.4-4.6,10.9-.9,21.4-2.1,25.6-14.2s-5.3-19.3-11.8-27.3C1123.9,1639.7,1095.2,1617.2,1052,1623.5Z" transform="translate(-856 -522.8)"/><path class="cls-1" d="M1104.7,1951.1c-9.2-10.5-21.6-13.4-35.3-8.2-11,4.2-22,8.3-33.2,11.7-24.7,7.5-49.9,13.5-74.3,21.9-31.3,10.8-60.5,25.9-85.7,47.8-19.4,16.7-19.9,19.8-8.5,41.5,4.3,8.3,9,16.5,13.9,25.3,24.4,13,45.2,9.7,66.8-.1q44.9-20.4,91-37.8c24.1-9.2,49.2-15.8,73.5-24.5,8.6-3.1,16.8-8.3,23.9-13.9s7.1-12.6,2.4-19.1C1128.1,1980.6,1117.1,1965.2,1104.7,1951.1Z" transform="translate(-856 -522.8)"/><path class="cls-1" d="M1239.7,1345.5c-48.2-41.2-97.9-80.7-146.2-121.7-14.1-11.9-31.4-15.5-47.2-22.8-4.5-2-12.4,3.4-21.5,6.2,2,12,5.1,20.2,4.2,28-2.4,21.1,9.1,32.2,25.1,42.5,19.6,12.7,38.6,26.6,57.2,40.7,36.6,27.6,72.6,55.8,109.1,83.5a150.9,150.9,0,0,0,23.9,14.8c10.9,5.4,21.5,3.1,28.8-5s7.5-16.2.4-26C1263.2,1371.6,1252.8,1356.8,1239.7,1345.5Z" transform="translate(-856 -522.8)"/><path class="cls-1" d="M2860.5,1928.3a31.1,31.1,0,0,0-13.9-.4c-4.3.9-9.5,3-11.9,6.3-10.2,14.3-20.4,28.7-28.6,44.1-3.6,6.6-4.2,16.1-2.8,23.6,1.7,9,5.9,18,10.8,25.9,15.6,25.7,44.9,34.3,65.7,18.4,17.3-13.3,27.3-31.8,28.9-49.9C2909,1968.1,2883.5,1934.1,2860.5,1928.3Z" transform="translate(-856 -522.8)"/><path class="cls-1" d="M2308.9,1177.8c.4-.7-3.7-5.4-6.3-6-6.3-1.7-11.4,1.9-12.2,7.9-.4,2.6,4,5.9,8.1,11.4C2303.4,1185.3,2306.8,1181.9,2308.9,1177.8Z" transform="translate(-856 -522.8)"/><path class="cls-1" d="M3213.6,2418.9c-5.1-.6-8.2,3.1-7,8,.6,2.4,4,4.1,6.9,6.9,2.4-3.6,5.4-6.1,5.4-8.7S3215.7,2419.1,3213.6,2418.9Z" transform="translate(-856 -522.8)"/></svg>